{"glyphs":{"Â":{"ha":1042,"x_min":174,"x_max":868,"o":"m 174 0 l 174 868 l 868 868 l 868 0 l 174 0 m 846 22 l 846 846 l 196 846 l 196 22 l 846 22 z "},"Ã":{"ha":1042,"x_min":174,"x_max":868,"o":"m 174 0 l 174 868 l 868 868 l 868 0 l 174 0 m 846 22 l 846 846 l 196 846 l 196 22 l 846 22 z "},"Å":{"ha":1042,"x_min":174,"x_max":868,"o":"m 174 0 l 174 868 l 868 868 l 868 0 l 174 0 m 846 22 l 846 846 l 196 846 l 196 22 l 846 22 z "},"Æ":{"ha":1042,"x_min":174,"x_max":868,"o":"m 174 0 l 174 868 l 868 868 l 868 0 l 174 0 m 846 22 l 846 846 l 196 846 l 196 22 l 846 22 z "},"Ç":{"ha":1042,"x_min":174,"x_max":868,"o":"m 174 0 l 174 868 l 868 868 l 868 0 l 174 0 m 846 22 l 846 846 l 196 846 l 196 22 l 846 22 z "},"Ê":{"ha":1042,"x_min":174,"x_max":868,"o":"m 174 0 l 174 868 l 868 868 l 868 0 l 174 0 m 846 22 l 846 846 l 196 846 l 196 22 l 846 22 z "},"Ô":{"ha":1042,"x_min":174,"x_max":868,"o":"m 174 0 l 174 868 l 868 868 l 868 0 l 174 0 m 846 22 l 846 846 l 196 846 l 196 22 l 846 22 z "},"Õ":{"ha":1042,"x_min":174,"x_max":868,"o":"m 174 0 l 174 868 l 868 868 l 868 0 l 174 0 m 846 22 l 846 846 l 196 846 l 196 22 l 846 22 z "},"×":{"ha":1042,"x_min":174,"x_max":868,"o":"m 174 0 l 174 868 l 868 868 l 868 0 l 174 0 m 846 22 l 846 846 l 196 846 l 196 22 l 846 22 z "},"Ø":{"ha":1042,"x_min":174,"x_max":868,"o":"m 174 0 l 174 868 l 868 868 l 868 0 l 174 0 m 846 22 l 846 846 l 196 846 l 196 22 l 846 22 z "},"Û":{"ha":1042,"x_min":174,"x_max":868,"o":"m 174 0 l 174 868 l 868 868 l 868 0 l 174 0 m 846 22 l 846 846 l 196 846 l 196 22 l 846 22 z "},"Þ":{"ha":1042,"x_min":174,"x_max":868,"o":"m 174 0 l 174 868 l 868 868 l 868 0 l 174 0 m 846 22 l 846 846 l 196 846 l 196 22 l 846 22 z "},"â":{"ha":1042,"x_min":174,"x_max":868,"o":"m 174 0 l 174 868 l 868 868 l 868 0 l 174 0 m 846 22 l 846 846 l 196 846 l 196 22 l 846 22 z "},"ã":{"ha":1042,"x_min":174,"x_max":868,"o":"m 174 0 l 174 868 l 868 868 l 868 0 l 174 0 m 846 22 l 846 846 l 196 846 l 196 22 l 846 22 z "},"å":{"ha":1042,"x_min":174,"x_max":868,"o":"m 174 0 l 174 868 l 868 868 l 868 0 l 174 0 m 846 22 l 846 846 l 196 846 l 196 22 l 846 22 z "},"æ":{"ha":1042,"x_min":174,"x_max":868,"o":"m 174 0 l 174 868 l 868 868 l 868 0 l 174 0 m 846 22 l 846 846 l 196 846 l 196 22 l 846 22 z "},"ç":{"ha":1042,"x_min":174,"x_max":868,"o":"m 174 0 l 174 868 l 868 868 l 868 0 l 174 0 m 846 22 l 846 846 l 196 846 l 196 22 l 846 22 z "},"ê":{"ha":1042,"x_min":174,"x_max":868,"o":"m 174 0 l 174 868 l 868 868 l 868 0 l 174 0 m 846 22 l 846 846 l 196 846 l 196 22 l 846 22 z "},"ô":{"ha":1042,"x_min":174,"x_max":868,"o":"m 174 0 l 174 868 l 868 868 l 868 0 l 174 0 m 846 22 l 846 846 l 196 846 l 196 22 l 846 22 z "},"õ":{"ha":1042,"x_min":174,"x_max":868,"o":"m 174 0 l 174 868 l 868 868 l 868 0 l 174 0 m 846 22 l 846 846 l 196 846 l 196 22 l 846 22 z "},"÷":{"ha":1042,"x_min":174,"x_max":868,"o":"m 174 0 l 174 868 l 868 868 l 868 0 l 174 0 m 846 22 l 846 846 l 196 846 l 196 22 l 846 22 z "},"ø":{"ha":1042,"x_min":174,"x_max":868,"o":"m 174 0 l 174 868 l 868 868 l 868 0 l 174 0 m 846 22 l 846 846 l 196 846 l 196 22 l 846 22 z "},"û":{"ha":1042,"x_min":174,"x_max":868,"o":"m 174 0 l 174 868 l 868 868 l 868 0 l 174 0 m 846 22 l 846 846 l 196 846 l 196 22 l 846 22 z "},"þ":{"ha":1042,"x_min":174,"x_max":868,"o":"m 174 0 l 174 868 l 868 868 l 868 0 l 174 0 m 846 22 l 846 846 l 196 846 l 196 22 l 846 22 z "},"‛":{"ha":1042,"x_min":174,"x_max":868,"o":"m 174 0 l 174 868 l 868 868 l 868 0 l 174 0 m 846 22 l 846 846 l 196 846 l 196 22 l 846 22 z "}," ":{"ha":832,"x_min":0,"x_max":0,"o":""}," ":{"ha":832,"x_min":0,"x_max":0,"o":""},"-":{"ha":720,"x_min":75,"x_max":644,"o":"m 625 671 q 634 606 626 646 q 644 546 642 567 q 600 543 629 543 q 553 546 568 543 l 553 554 q 564 559 558 559 q 576 557 568 559 q 587 554 584 554 q 602 562 593 554 l 432 562 q 472 566 447 564 q 519 571 498 569 q 562 572 540 572 q 593 571 583 572 q 597 581 597 575 l 596 591 l 587 600 q 497 595 545 595 q 401 594 449 595 q 310 587 353 593 q 406 595 357 593 q 509 601 454 597 q 596 608 565 604 q 602 619 602 614 q 587 647 602 634 q 492 643 540 643 q 396 646 457 643 q 273 652 334 649 q 178 654 212 654 q 160 659 172 654 q 140 663 148 663 l 135 663 q 134 646 135 657 q 132 628 132 634 q 148 606 132 612 q 202 590 164 600 q 250 571 240 581 q 219 566 238 570 q 187 562 201 562 l 174 562 l 182 568 q 168 582 176 578 q 140 593 159 587 q 118 600 121 599 q 110 595 113 595 q 98 599 106 595 q 83 603 90 603 q 98 633 98 611 q 98 644 98 640 q 97 654 98 648 q 95 666 96 659 q 94 676 94 672 q 103 701 94 695 q 336 677 235 686 q 543 669 437 669 q 625 671 597 669 m 389 614 q 334 611 357 612 q 294 610 311 610 q 195 619 239 610 q 283 615 227 616 q 389 614 340 614 m 151 562 l 151 554 q 142 555 146 555 q 131 555 138 555 q 114 546 119 555 l 126 519 l 278 526 q 202 520 253 522 q 126 515 151 519 q 122 498 122 510 l 122 481 q 144 475 131 475 q 171 478 154 475 q 201 481 189 481 l 214 481 l 129 472 q 126 457 126 468 l 126 436 q 234 448 159 437 q 350 460 309 460 q 417 451 375 460 q 484 443 460 443 q 541 444 515 444 q 608 444 567 444 q 612 467 612 449 q 575 475 600 475 l 539 475 l 525 475 q 581 479 543 479 q 612 484 598 479 q 510 503 611 503 q 446 501 481 503 q 412 500 410 500 l 608 500 q 631 529 612 529 q 642 526 633 529 l 642 407 q 572 410 607 408 q 509 413 538 412 q 434 416 480 415 q 364 418 388 418 q 106 385 229 418 l 103 393 l 90 393 l 75 559 q 94 570 82 570 q 120 566 101 570 q 151 562 140 562 m 389 554 l 397 559 l 418 559 l 389 554 m 378 494 l 397 494 l 378 494 z "},".":{"ha":408,"x_min":35,"x_max":374,"o":"m 302 262 l 304 245 q 283 153 304 209 l 275 153 q 279 196 279 174 l 278 243 q 272 248 278 243 q 262 253 266 253 l 258 252 q 245 192 245 230 q 244 200 244 195 q 248 217 244 204 q 252 235 252 230 q 232 245 252 245 q 233 248 233 247 q 233 249 233 248 q 229 250 231 250 q 221 250 227 250 q 191 254 200 250 l 183 256 q 167 245 170 256 l 171 245 l 171 235 l 167 235 q 160 253 167 253 l 155 252 q 139 243 139 252 l 143 243 l 143 232 l 139 232 l 139 236 q 131 245 139 245 q 114 234 117 245 q 111 192 111 223 l 111 187 q 90 227 111 222 q 66 201 66 224 q 72 170 66 193 q 77 136 77 146 q 83 94 81 123 q 93 48 85 64 q 123 28 100 33 l 136 56 q 133 47 136 52 q 128 37 130 42 q 126 28 126 33 q 138 11 126 11 q 150 18 144 11 q 158 32 155 24 l 158 36 q 163 43 158 41 q 174 46 169 45 q 179 52 179 47 q 203 96 192 81 q 193 54 196 63 q 178 24 190 44 q 164 28 164 24 q 171 33 164 32 q 183 35 177 35 q 193 29 191 35 q 189 24 193 28 q 193 21 191 21 q 205 24 197 21 q 210 25 207 25 q 212 14 212 25 l 215 24 q 218 28 215 28 q 231 25 222 28 q 243 22 239 22 l 244 24 q 258 37 249 25 l 278 24 l 278 22 q 277 25 277 22 l 277 31 q 278 45 277 39 q 278 62 278 52 q 279 70 279 69 q 279 72 279 71 q 281 68 281 72 q 288 34 284 44 q 309 24 292 24 q 319 82 313 51 q 331 141 325 113 q 343 199 337 170 l 330 207 q 320 190 324 201 q 314 172 317 178 q 301 152 307 164 q 292 127 296 139 q 308 179 294 142 q 322 245 322 216 l 329 248 q 345 244 337 248 q 358 236 352 240 q 374 227 364 232 q 340 47 340 85 q 343 24 340 35 q 345 20 345 22 q 329 4 345 12 q 302 -4 313 -4 q 269 -1 292 -4 q 233 1 245 1 q 220 11 229 11 q 184 -3 205 11 q 186 -1 186 -3 l 182 -1 q 167 0 167 -1 l 167 1 l 165 1 q 148 -9 163 1 q 129 -20 133 -20 q 127 -18 127 -20 q 134 -7 127 -13 q 116 -7 123 -7 q 102 -8 110 -7 q 67 29 83 -8 q 43 113 51 66 q 35 179 35 159 q 39 235 35 218 q 59 248 42 244 q 82 253 76 251 q 87 271 87 256 q 167 279 119 279 q 302 262 233 279 m 254 144 q 260 151 260 147 q 256 161 260 155 q 252 172 252 168 q 260 155 260 171 q 254 144 260 148 m 115 144 l 119 144 l 119 123 l 115 123 l 115 144 z "},"?":{"ha":909,"x_min":22,"x_max":889,"o":"m 807 1051 q 838 1024 829 1040 q 856 978 846 1008 q 880 932 867 947 q 889 854 889 894 q 876 752 889 799 q 837 664 863 705 q 770 581 810 623 q 735 553 758 568 q 687 524 712 539 q 646 491 662 509 q 627 450 630 473 q 604 413 612 435 q 592 365 595 391 q 585 315 588 338 l 539 317 q 380 298 447 317 q 382 323 382 307 q 379 361 382 336 q 376 399 376 386 q 392 454 376 431 l 399 446 l 399 339 q 450 347 416 341 q 505 354 484 352 q 553 358 527 357 q 578 432 561 377 q 616 516 595 488 q 685 561 637 544 q 752 610 713 572 q 807 676 791 648 l 812 676 q 848 782 835 736 q 861 873 861 827 q 857 886 859 876 q 850 897 856 895 l 839 873 l 839 925 q 832 982 839 965 l 821 920 q 824 947 821 925 q 828 978 828 969 q 812 1013 828 1003 q 798 991 802 1012 q 793 970 793 970 l 796 970 l 796 939 l 793 939 q 788 993 793 963 q 782 1023 784 1023 q 770 1045 778 1034 q 754 1067 762 1056 q 750 1029 750 1057 l 750 1043 q 727 1088 750 1077 q 665 1100 705 1100 q 607 1086 630 1100 q 458 1118 539 1118 q 222 1051 330 1118 l 237 1051 q 168 1013 195 1041 q 109 931 140 985 q 65 863 77 878 l 77 851 l 111 882 q 99 871 106 876 q 89 859 93 865 q 85 846 85 853 q 96 839 87 839 q 122 851 106 839 q 192 901 149 884 q 90 798 163 867 q 22 863 39 817 q 39 887 33 874 q 52 915 45 899 q 65 947 58 931 q 232 1105 119 1053 q 473 1157 345 1157 q 594 1146 511 1157 q 717 1125 677 1136 q 772 1096 743 1118 q 807 1051 801 1074 m 302 1075 l 311 1079 l 330 1079 l 302 1075 m 528 1075 l 542 1075 l 528 1075 m 585 1067 l 553 1071 l 581 1071 l 585 1067 m 249 1054 l 272 1067 l 279 1067 l 249 1054 m 717 1010 q 667 951 717 951 q 635 967 648 951 q 623 1000 623 982 q 631 1025 623 1019 q 665 1043 640 1031 q 717 1010 699 1043 m 572 1032 q 566 1031 570 1031 q 550 1034 560 1031 q 534 1036 540 1036 q 528 1035 530 1036 l 572 1032 m 750 1017 l 754 1017 l 754 970 l 750 970 l 750 1017 m 561 997 l 547 997 q 527 996 540 997 q 503 993 514 994 q 481 990 492 991 l 488 990 q 513 996 496 990 q 542 1002 530 1002 q 561 997 551 1002 m 509 947 l 500 949 q 486 946 496 949 q 472 943 477 943 l 465 945 q 509 947 476 947 m 519 947 l 546 947 l 519 947 m 161 939 l 134 908 l 161 939 m 514 755 q 457 706 494 736 q 396 652 420 676 q 358 600 372 628 q 372 589 366 589 q 457 665 395 620 q 412 633 429 654 q 388 593 395 613 q 370 534 380 573 q 350 473 359 495 l 358 465 q 393 511 374 481 q 424 554 412 541 q 396 516 422 552 q 358 456 370 481 q 346 404 346 431 q 350 372 346 389 l 372 358 q 364 343 366 348 q 357 334 361 338 q 346 329 352 329 q 332 336 340 329 q 319 346 323 344 q 310 407 310 374 q 325 502 310 436 q 339 600 339 567 q 373 654 353 632 q 428 709 393 675 q 481 772 464 742 q 500 840 499 802 q 460 856 486 856 q 439 854 450 856 q 413 848 429 852 q 380 840 398 844 q 301 780 333 809 q 254 713 270 751 q 194 742 239 724 q 131 781 149 760 q 140 802 133 784 q 154 830 148 821 q 172 843 160 840 q 162 823 170 836 q 150 802 154 811 l 170 789 l 172 793 q 195 775 176 778 l 229 812 q 213 789 220 799 q 203 770 206 779 l 235 755 q 303 827 267 796 q 381 876 339 857 q 469 895 424 895 q 514 890 492 895 l 522 882 q 541 913 531 890 q 553 939 551 936 q 542 861 550 896 q 514 755 533 825 m 615 936 l 612 920 l 615 936 m 787 928 l 785 908 l 787 928 m 637 920 l 635 901 l 637 920 m 345 908 l 361 917 l 353 908 l 345 908 m 689 879 l 692 901 q 689 879 689 895 m 326 897 l 307 882 l 326 897 m 240 823 l 285 871 l 288 871 l 240 823 m 815 806 l 804 781 l 815 806 m 519 708 l 500 693 l 519 708 m 492 690 l 476 676 l 492 690 m 500 624 l 488 616 l 500 624 m 627 250 l 627 87 l 604 77 q 622 52 617 66 q 632 7 627 37 q 476 -1 568 -1 q 389 0 429 -1 q 288 0 350 0 q 295 54 288 16 q 302 115 302 92 q 315 126 309 121 q 322 138 321 131 l 307 146 q 314 170 314 157 q 310 199 314 180 q 306 229 306 219 q 329 253 306 253 q 350 250 336 253 l 358 241 q 415 237 385 237 q 467 240 444 237 q 535 250 490 243 q 618 261 581 258 l 627 250 m 596 220 q 440 199 522 199 q 334 211 386 199 q 332 201 332 208 q 335 194 332 197 q 343 190 338 191 q 354 186 349 189 q 361 180 359 184 q 334 176 354 176 q 335 165 334 171 q 339 157 336 159 q 430 143 355 149 q 542 135 505 136 q 334 131 472 131 q 333 107 334 122 q 332 78 332 92 q 358 61 332 61 q 344 58 355 59 q 329 54 334 56 q 323 45 323 52 q 326 33 323 41 q 460 25 416 25 q 593 39 539 25 l 593 53 l 539 57 q 572 61 549 61 q 581 72 581 69 l 581 77 l 484 77 q 399 85 432 77 l 399 87 q 456 91 435 90 q 508 94 478 92 q 563 99 538 96 q 607 104 588 102 q 603 122 603 109 q 604 137 604 130 q 604 154 604 144 q 585 180 604 179 q 600 195 600 186 q 596 220 600 197 m 566 176 l 585 176 l 566 176 m 387 172 l 485 165 l 387 172 m 399 57 l 415 57 l 399 57 z "},"A":{"ha":1026,"x_min":25,"x_max":1002,"o":"m 505 611 q 498 583 500 591 q 505 611 503 598 m 517 660 l 519 671 q 517 660 517 663 m 157 208 l 139 171 l 139 170 q 157 208 141 170 m 481 597 l 475 583 l 481 586 l 481 597 m 482 647 q 484 631 482 636 l 482 647 m 543 653 l 541 669 l 543 653 m 519 653 l 517 660 q 511 636 515 656 q 505 611 507 615 q 523 645 512 627 q 536 671 533 663 q 541 669 541 671 l 539 684 q 530 668 534 680 q 519 653 526 655 m 519 671 q 525 684 525 676 l 519 671 m 254 509 l 250 485 q 256 501 256 493 q 255 505 256 503 q 254 509 255 507 m 250 485 q 244 468 244 473 q 245 464 245 466 q 245 460 245 463 l 250 485 m 257 515 q 268 576 260 550 q 292 654 275 602 q 317 739 309 707 q 292 659 307 702 q 269 582 277 615 q 257 515 260 549 m 176 175 q 164 144 168 161 l 176 175 m 482 647 q 501 713 484 674 q 482 653 482 684 l 482 647 m 465 389 l 475 408 q 548 438 497 414 q 625 468 599 461 q 555 445 604 464 q 481 424 507 425 q 503 445 489 438 q 542 457 517 451 q 575 468 567 463 q 610 491 591 477 q 640 512 629 505 q 669 524 651 519 q 647 521 656 524 q 624 512 637 518 q 595 501 610 507 q 569 572 589 522 q 543 653 549 623 q 519 612 543 628 q 450 375 470 458 q 519 400 474 382 q 590 424 565 417 q 532 405 573 421 q 465 389 490 389 m 539 545 q 544 527 541 539 q 547 509 547 515 l 546 501 l 536 497 q 532 507 532 501 q 535 522 532 511 q 539 545 539 534 m 461 689 l 457 675 l 461 679 l 461 689 m 243 450 l 243 453 q 237 432 240 446 l 235 427 l 235 424 l 235 427 q 240 439 237 432 q 243 450 243 446 m 721 721 l 725 721 l 725 734 l 721 734 l 721 721 m 721 777 l 717 777 l 717 760 l 721 760 l 721 777 m 710 568 l 710 562 l 710 568 m 730 668 l 734 656 q 735 654 735 655 q 736 652 736 653 q 730 668 736 657 m 817 534 q 821 557 817 547 q 787 630 798 594 q 767 707 776 665 q 746 806 758 749 q 755 762 747 795 q 765 715 763 730 q 782 655 768 693 q 806 588 795 618 q 817 534 816 557 m 707 539 q 727 549 716 545 q 753 557 739 553 q 781 564 768 561 q 786 552 783 559 q 791 539 789 545 q 793 530 793 533 q 770 510 793 519 q 743 497 747 501 q 765 505 753 499 q 785 511 778 511 q 799 509 793 511 q 800 517 800 513 q 800 528 800 521 q 794 554 800 537 q 787 579 787 572 q 765 571 785 578 q 736 557 745 564 q 727 556 730 557 q 720 555 724 556 q 710 562 710 555 l 713 553 q 705 542 705 545 l 707 539 m 739 842 l 743 812 q 739 842 743 829 m 519 935 q 508 871 513 901 q 496 811 503 842 q 517 874 508 844 q 528 935 526 905 l 519 935 m 688 1008 l 684 1008 l 684 994 l 688 994 l 688 1008 m 602 679 l 604 667 q 605 665 605 666 q 606 663 606 664 l 607 664 q 602 679 607 668 m 595 715 q 593 710 593 714 q 595 701 593 709 q 599 693 598 693 q 595 715 599 699 m 484 765 q 496 811 492 788 q 488 785 492 796 q 484 765 485 773 m 595 739 l 590 739 l 590 724 l 595 724 l 595 739 m 669 364 l 665 357 q 711 379 701 372 q 721 415 721 387 q 717 439 721 427 q 673 457 701 457 q 646 444 656 457 q 628 411 628 433 q 637 385 628 393 q 669 364 646 377 m 646 939 l 643 939 l 643 921 l 646 921 l 646 939 m 625 835 l 621 835 l 621 821 l 625 821 l 625 835 m 433 728 q 443 757 441 746 q 436 747 437 752 q 433 728 435 743 m 627 342 l 621 342 l 627 342 m 672 268 q 681 250 677 254 l 681 262 q 672 268 681 268 m 450 275 l 449 275 l 450 275 m 684 245 l 681 250 q 684 245 681 250 m 528 306 q 463 283 481 293 q 528 306 484 289 m 449 275 l 443 275 l 449 275 m 599 334 q 528 306 575 325 q 599 334 580 321 m 457 279 l 463 283 l 457 282 l 457 279 m 684 245 q 685 243 684 244 q 685 241 685 242 q 685 244 685 243 q 684 245 684 245 m 627 342 l 628 342 l 639 345 l 631 345 l 627 342 m 821 403 l 828 379 q 821 403 827 382 m 201 233 q 176 175 188 210 q 188 200 179 182 q 201 233 197 219 m 821 403 l 817 415 l 821 403 m 884 524 q 814 734 838 655 q 773 909 790 814 q 755 1099 755 1005 q 757 1157 755 1137 q 724 1149 745 1149 q 690 1153 705 1149 q 554 1108 638 1108 q 446 1128 503 1108 l 436 1108 l 428 1124 q 414 1126 423 1124 q 396 1128 404 1127 q 381 1130 388 1129 q 364 1131 374 1131 q 328 1121 342 1131 q 309 1004 321 1069 q 281 882 297 939 q 245 779 265 826 q 237 761 237 773 q 240 747 237 757 q 243 733 243 738 q 241 725 243 730 q 239 721 239 720 l 235 726 q 196 609 218 677 q 156 489 174 541 q 115 372 139 436 q 66 254 91 309 q 33 184 56 230 q 31 179 33 182 q 27 174 28 176 q 25 168 25 171 q 34 151 25 158 q 56 139 43 144 q 81 131 70 135 q 119 105 90 127 q 160 83 147 83 q 183 97 174 83 q 191 68 191 87 q 328 0 274 40 q 375 96 347 34 q 410 175 402 159 q 535 218 494 205 q 625 233 575 231 q 647 160 635 208 q 667 81 659 113 q 690 16 675 49 q 828 82 756 35 q 913 125 854 99 q 1002 168 972 151 q 970 275 997 209 q 936 368 943 341 q 905 432 930 389 q 880 500 880 474 q 884 524 880 510 m 672 1086 l 672 1079 l 665 1101 l 672 1086 m 602 852 q 595 831 600 844 q 590 812 591 818 l 587 814 q 568 798 574 814 l 572 789 l 581 798 q 576 753 576 785 q 566 715 576 728 l 566 722 q 557 742 566 742 q 550 739 555 742 l 549 743 q 558 762 549 751 q 567 777 567 772 q 561 786 567 783 q 569 807 565 793 q 577 829 572 821 q 590 842 581 838 l 587 852 l 583 850 q 605 919 595 876 q 624 999 615 961 q 613 939 620 979 q 599 871 607 898 l 590 868 l 590 863 q 602 852 590 859 m 812 253 l 806 252 q 794 261 797 252 q 791 289 791 270 l 786 290 q 772 282 778 290 q 817 115 787 236 q 767 93 800 108 q 717 68 734 79 q 690 159 711 83 q 657 257 669 236 q 627 273 648 273 q 582 262 610 273 q 539 250 553 250 q 569 264 558 259 q 593 274 581 269 q 621 282 606 279 q 631 283 626 283 q 639 286 636 283 l 628 297 q 416 231 524 271 q 416 235 416 233 q 415 237 416 236 q 428 262 415 246 l 443 271 l 428 275 q 465 313 435 307 q 460 315 463 315 q 447 312 456 315 q 439 309 439 309 l 439 319 q 450 326 445 319 l 443 328 q 426 320 431 328 q 419 295 422 313 q 413 270 416 277 q 399 257 410 262 q 402 268 399 260 q 406 281 406 275 l 401 289 q 368 200 385 259 q 342 117 351 141 q 313 62 334 92 l 309 62 q 275 86 293 62 l 272 79 q 231 97 248 81 q 227 125 227 110 q 233 168 227 136 q 239 218 239 199 l 239 224 q 201 175 221 211 q 164 126 182 140 l 161 142 l 153 135 l 135 142 q 137 148 135 143 q 139 155 139 152 q 131 160 139 160 l 127 149 q 104 179 108 163 q 96 172 102 172 q 75 182 91 172 q 97 243 83 214 q 129 312 111 273 q 154 379 146 351 l 183 479 l 183 469 q 174 424 183 452 q 165 385 165 396 q 168 368 165 379 q 185 389 182 370 q 195 415 189 409 q 221 490 212 452 q 240 578 231 528 q 258 663 250 628 q 281 734 267 698 q 290 774 290 743 q 326 926 290 777 q 368 1095 362 1074 l 406 1095 q 383 897 401 978 l 390 890 q 446 1083 429 945 l 488 1079 q 460 1022 460 1050 q 464 1001 460 1008 q 477 988 467 995 q 494 977 487 982 q 504 979 500 979 q 522 963 515 979 q 536 946 530 946 l 546 950 q 539 971 539 959 q 549 999 539 981 q 558 1028 558 1017 q 541 1061 558 1049 q 498 1076 523 1072 l 514 1075 q 551 1078 527 1075 q 589 1080 576 1080 l 607 1079 l 610 1068 q 614 1077 612 1070 q 618 1084 616 1084 l 625 1083 q 525 686 596 899 l 528 684 q 543 707 536 689 q 557 730 550 726 q 554 713 554 720 q 568 671 554 687 l 567 681 q 574 714 567 693 q 583 745 582 736 l 587 742 q 612 842 604 818 l 616 839 q 625 913 625 893 q 642 952 635 929 q 656 1002 648 975 q 672 1050 663 1030 l 681 1039 q 680 1060 681 1046 q 679 1084 680 1073 q 703 1120 679 1120 q 721 1116 713 1120 q 734 914 723 1013 q 772 721 745 815 q 843 553 798 626 q 843 530 843 539 q 842 511 842 522 q 901 371 842 415 q 933 276 911 338 q 965 179 956 214 q 926 165 950 175 q 891 151 901 155 q 865 139 882 146 q 838 200 852 168 q 812 253 824 233 m 717 286 l 724 290 q 717 286 719 290 m 746 268 l 746 257 l 746 268 m 799 397 q 793 383 793 389 q 797 367 793 377 q 802 350 802 357 q 794 334 802 342 l 781 350 q 715 322 760 344 q 646 294 670 300 l 650 294 q 678 301 658 294 q 708 307 699 307 q 721 304 713 307 l 699 289 q 709 293 703 290 q 720 297 715 297 l 728 294 l 724 290 q 737 283 731 290 q 746 268 743 277 l 743 286 q 778 295 754 292 q 812 304 801 298 q 807 382 809 347 q 799 444 804 418 l 799 397 m 713 257 l 713 268 l 707 282 l 713 257 m 843 275 l 828 319 q 832 301 830 311 q 837 283 833 291 q 843 275 840 276 m 390 533 q 411 608 409 572 q 390 533 405 569 m 457 279 q 450 275 451 276 q 454 277 451 276 q 457 279 456 279 m 390 533 q 381 510 385 518 q 372 486 378 501 l 390 533 m 406 621 q 399 643 399 625 l 397 632 q 412 612 397 614 l 412 621 l 406 621 m 212 457 q 193 396 203 429 q 174 342 182 363 q 154 294 166 320 q 212 457 199 394 m 292 261 l 286 253 l 286 249 l 288 252 l 292 261 m 339 397 q 333 384 336 391 q 328 373 330 376 q 323 366 327 370 q 313 359 319 361 l 310 368 q 261 350 276 366 l 257 359 q 235 304 247 333 q 249 323 243 318 l 254 319 q 260 300 254 309 q 277 282 266 291 q 294 268 289 273 l 292 261 q 319 279 302 279 q 347 322 347 304 q 346 334 347 330 q 328 359 328 344 q 332 377 328 366 q 339 397 336 389 m 412 612 l 411 608 l 412 612 m 235 304 q 216 260 230 295 l 235 304 m 399 643 l 401 653 q 400 649 401 650 q 399 643 400 647 m 513 385 q 551 399 525 387 l 513 385 m 489 375 l 513 385 q 489 375 500 382 m 446 359 l 453 359 q 489 375 464 359 q 446 359 458 363 m 551 399 q 583 408 560 402 q 551 399 570 406 m 433 728 l 428 715 q 433 728 431 720 m 427 433 q 416 408 418 415 l 427 433 m 416 319 l 416 334 l 406 294 l 416 319 m 427 433 q 439 472 439 461 l 439 479 q 427 433 435 459 z "},"B":{"ha":930,"x_min":18,"x_max":908,"o":"m 186 379 q 203 424 193 406 q 186 379 193 401 m 227 543 l 227 615 l 229 615 l 229 543 l 227 543 m 236 249 q 241 266 236 256 q 251 286 245 275 q 260 304 256 296 q 264 317 264 313 q 267 357 264 340 q 275 404 271 374 q 270 348 275 382 q 256 265 265 314 q 246 259 250 262 q 236 249 241 256 m 273 437 q 275 404 275 431 q 273 437 275 431 m 210 193 q 200 224 203 204 q 195 253 197 244 l 210 193 m 227 359 l 227 370 l 227 359 m 278 461 l 278 498 l 282 498 l 282 461 l 278 461 m 186 379 q 179 330 179 351 q 183 286 179 309 q 176 326 176 304 q 186 379 176 351 m 199 268 l 199 271 q 213 307 199 278 q 227 359 227 336 l 228 353 q 219 313 228 334 q 199 268 211 292 m 236 739 l 236 724 l 233 724 l 233 739 l 236 739 m 306 832 q 292 902 297 871 q 285 954 286 933 q 306 832 296 909 m 372 1018 l 368 1074 q 372 1052 371 1059 q 372 1031 372 1044 l 372 1018 m 836 393 q 840 380 838 389 q 843 367 842 372 q 838 376 842 370 q 833 385 833 382 q 836 393 833 385 m 843 367 q 844 351 844 363 q 843 367 844 363 m 376 750 l 376 1010 l 379 1010 l 379 750 l 376 750 m 315 893 q 323 837 321 859 q 325 806 325 815 q 324 797 325 803 q 322 785 323 791 l 315 893 m 306 832 q 308 811 307 823 q 309 782 309 799 q 308 803 309 790 q 306 832 307 815 m 313 954 l 315 893 q 313 928 314 913 q 311 954 311 943 l 313 954 m 761 868 q 764 846 764 860 l 761 868 m 256 453 l 256 479 l 258 479 l 258 453 l 256 453 m 692 286 q 661 336 667 309 q 656 371 659 351 q 652 414 653 390 q 640 488 650 463 q 650 436 647 468 q 656 375 653 404 q 666 326 659 347 q 692 286 673 304 m 264 591 q 267 574 267 583 q 265 561 267 570 q 262 542 264 551 q 260 526 261 533 q 258 514 258 518 l 264 591 m 253 977 l 253 947 l 248 947 l 248 977 l 253 977 m 172 163 l 172 193 l 175 193 l 175 163 l 172 163 m 244 393 l 252 404 q 244 393 249 396 m 195 608 l 192 608 l 192 713 l 195 713 l 195 608 m 187 996 l 187 966 l 183 966 l 183 996 l 187 996 m 187 551 l 187 585 l 192 585 l 192 551 l 187 551 m 172 456 q 178 492 175 471 q 187 543 182 514 l 172 456 m 195 878 l 195 851 l 192 851 l 192 878 l 195 878 m 195 926 l 195 897 l 192 897 l 192 926 l 195 926 m 253 427 l 256 416 q 252 404 256 410 q 253 427 253 408 m 195 721 q 189 743 189 728 q 191 764 189 751 q 192 782 192 777 l 195 721 m 262 1004 q 276 1041 262 1025 q 309 1057 289 1057 q 354 1025 330 1057 q 355 1018 354 1021 q 355 1011 355 1015 q 343 976 355 991 q 311 954 330 960 q 284 967 297 957 q 264 991 271 978 l 262 1004 m 742 196 q 772 220 761 200 l 772 222 q 774 221 774 222 q 762 203 774 212 q 742 193 750 195 q 723 218 726 200 q 715 260 720 236 q 722 239 722 253 q 725 212 722 221 q 742 196 728 203 m 761 160 l 772 178 q 761 160 765 164 m 757 155 l 757 154 l 757 155 m 724 306 l 724 297 l 704 321 l 724 306 m 628 335 q 643 297 629 317 q 670 254 656 277 q 694 210 684 232 q 704 165 705 187 l 704 158 l 734 125 l 734 94 q 730 110 730 98 q 726 125 730 121 q 706 137 713 125 q 694 162 699 149 q 682 185 689 175 q 660 193 675 195 q 644 195 648 193 q 633 200 639 197 q 646 206 637 204 q 663 210 654 208 q 676 216 671 212 q 679 228 681 220 l 677 233 q 624 270 642 260 q 582 281 606 281 l 568 279 q 558 263 566 277 q 542 250 550 250 l 539 253 l 530 265 q 506 272 522 268 q 465 279 489 275 q 424 289 441 285 q 395 297 406 293 q 387 332 387 329 l 395 557 q 404 563 397 559 q 411 568 411 566 l 411 574 l 418 574 l 425 562 q 428 567 425 562 q 431 574 431 571 q 423 591 431 579 q 415 608 415 603 q 418 618 415 610 q 429 598 424 607 q 442 582 435 589 q 461 566 449 575 q 492 543 473 557 q 539 498 529 517 q 623 282 623 361 l 623 271 l 636 268 q 637 274 636 271 q 637 281 637 277 q 633 309 637 289 q 628 335 629 329 m 489 501 l 489 494 q 501 501 501 494 l 489 501 m 550 302 q 566 357 566 322 q 560 390 566 371 q 545 427 554 410 q 523 456 536 444 q 493 468 510 468 q 478 464 484 468 q 463 474 476 467 q 450 490 450 482 q 452 498 450 497 q 444 499 449 498 q 432 501 439 500 l 429 335 q 488 313 457 328 q 538 301 518 298 l 550 302 m 761 158 l 757 155 l 761 160 l 761 158 m 734 125 l 737 121 l 734 125 m 757 257 l 746 249 l 737 277 q 747 262 745 268 q 754 256 750 256 l 757 257 m 704 545 q 724 514 717 530 q 716 527 721 519 q 704 545 711 534 m 663 543 q 726 490 689 505 l 729 494 l 734 479 q 710 497 730 484 q 681 519 692 510 q 663 543 669 528 m 652 597 q 678 570 660 587 q 704 545 696 553 q 674 570 689 559 q 652 597 660 581 m 865 510 q 882 453 867 503 q 902 376 896 406 q 908 315 908 347 l 908 294 q 895 275 896 285 q 889 239 892 265 q 882 204 886 214 q 861 163 871 182 q 842 129 851 144 q 801 70 825 98 q 751 41 777 41 q 735 43 746 41 q 715 45 724 45 q 677 24 692 45 q 558 0 607 0 q 507 8 532 0 q 418 17 473 8 l 418 8 q 319 31 358 21 q 250 50 279 41 q 214 60 235 54 q 165 72 193 65 q 116 84 138 79 q 79 92 94 89 l 72 98 q 75 106 72 102 q 79 113 78 110 q 92 154 87 134 q 100 199 97 175 q 104 252 103 222 q 107 322 106 282 q 119 444 111 400 q 127 582 127 488 l 127 814 q 105 822 122 815 q 79 833 87 828 q 71 863 81 850 q 48 887 61 876 q 27 907 36 897 q 22 926 18 917 q 27 950 20 939 q 44 973 35 962 q 61 992 54 983 q 65 1007 68 1000 q 60 1025 65 1015 q 81 1051 65 1038 q 103 1074 98 1068 q 109 1093 109 1079 l 109 1101 q 172 1129 127 1129 q 198 1128 180 1129 q 224 1126 215 1126 q 264 1135 249 1126 q 319 1146 282 1135 q 379 1157 359 1157 q 432 1135 411 1157 q 495 1146 467 1141 q 547 1150 524 1150 q 623 1139 603 1150 q 642 1124 632 1133 q 661 1107 652 1116 q 680 1093 671 1099 q 700 1086 689 1086 q 737 1038 715 1074 q 779 987 758 1002 q 793 959 779 975 q 810 935 807 943 q 836 777 836 861 q 799 635 836 690 q 817 606 808 623 q 833 571 825 589 q 849 538 840 554 q 865 510 857 522 m 418 68 q 551 46 458 46 l 561 46 q 527 48 541 47 q 499 51 513 49 q 467 57 485 53 q 418 68 449 61 m 847 351 q 859 322 852 322 q 865 325 863 322 q 807 520 850 428 q 686 679 765 612 q 697 686 693 686 l 700 686 q 684 701 696 692 q 671 713 672 710 q 653 720 667 714 q 632 725 639 725 q 623 724 624 725 q 619 713 619 715 q 625 694 619 705 q 631 673 631 682 q 628 664 631 672 l 616 664 q 595 732 599 694 q 624 741 608 741 q 673 725 647 741 q 701 706 686 717 q 729 683 715 694 q 755 662 743 672 q 775 646 766 652 q 806 777 806 694 q 790 889 806 836 l 783 889 q 790 790 790 854 q 785 738 790 755 q 761 701 779 720 q 777 786 777 739 q 761 880 777 839 l 761 889 l 753 897 l 761 880 l 757 868 q 749 886 749 879 l 749 889 q 741 903 741 897 q 745 912 741 907 q 756 924 750 918 q 768 938 762 930 q 774 950 774 945 q 766 966 774 956 q 754 975 758 968 q 746 990 750 982 q 736 1005 742 999 q 721 1011 730 1011 l 711 1010 q 709 1022 711 1014 q 707 1031 707 1029 l 708 1034 q 654 1074 689 1069 q 554 1116 618 1116 q 526 1113 543 1116 q 486 1108 509 1111 q 447 1103 464 1105 q 418 1101 429 1101 l 418 1093 q 450 1097 432 1097 q 478 1093 469 1097 q 444 1087 460 1090 q 421 1079 428 1084 l 469 1074 q 461 1071 467 1071 q 421 1055 421 1071 l 507 1053 q 456 1046 478 1048 q 418 1042 433 1043 q 431 1029 418 1029 q 456 1025 449 1029 q 439 1022 450 1022 q 412 1008 412 1022 l 414 1004 q 396 1064 397 1025 q 387 1120 395 1104 l 378 1121 q 367 1108 367 1121 q 368 1098 367 1105 q 370 1086 370 1090 q 366 1074 370 1078 q 362 1095 363 1080 q 359 1117 361 1109 q 335 1104 347 1104 q 319 1093 323 1104 q 301 1103 314 1103 q 279 1098 293 1103 q 261 1093 265 1093 l 258 1093 l 258 1084 q 260 1067 258 1074 q 262 1050 262 1061 q 256 1031 262 1038 l 248 1034 l 244 981 q 236 1019 236 993 q 237 1034 236 1028 q 237 1050 237 1040 q 227 1090 237 1072 q 214 1092 222 1092 q 203 1082 203 1092 q 205 1068 203 1074 q 207 1055 207 1063 q 203 1044 207 1048 q 200 1056 201 1048 q 197 1071 199 1064 q 192 1083 195 1078 q 183 1086 189 1088 l 180 1022 q 172 1069 172 1053 l 172 1082 l 146 1082 l 135 1022 l 134 1023 l 132 1031 q 139 974 139 1006 q 139 936 139 951 q 138 905 139 922 q 125 968 135 926 q 113 1025 114 1014 l 100 1015 q 107 997 107 1002 q 100 981 107 989 q 85 964 93 972 q 70 948 77 956 q 66 932 64 940 q 68 921 66 922 q 93 926 81 926 q 109 909 109 926 q 107 893 109 905 q 106 873 106 880 q 119 846 106 851 q 123 857 123 847 q 134 882 123 878 q 144 872 139 880 l 143 875 l 150 905 q 154 895 154 893 q 165 864 154 867 l 165 818 q 165 776 165 803 q 163 720 164 749 q 162 663 163 690 q 161 621 161 636 l 161 574 l 165 578 l 172 562 q 168 519 171 545 q 157 458 164 493 q 147 400 150 424 q 143 363 144 376 q 154 293 154 325 q 150 249 154 269 q 146 223 149 239 q 139 185 143 207 q 132 148 135 163 q 127 125 129 134 q 142 123 134 125 q 157 121 150 122 l 170 158 q 174 151 174 154 q 171 140 174 147 q 168 127 168 132 l 170 121 q 184 115 174 118 q 200 113 195 113 l 203 113 l 215 193 q 218 174 218 184 q 216 149 218 165 q 214 125 214 132 q 215 110 214 114 l 244 107 q 249 123 249 113 q 253 140 249 135 q 250 152 250 143 q 248 170 249 160 q 246 190 248 180 q 240 204 244 200 q 235 228 235 216 q 264 250 235 250 q 304 253 292 250 q 319 265 317 256 l 326 265 q 360 249 349 265 q 372 208 372 232 q 368 181 371 191 q 359 168 366 172 q 341 162 353 164 q 311 155 329 160 q 294 164 301 155 q 283 182 288 172 q 276 201 279 192 q 271 210 272 210 l 267 208 q 262 146 262 176 l 264 83 q 282 87 268 87 q 312 84 293 87 q 335 81 330 81 l 336 83 q 342 118 336 114 l 346 75 q 359 72 357 75 l 368 107 l 372 98 q 385 150 385 115 q 392 215 385 192 q 400 204 400 208 q 400 222 400 215 q 399 237 400 229 q 403 265 399 253 q 406 243 403 265 q 414 213 408 222 q 432 204 419 204 q 428 200 432 200 q 421 202 428 200 q 411 204 415 204 l 410 186 q 418 174 410 178 q 411 155 411 170 l 410 151 q 417 144 410 147 q 425 140 425 140 l 414 136 l 412 122 q 421 115 412 118 q 429 110 429 111 l 418 107 l 418 94 q 443 86 427 94 l 440 83 l 427 83 q 418 86 421 83 l 418 81 q 519 56 489 61 q 554 51 536 53 q 591 49 572 49 q 704 81 660 49 q 675 96 693 87 q 643 113 657 104 l 652 121 q 692 118 660 118 q 694 129 694 121 q 700 138 693 138 q 708 130 704 138 q 715 121 711 122 q 706 111 711 118 q 692 102 700 103 q 712 95 696 98 q 734 83 728 92 l 745 82 q 780 100 764 82 q 810 129 796 118 q 821 229 821 163 q 825 347 821 307 q 833 292 831 318 q 835 243 835 267 q 834 222 835 235 q 832 193 833 210 q 851 254 851 215 q 848 293 851 268 q 846 332 846 318 q 847 351 846 347 m 746 329 q 717 396 717 364 q 720 412 717 399 l 725 414 q 747 396 737 414 q 757 367 757 379 q 751 348 757 359 q 746 329 746 336 m 742 335 q 746 348 742 340 q 750 361 750 355 q 749 366 750 363 q 746 370 747 370 l 742 370 l 742 335 m 726 404 l 726 376 q 734 358 726 364 l 734 366 q 731 378 734 371 q 728 386 728 385 q 728 390 728 387 q 729 393 729 392 l 732 393 q 749 380 742 393 q 742 395 743 386 q 729 404 741 404 l 726 404 m 697 415 q 710 428 701 419 q 726 441 718 437 q 758 407 746 439 q 772 354 772 378 q 757 310 772 328 q 745 309 750 310 q 708 340 717 309 q 701 371 708 350 q 694 401 694 392 q 697 415 694 404 m 768 357 q 765 381 768 367 q 755 406 761 395 q 740 426 749 418 q 722 435 732 435 l 720 433 q 704 400 704 422 q 714 342 704 370 q 749 314 725 314 q 768 357 768 322 m 625 961 q 608 972 618 968 q 589 981 597 977 q 575 993 581 985 q 572 1017 570 1002 q 585 1050 572 1036 q 616 1064 597 1064 q 651 1052 637 1064 q 664 1018 664 1040 q 661 1003 665 1011 q 650 986 657 994 q 635 971 643 978 q 625 961 628 965 m 726 857 l 726 868 l 726 857 m 720 886 q 723 895 722 892 q 730 899 724 899 l 734 897 q 743 860 741 873 q 746 840 746 846 l 746 831 q 737 844 737 832 q 729 871 737 864 l 726 868 q 719 880 724 873 q 711 889 714 886 l 720 886 m 704 860 q 699 877 699 869 q 689 886 700 884 l 704 897 l 704 860 m 603 551 q 625 515 616 529 q 636 494 633 501 l 603 551 m 428 947 l 435 947 l 428 947 m 515 614 q 526 641 515 629 q 551 653 536 653 q 580 643 567 653 q 599 618 593 633 l 599 608 q 589 575 599 587 q 559 562 579 562 q 515 614 515 562 m 534 543 q 590 472 574 517 q 534 543 574 509 m 603 431 q 606 412 606 416 l 603 431 m 590 472 q 599 437 596 458 q 590 472 596 458 m 612 823 q 614 817 614 822 l 612 823 m 414 656 q 412 667 414 659 q 409 688 411 676 q 405 710 407 700 q 400 728 403 721 q 403 761 403 742 q 403 783 403 775 q 401 803 403 793 q 411 851 401 833 q 409 862 410 859 q 408 868 408 865 q 415 904 408 878 q 421 945 421 930 l 421 947 l 428 947 l 421 939 l 421 926 l 489 921 q 482 920 488 920 q 468 921 475 921 q 452 921 463 921 q 421 908 427 921 l 530 897 l 515 896 q 485 899 505 896 q 454 901 464 901 q 425 895 436 901 q 457 890 436 893 q 505 880 478 888 q 595 868 561 868 q 608 869 600 868 q 628 871 616 869 q 634 879 631 872 q 640 886 637 885 q 635 892 639 889 q 632 899 632 896 l 633 901 l 636 903 q 665 889 660 903 q 653 883 656 885 q 650 875 650 882 l 652 871 q 665 855 663 865 q 671 833 667 844 q 663 853 667 843 q 652 868 660 864 q 631 859 637 863 q 625 846 625 854 l 628 846 l 628 833 l 625 833 q 621 842 625 838 q 616 846 616 846 q 610 833 610 839 l 606 838 q 595 815 595 835 l 596 799 q 585 833 593 819 l 576 833 q 572 781 574 803 q 565 745 570 760 q 553 719 561 730 q 530 699 545 708 l 561 675 l 545 675 q 458 699 529 699 q 418 684 431 699 l 414 656 m 449 857 q 440 810 440 833 l 440 728 l 450 728 q 501 724 485 728 q 519 738 513 730 q 528 759 525 746 q 534 788 532 771 q 539 831 536 806 q 492 851 533 848 q 449 857 452 856 m 596 798 q 595 785 596 787 l 596 798 m 486 603 l 476 612 q 486 603 482 608 m 425 640 l 432 642 q 455 633 446 642 q 476 612 464 625 q 457 624 469 616 q 425 640 444 631 m 449 947 l 435 947 l 449 947 m 610 833 q 612 823 612 825 q 610 833 612 822 m 596 799 l 596 798 l 596 799 m 614 817 l 614 814 l 614 817 z "},"C":{"ha":842,"x_min":20,"x_max":822,"o":"m 599 1147 q 699 1055 654 1109 q 804 913 745 1000 q 787 863 802 884 q 744 815 772 842 q 708 778 717 788 q 576 711 583 715 q 553 752 571 719 q 517 802 534 785 q 473 819 499 819 q 402 783 439 819 q 338 693 364 746 q 313 604 313 641 q 329 505 313 570 q 373 389 345 439 q 437 339 402 339 q 486 355 456 339 q 541 392 516 370 q 570 433 565 414 q 612 397 587 426 q 646 359 636 368 q 657 363 652 363 q 686 330 677 363 l 690 335 q 732 296 707 322 q 780 245 757 270 q 822 204 802 221 l 822 193 q 746 126 793 170 q 666 57 700 82 q 588 16 633 33 q 482 0 543 0 q 420 6 454 0 q 338 26 387 12 q 273 43 289 39 q 214 64 244 62 q 196 77 209 69 q 180 86 184 84 q 172 98 177 90 q 162 111 167 107 q 149 115 157 115 q 76 224 104 150 q 34 386 47 299 q 20 534 20 473 q 50 736 20 637 q 138 920 81 836 q 276 1067 195 1005 q 456 1157 358 1129 q 529 1151 491 1154 q 599 1147 567 1147 m 419 1114 l 414 1114 q 393 1107 405 1114 q 375 1100 382 1101 q 326 1070 366 1094 q 264 1028 287 1047 q 229 983 241 1008 l 254 975 q 236 930 251 939 l 232 940 q 233 950 233 943 q 231 959 233 956 q 226 961 229 961 q 221 963 223 962 q 218 968 218 964 l 204 968 q 129 848 164 922 q 74 697 94 775 q 54 557 54 620 q 72 366 54 457 q 131 204 89 275 q 146 176 137 193 q 166 146 155 159 q 189 134 177 134 q 179 151 187 140 q 171 172 171 163 q 174 180 171 175 q 194 146 177 176 q 222 104 210 117 l 232 104 q 238 108 236 104 q 240 117 239 111 q 243 126 241 123 q 317 61 267 73 l 317 82 q 306 94 312 87 q 296 108 300 101 q 293 118 293 115 q 294 126 293 123 q 313 104 304 114 q 329 89 321 95 q 346 79 336 83 q 358 75 352 75 q 383 86 370 75 q 376 110 380 94 q 368 131 373 125 q 375 134 371 134 q 382 124 378 134 q 390 113 387 114 q 395 126 395 118 q 391 144 395 132 q 386 163 387 157 l 408 164 q 449 144 434 164 q 473 178 473 159 q 500 163 484 176 l 464 123 l 473 118 q 453 110 468 113 q 428 105 438 107 q 415 94 418 102 l 433 90 q 418 83 432 83 q 408 75 408 83 l 404 79 l 386 64 l 427 61 l 415 53 q 437 47 422 53 q 457 41 451 41 q 467 46 465 44 l 467 43 q 509 37 486 37 q 615 71 568 37 q 737 175 663 104 q 751 185 741 178 q 766 198 762 193 q 771 211 771 203 q 761 220 771 220 q 749 218 755 220 q 741 216 743 216 l 737 216 l 749 229 q 744 241 749 237 q 733 250 739 245 q 702 222 722 242 q 667 191 682 202 q 635 180 652 180 l 631 180 q 677 221 644 195 q 726 265 711 247 l 693 269 l 697 277 l 686 292 l 675 279 l 668 285 q 675 298 675 288 q 668 323 675 303 q 612 269 635 300 l 612 272 q 627 299 612 282 q 643 323 642 316 q 566 265 588 287 l 562 269 q 594 300 574 279 q 628 330 614 321 q 602 358 623 344 q 576 378 581 372 l 514 330 q 484 318 507 325 q 452 302 460 311 q 465 308 457 302 q 478 314 473 314 q 485 310 481 314 q 456 292 479 305 l 467 288 q 464 277 464 279 q 474 253 464 269 q 485 229 484 237 q 475 227 479 227 q 453 241 467 227 q 433 258 439 256 q 406 294 431 260 q 359 330 380 328 q 302 437 319 380 q 285 562 285 494 q 281 578 285 567 q 277 595 277 589 l 277 599 l 285 587 l 283 610 q 332 799 283 688 q 338 824 334 803 q 347 856 342 845 q 368 869 353 867 q 375 890 375 876 q 368 924 375 905 l 371 924 q 379 928 375 924 q 386 932 383 932 q 393 928 391 932 l 386 921 l 397 909 q 399 898 399 903 q 401 889 400 892 q 401 878 401 885 q 390 854 401 863 l 404 854 q 399 849 403 852 q 391 845 396 846 q 383 840 387 843 q 368 796 376 808 q 471 854 389 812 l 467 852 q 452 862 459 852 q 433 872 445 872 q 432 880 433 876 q 429 889 431 884 q 428 896 428 893 q 440 913 428 907 l 449 909 q 444 903 444 908 q 448 898 444 903 q 452 890 452 893 q 526 849 494 881 q 602 760 557 818 l 612 770 q 551 865 593 814 l 554 869 q 602 811 584 842 q 626 794 610 808 q 650 781 641 781 q 668 791 661 781 q 628 840 648 827 q 618 857 627 844 q 610 876 610 869 q 594 896 604 891 q 558 900 585 900 q 521 957 521 900 q 537 987 521 976 q 574 999 554 999 q 615 960 615 999 q 614 938 615 955 q 612 905 612 921 l 599 911 l 591 905 l 602 895 l 612 897 q 650 854 624 880 q 686 814 675 829 l 749 890 q 686 983 717 953 q 669 1008 684 989 q 653 1038 653 1027 q 766 909 685 998 q 576 1114 678 1073 l 576 1109 q 557 1103 570 1103 q 541 1093 545 1103 q 536 1055 536 1082 q 522 1065 524 1058 q 517 1084 519 1073 q 507 1100 515 1095 l 503 1100 q 476 1094 493 1100 q 453 1088 460 1088 q 440 1089 444 1088 q 461 1105 444 1094 q 478 1128 478 1117 l 478 1132 q 457 1128 471 1130 q 434 1124 443 1127 q 419 1114 425 1122 m 518 1011 q 507 1025 507 1013 q 511 1038 507 1029 l 518 1011 m 473 986 l 471 950 q 498 929 490 929 l 503 930 q 493 945 499 937 q 485 964 488 953 q 482 986 482 975 l 473 986 m 277 957 q 227 926 256 930 q 190 913 199 921 q 180 854 181 905 l 189 859 q 218 839 202 839 q 249 848 231 839 q 275 862 267 858 q 306 865 284 865 l 306 872 q 254 921 263 890 l 261 924 l 261 930 q 286 947 267 947 q 306 928 306 947 l 313 930 l 314 937 l 310 946 l 317 953 q 306 949 311 949 q 292 952 303 949 q 277 957 281 956 m 368 939 l 346 939 l 346 928 l 368 939 m 628 928 l 650 905 l 628 928 m 415 916 l 412 916 l 404 909 l 415 916 m 616 905 l 661 859 l 616 905 m 557 897 l 583 872 q 581 868 581 869 q 585 860 581 865 q 593 852 590 855 q 588 858 591 852 q 585 865 585 863 q 587 869 585 867 l 591 869 q 572 884 583 873 q 557 897 562 895 m 412 884 l 419 890 l 404 884 l 412 884 m 422 869 l 408 859 l 422 869 m 449 859 l 440 859 l 383 822 l 449 859 m 285 854 l 258 796 q 285 854 277 820 m 313 836 l 306 817 l 313 836 m 294 799 l 288 778 l 294 799 m 155 770 l 153 751 l 155 770 m 285 770 l 279 760 l 285 770 m 243 760 l 225 715 l 243 760 m 302 749 l 294 736 l 302 749 m 149 745 l 144 730 l 149 745 m 273 745 q 265 728 264 728 l 265 729 l 267 733 l 273 736 l 273 745 m 189 742 l 186 726 l 189 742 m 292 726 l 288 711 l 292 726 m 178 693 l 174 664 l 178 693 m 218 686 l 214 668 l 218 686 m 273 661 l 269 646 l 273 661 m 211 653 l 207 643 l 211 653 m 240 650 q 232 610 232 637 l 232 599 q 254 509 254 570 l 254 467 l 254 522 q 229 602 254 578 q 235 627 233 612 q 240 650 237 642 m 207 632 q 199 600 199 618 q 218 547 199 580 q 237 492 237 513 q 232 467 237 480 q 236 493 236 481 q 219 549 236 514 q 201 604 201 583 q 207 632 201 616 m 273 606 l 261 619 l 273 599 l 273 606 m 160 570 l 163 570 l 163 602 l 160 602 l 160 570 m 86 562 l 90 562 l 90 576 l 86 576 l 86 562 m 160 557 q 177 525 171 543 q 193 482 184 508 q 160 557 187 526 m 123 514 l 126 500 l 123 514 m 131 492 l 134 482 l 131 492 m 196 396 l 199 396 l 199 467 l 196 467 l 196 396 m 155 380 l 153 387 l 153 415 l 155 383 l 155 380 m 199 357 l 204 357 l 204 372 l 199 372 l 199 357 m 113 364 l 115 354 l 113 364 m 126 315 l 131 297 l 126 315 m 134 288 l 138 277 l 134 288 m 661 277 l 650 265 l 661 277 m 277 243 l 277 232 q 286 199 277 213 q 314 184 296 184 q 366 235 366 184 l 366 243 q 319 275 343 275 q 296 267 305 275 q 277 243 287 259 m 207 214 l 218 184 l 207 214 m 737 214 l 733 214 l 718 199 l 737 214 m 163 204 l 171 184 l 163 204 m 222 175 l 218 175 l 236 126 l 240 126 l 240 134 q 231 154 235 138 q 222 175 227 170 m 492 131 q 487 128 490 129 q 480 125 484 127 q 476 123 477 124 q 478 122 476 122 l 482 123 l 492 131 m 419 123 l 419 115 l 433 115 q 429 119 433 115 q 422 123 425 123 l 419 123 z "},"D":{"ha":961,"x_min":24,"x_max":939,"o":"m 404 183 q 396 111 398 149 q 400 143 398 122 q 404 183 402 165 m 407 334 q 404 183 407 233 q 412 281 412 247 q 407 334 412 309 m 407 493 q 400 431 400 440 q 407 387 400 411 l 407 493 m 407 1064 l 412 1064 l 412 1086 l 407 1086 l 407 1064 m 335 728 q 334 694 334 717 l 335 728 m 407 551 l 407 493 l 407 551 m 342 865 l 335 728 q 346 827 346 812 q 342 865 346 846 m 808 679 l 796 725 l 796 718 q 801 699 796 711 q 808 679 806 686 m 288 930 q 299 895 288 910 q 330 880 311 880 q 364 892 351 880 q 378 924 378 904 q 371 948 378 937 q 354 966 365 960 q 329 972 343 972 q 288 930 288 972 m 783 581 q 781 574 782 578 q 779 564 781 570 q 783 581 781 570 m 804 846 q 742 943 783 904 q 763 915 755 930 q 782 879 771 900 q 804 846 793 857 m 750 616 l 750 612 l 750 616 m 761 543 l 765 543 q 779 564 777 549 q 761 543 775 552 m 750 612 l 750 581 l 750 612 m 742 547 q 746 546 743 547 q 751 543 749 545 q 742 547 747 547 m 789 589 l 785 599 l 783 581 l 789 589 m 761 543 l 751 543 l 761 543 m 319 334 l 319 302 l 322 302 l 322 334 l 319 334 m 307 69 l 311 69 l 311 85 l 307 85 l 307 69 m 229 269 q 237 289 237 281 l 236 294 l 229 269 m 370 1025 l 366 1025 l 366 1002 l 370 1002 l 370 1025 m 229 269 l 228 267 l 228 265 l 228 264 q 229 265 229 264 q 229 265 229 265 l 229 269 m 334 1100 l 330 1100 l 330 1083 l 334 1083 l 334 1100 m 338 1022 l 338 1034 q 337 1046 338 1042 q 336 1057 336 1050 q 334 1072 335 1064 l 338 1022 m 233 997 l 236 966 q 233 997 236 987 m 160 1047 q 155 1067 160 1057 l 160 1047 m 216 329 l 204 278 q 216 329 216 323 m 204 278 q 179 197 194 241 q 151 111 165 153 q 204 278 181 191 m 275 543 l 272 543 l 272 519 l 275 519 l 275 543 m 292 407 q 266 312 288 385 q 244 196 244 238 l 244 186 l 267 267 q 287 346 282 288 q 292 407 291 404 m 241 302 l 244 325 q 241 302 241 318 m 294 876 l 307 753 l 307 865 l 294 876 m 264 218 q 277 184 264 199 q 309 168 290 168 q 336 183 324 168 q 347 215 347 199 q 335 243 347 233 q 306 253 323 253 q 276 244 288 253 q 264 218 264 235 m 761 619 l 771 610 q 762 621 768 621 l 761 619 m 253 843 l 256 843 l 256 857 l 253 857 l 253 843 m 244 958 l 241 958 l 241 939 l 244 939 l 244 958 m 253 871 l 253 882 l 244 932 l 253 871 m 681 366 q 663 355 677 364 q 640 346 649 346 q 635 347 638 346 q 629 349 631 349 q 677 567 677 447 q 652 738 677 654 q 579 893 626 822 q 558 938 576 907 q 541 987 541 969 l 541 994 l 567 994 q 536 1000 544 1000 q 520 997 523 1000 q 515 984 518 994 q 504 975 513 975 q 514 965 511 972 q 518 950 518 958 l 517 943 q 479 947 505 947 q 457 951 464 947 l 454 971 l 464 978 q 454 986 458 978 q 450 1000 450 994 q 439 956 439 962 q 432 1011 436 981 q 427 1055 429 1041 q 429 852 427 954 q 433 648 431 750 q 435 444 435 547 q 427 131 435 256 q 435 203 435 156 q 443 272 435 250 l 450 260 l 454 267 q 465 256 458 267 l 479 275 q 540 295 496 283 q 603 322 584 307 q 632 333 612 323 q 663 343 652 343 q 684 325 679 343 l 664 314 l 681 322 l 692 290 l 692 296 q 711 340 692 311 q 733 385 730 370 q 761 449 751 410 q 694 322 743 393 l 681 366 m 463 943 l 478 943 q 529 932 506 943 l 536 916 q 463 924 486 924 l 463 943 m 463 896 l 465 913 q 497 909 474 910 q 531 903 519 907 q 549 885 543 899 q 536 884 545 884 q 503 890 528 884 q 463 896 478 896 m 479 314 l 465 846 l 549 835 q 614 724 593 787 q 635 590 635 661 q 612 441 635 527 q 549 338 589 355 q 479 314 513 324 m 828 543 q 786 467 799 524 q 806 514 798 499 q 828 543 813 530 m 772 322 q 765 306 767 314 l 772 322 m 772 322 q 781 340 781 333 l 772 322 m 786 467 q 778 440 783 454 q 770 418 773 426 q 786 467 778 433 m 586 102 l 591 103 l 586 102 m 720 189 q 711 208 711 200 q 728 240 711 220 q 746 272 744 260 l 742 275 l 726 248 l 730 244 q 708 218 716 237 q 696 199 701 200 l 708 189 q 659 174 690 174 q 633 178 646 174 l 633 186 q 612 206 623 197 q 587 215 602 215 q 555 201 568 215 q 542 168 542 188 l 543 155 q 565 128 557 136 q 586 121 572 121 q 608 122 600 121 q 620 129 615 124 q 628 143 625 134 q 636 163 632 153 q 770 248 741 170 q 754 225 761 237 q 738 205 747 214 q 720 189 730 196 m 591 103 l 596 104 l 591 103 m 771 610 q 774 603 771 606 l 774 606 l 771 610 m 596 104 q 606 109 600 106 q 596 104 600 106 m 692 197 q 696 199 694 197 q 692 197 693 199 m 770 484 l 761 449 q 766 466 764 457 q 770 484 768 474 m 794 648 q 780 683 791 657 q 765 722 769 709 q 794 648 769 690 m 774 513 q 770 484 774 498 q 791 527 772 490 q 810 585 810 564 q 807 608 810 602 q 774 513 807 554 m 758 1061 q 730 1093 752 1084 q 677 1112 709 1101 q 629 1141 645 1122 q 619 1146 623 1146 q 603 1126 613 1146 q 518 1143 579 1128 q 427 1157 458 1157 q 381 1153 408 1157 q 320 1142 354 1149 q 272 1133 286 1135 q 270 1117 272 1122 q 258 1112 268 1112 q 252 1119 256 1112 q 248 1126 248 1126 l 113 1126 l 102 1114 q 110 1095 110 1107 q 82 1084 97 1088 q 55 1079 68 1080 q 24 1075 43 1078 q 41 1028 32 1059 q 56 977 51 998 q 65 934 61 956 q 74 882 69 913 l 82 880 q 92 883 85 880 q 103 886 98 886 q 110 885 107 886 q 96 868 110 874 q 77 857 81 862 q 90 761 90 823 q 102 757 94 757 q 132 770 113 757 q 163 785 151 784 q 171 615 171 699 q 167 474 171 543 q 152 335 163 406 q 121 216 140 264 q 106 171 117 208 q 83 110 94 134 q 57 69 73 86 q 103 57 68 64 q 160 44 138 50 q 191 26 182 37 l 199 26 q 214 35 197 26 q 263 14 220 28 q 315 0 307 0 q 342 17 326 0 q 383 35 359 35 q 472 31 418 35 q 539 28 527 28 q 636 43 569 28 q 703 77 703 58 q 807 162 762 109 q 881 280 852 216 q 924 416 909 345 q 939 558 939 488 q 919 741 939 646 q 858 920 899 835 q 758 1061 817 1005 m 65 1042 q 81 1044 73 1043 q 99 1047 90 1046 q 114 1048 109 1048 l 123 1047 q 98 1034 121 1038 q 74 1028 75 1029 l 74 1031 q 65 1042 74 1033 m 82 1025 l 90 1023 q 105 1026 96 1023 q 121 1029 115 1029 l 127 1028 q 107 1014 127 1018 q 82 1006 87 1010 q 78 1014 82 1009 q 74 1021 74 1019 q 82 1025 76 1025 m 110 846 q 155 857 127 857 l 157 854 q 137 836 157 842 q 113 827 117 830 l 110 846 m 136 901 l 142 903 l 143 903 q 151 888 151 903 l 151 871 l 140 865 l 136 901 m 160 815 l 121 796 q 118 807 120 801 q 115 814 115 814 q 129 823 115 823 q 155 835 146 823 q 160 827 160 833 l 160 815 m 750 139 l 722 123 q 718 131 718 123 l 720 143 l 726 147 l 726 150 q 718 153 724 153 q 705 144 713 153 q 689 135 697 135 l 700 131 q 701 123 701 127 q 639 86 701 98 q 534 74 577 74 q 463 81 502 74 q 490 93 463 93 q 501 96 493 93 q 471 100 492 100 l 463 100 l 463 119 l 469 119 l 479 123 q 463 143 463 123 l 463 150 q 497 156 475 153 q 536 163 519 159 q 503 167 522 167 q 465 163 485 167 l 465 197 l 476 197 q 524 208 505 197 q 510 214 515 214 q 492 208 503 214 q 473 203 480 203 q 463 205 468 203 l 463 224 q 454 236 463 236 q 445 165 452 227 q 424 74 437 104 q 396 69 412 69 l 376 69 q 376 84 376 79 q 375 97 376 90 q 382 171 375 118 q 390 256 390 224 q 389 290 390 279 q 362 143 384 238 q 315 49 340 49 l 307 49 q 302 65 307 62 q 298 56 300 62 q 293 49 296 51 q 288 47 291 47 q 281 48 284 48 q 272 49 278 49 q 271 60 271 53 q 274 77 271 65 q 277 98 277 89 q 275 107 277 103 q 272 115 273 111 q 263 83 268 110 q 244 56 258 56 q 239 57 241 56 q 233 57 237 57 q 237 84 233 66 q 241 111 241 102 q 233 139 241 127 q 213 104 218 131 q 203 69 208 77 q 192 72 195 69 q 186 81 189 75 q 183 93 184 87 q 174 84 178 90 q 168 78 170 78 l 160 81 q 151 94 151 81 q 147 104 151 102 q 129 89 137 89 l 121 93 q 190 342 170 221 q 210 606 210 463 q 205 779 210 694 q 202 795 203 783 q 197 812 200 807 q 186 818 193 818 l 187 828 q 181 855 187 838 q 175 873 175 872 l 171 863 q 162 916 167 874 q 143 971 158 957 q 137 952 141 959 q 121 939 132 946 q 135 936 130 937 q 145 931 140 935 q 150 921 150 928 q 136 908 150 908 l 132 908 q 124 921 127 919 q 109 924 121 924 q 101 929 104 924 q 96 946 98 935 q 93 958 94 956 l 97 958 q 113 966 104 958 q 94 974 103 970 q 85 990 85 979 q 143 1014 96 1007 l 140 1092 l 151 1067 q 154 1089 154 1069 q 167 1095 154 1095 q 178 1070 174 1082 q 185 1043 181 1059 q 195 1014 189 1027 q 199 1034 199 1022 q 191 1068 199 1046 q 183 1095 184 1090 l 203 1100 l 216 1047 q 221 1061 221 1053 q 217 1079 221 1067 q 214 1095 214 1091 q 217 1098 214 1097 q 228 1099 221 1099 q 236 1100 235 1099 q 248 1054 238 1079 q 269 1004 258 1029 q 281 958 279 979 l 292 971 q 272 1067 290 1000 q 281 1050 277 1064 q 292 1034 286 1037 l 300 1105 l 317 1105 q 326 1100 324 1105 l 330 1111 l 335 1111 q 357 1050 357 1111 q 361 1034 357 1040 l 361 1114 q 385 1022 382 1064 l 389 1114 l 393 1116 q 399 1109 397 1116 q 404 1100 401 1102 q 413 1122 410 1117 q 427 1126 416 1126 q 446 1047 441 1093 q 468 1050 453 1050 q 490 1053 482 1050 q 484 1061 490 1059 q 471 1063 478 1063 q 459 1066 463 1064 q 456 1075 456 1068 q 457 1080 456 1078 q 457 1086 457 1082 q 468 1089 465 1089 q 483 1086 474 1089 q 496 1083 492 1083 q 510 1092 504 1083 q 479 1095 500 1095 q 457 1100 466 1095 q 493 1107 475 1107 q 538 1103 511 1107 q 571 1100 565 1100 q 551 1071 551 1087 q 567 1047 551 1057 q 548 1048 560 1047 q 529 1050 536 1050 q 504 1042 513 1050 l 595 1034 l 599 1025 l 564 1025 q 536 1017 543 1025 q 587 1014 553 1014 q 623 1006 609 1014 q 627 1018 627 1012 q 606 1048 627 1029 q 586 1080 586 1068 l 623 1111 l 689 1025 q 703 1053 703 1035 q 694 1075 703 1063 q 844 864 794 1001 q 895 587 895 728 q 879 426 895 506 q 831 273 863 347 q 750 139 799 200 m 794 648 q 807 608 803 631 q 794 648 807 633 m 452 1025 q 451 1011 452 1017 q 450 1000 451 1006 q 452 1025 452 1008 m 498 975 l 472 978 q 498 975 484 975 m 464 978 l 472 978 l 464 978 m 450 260 l 452 253 q 450 260 452 257 m 785 602 l 785 599 l 785 602 m 754 831 q 785 765 764 814 q 754 831 783 791 m 746 844 l 754 831 l 746 844 m 778 624 l 781 612 l 781 619 l 778 624 m 694 896 q 746 844 723 882 q 739 863 741 854 q 721 880 736 865 q 694 896 707 895 m 733 567 l 733 582 q 726 606 733 585 l 733 567 m 774 603 q 761 570 774 576 q 750 581 757 571 q 758 567 753 570 q 781 604 777 572 l 777 602 l 774 603 m 781 604 l 781 606 l 781 604 m 781 606 l 785 602 l 781 612 l 781 606 m 751 644 q 736 636 743 644 q 729 619 729 627 l 730 616 l 742 636 q 753 640 746 640 q 778 624 762 640 q 751 644 768 644 m 720 1017 l 753 977 q 738 1000 745 988 q 720 1017 730 1013 m 734 958 l 733 971 q 690 1003 718 1003 q 667 997 680 1003 q 648 981 655 991 q 640 960 640 970 q 644 945 640 953 q 652 932 647 938 q 661 921 657 926 q 693 908 684 908 q 723 924 711 908 q 734 958 734 941 m 703 692 q 705 715 705 705 q 695 772 705 743 q 669 831 684 801 q 636 893 653 861 q 664 833 646 869 q 692 763 682 797 q 703 692 703 730 m 517 100 q 585 102 562 100 q 551 101 574 101 q 517 100 528 101 m 753 977 q 758 971 758 971 l 753 977 m 770 863 q 730 908 752 899 q 770 863 756 890 m 714 489 l 714 522 l 714 489 m 711 482 l 694 427 q 711 482 711 451 m 585 102 l 586 102 l 585 102 m 714 522 q 705 548 713 530 q 694 575 698 566 q 701 552 696 564 q 714 522 707 540 z "},"E":{"ha":798,"x_min":20,"x_max":778,"o":"m 778 1136 l 770 1128 q 747 897 747 995 q 749 844 747 861 q 752 841 749 845 q 755 835 755 836 l 754 829 q 650 821 704 821 q 616 821 633 821 q 557 824 600 822 q 498 825 515 825 q 419 821 465 825 q 418 796 418 812 q 424 735 418 781 q 431 668 431 690 q 556 696 499 686 q 669 708 612 707 l 668 660 q 671 559 668 626 q 673 458 673 492 l 672 414 q 479 425 589 425 l 437 425 q 434 374 437 406 q 431 335 431 343 q 433 302 431 313 q 539 322 488 310 q 665 353 590 334 q 778 380 740 372 l 778 257 q 770 186 778 222 q 749 175 755 186 q 742 92 748 140 q 729 0 735 44 q 657 14 692 9 q 573 24 622 19 q 485 32 525 28 q 404 40 445 35 q 396 3 396 16 q 298 18 349 14 q 183 22 247 22 q 72 25 119 22 l 64 32 l 66 37 q 51 50 63 42 q 33 64 39 57 q 26 82 26 72 l 26 89 q 45 117 45 97 q 43 135 45 125 q 41 150 41 145 q 49 168 41 161 q 42 172 47 169 q 33 180 36 176 q 31 189 31 184 q 33 204 31 195 q 37 221 36 213 q 50 229 43 226 q 67 235 58 233 q 86 241 77 238 q 117 567 117 408 q 79 876 117 743 q 55 887 67 882 q 35 901 43 892 q 26 922 26 909 q 30 935 26 929 q 38 945 33 940 q 49 956 43 949 q 34 974 40 966 q 23 991 27 983 q 20 1008 20 1000 q 31 1030 20 1019 q 43 1050 43 1042 l 41 1057 l 37 1060 q 89 1071 46 1067 q 158 1080 132 1076 q 203 1101 184 1085 q 208 1084 204 1097 q 218 1064 211 1072 q 224 1079 224 1069 q 222 1093 224 1084 q 221 1104 221 1102 l 221 1109 l 257 1108 q 375 1124 330 1108 l 374 1114 q 399 1093 374 1093 q 499 1105 422 1093 q 660 1133 576 1117 q 774 1157 744 1148 q 778 1136 778 1153 m 389 1046 l 406 1046 q 419 1042 413 1046 l 414 1042 q 395 1006 395 1042 l 393 993 q 378 1014 382 1004 q 366 1048 374 1024 q 349 1086 358 1073 l 349 1080 l 345 1072 l 340 1079 q 327 1078 336 1078 q 314 1075 317 1077 l 311 1064 q 302 1075 302 1070 l 292 1075 q 283 1070 285 1075 q 281 1050 281 1065 q 277 1035 281 1041 q 269 1068 269 1059 q 260 1075 266 1075 l 244 1072 q 239 1050 239 1067 q 248 1019 239 1029 q 237 1010 237 1017 q 243 993 237 1003 q 249 977 249 983 q 248 966 249 970 q 224 971 225 970 q 195 1060 214 1029 l 168 1048 q 173 1040 170 1046 q 176 1031 176 1035 l 172 1022 q 167 1035 169 1025 q 158 1046 165 1046 q 131 1022 135 1046 q 119 1038 131 1038 q 102 1035 113 1038 l 102 1028 l 98 1019 l 90 1031 l 75 1031 q 71 1022 73 1025 q 65 1013 68 1019 q 61 1002 61 1006 l 61 997 l 72 997 l 79 991 q 72 989 79 991 q 65 986 65 987 q 66 986 66 986 q 66 985 66 985 l 83 971 l 86 982 q 137 759 121 880 q 154 514 154 637 q 140 327 154 422 q 102 142 127 231 q 98 164 98 147 l 90 164 q 75 125 75 156 l 75 100 q 72 78 75 85 q 83 66 76 66 l 102 66 q 109 86 109 69 q 117 96 109 94 q 121 87 121 94 q 117 77 121 83 q 113 66 113 71 q 131 62 121 62 q 163 96 157 62 q 165 87 165 90 q 164 81 165 85 q 162 74 163 77 q 161 68 161 70 l 163 64 l 192 64 q 195 87 195 71 q 203 104 195 99 q 205 99 204 102 q 207 93 207 96 q 203 78 207 87 q 199 64 199 68 l 214 62 q 224 77 221 62 q 229 93 228 91 q 233 77 232 87 q 236 61 233 67 q 245 56 239 56 l 256 56 l 254 69 q 258 82 254 74 q 261 70 260 79 q 262 56 262 60 q 292 64 292 56 q 322 52 293 52 l 321 58 q 322 66 321 61 q 326 75 323 71 q 329 82 328 80 l 332 43 l 355 43 l 355 50 q 364 69 355 59 l 367 43 q 383 103 375 64 q 393 151 391 142 q 396 107 396 146 l 404 146 q 427 153 411 153 q 452 149 440 153 l 411 138 l 425 138 q 437 134 435 138 q 424 130 435 131 q 411 122 412 128 l 489 115 q 407 111 463 111 l 407 104 l 414 104 q 434 101 423 104 q 452 96 446 97 l 407 89 q 703 43 570 73 l 707 102 l 700 100 l 690 104 q 707 107 694 107 l 707 122 l 689 122 q 681 125 684 122 q 711 131 688 131 q 715 149 715 139 q 699 164 715 164 q 714 168 701 168 q 718 195 718 175 q 725 212 718 208 l 729 261 l 715 261 q 703 265 707 261 q 729 268 708 268 l 729 294 l 718 294 q 711 296 716 294 q 707 297 707 297 l 711 302 q 730 323 730 305 l 729 329 q 625 305 703 322 q 503 277 547 288 q 433 261 458 267 l 475 261 q 452 254 469 256 q 427 248 435 251 q 415 235 418 245 q 403 314 403 267 q 404 342 404 330 q 404 375 404 355 q 401 425 404 391 q 355 433 387 431 q 306 442 323 435 q 285 473 288 449 l 296 481 q 302 469 302 479 q 310 472 309 472 q 319 466 314 472 q 329 460 323 460 l 376 460 q 431 459 395 460 q 501 457 466 458 q 555 456 536 456 q 635 460 595 456 l 632 608 l 621 608 q 614 612 616 608 q 629 615 616 615 l 632 615 l 632 642 l 616 642 q 603 646 611 642 q 611 648 604 648 q 621 650 618 649 q 628 654 622 651 q 633 661 633 658 l 632 664 q 540 653 603 658 q 437 641 477 649 q 364 608 398 633 l 385 597 q 376 593 380 593 q 369 595 376 593 q 358 597 361 597 l 358 586 q 342 581 353 586 q 326 575 332 575 q 314 582 319 575 l 318 586 q 327 611 320 601 q 341 626 334 621 q 366 641 349 631 q 393 657 383 650 q 385 741 393 673 q 378 846 378 808 q 382 911 378 878 q 391 894 389 905 q 396 876 393 882 l 396 899 q 404 911 396 907 q 411 892 411 906 l 571 892 q 510 884 547 884 q 489 885 498 884 q 464 885 479 885 q 415 880 431 885 l 415 871 q 534 865 467 865 l 707 865 l 707 982 l 689 982 q 676 985 681 982 q 690 982 688 982 q 714 1021 714 982 l 714 1057 l 697 1057 q 688 1060 690 1057 q 722 1104 720 1063 q 613 1091 690 1099 q 497 1078 537 1083 q 419 1064 458 1074 q 399 1057 410 1063 q 389 1046 389 1052 m 314 1046 l 318 1046 l 318 1064 l 314 1064 l 314 1046 m 688 1057 q 682 1058 684 1058 q 675 1059 679 1059 q 648 1053 664 1059 q 623 1047 632 1047 q 616 1048 619 1048 q 610 1048 614 1048 q 688 1057 667 1057 m 561 1046 l 597 1046 l 561 1046 m 513 1038 q 524 1039 517 1038 q 539 1041 532 1040 q 550 1042 546 1042 q 539 1041 546 1042 q 524 1039 532 1040 q 513 1038 517 1038 m 136 1022 l 139 1004 q 136 1022 139 1011 m 176 1022 l 183 985 l 176 1022 m 119 940 q 102 1019 104 981 l 119 940 m 640 982 l 672 982 l 640 982 m 186 975 l 186 971 q 192 941 186 964 q 199 900 199 918 q 244 868 217 868 q 276 884 263 868 q 289 918 289 899 q 276 948 289 935 q 245 961 263 961 q 199 929 216 961 q 192 941 193 934 q 191 958 191 948 q 186 975 190 968 m 407 956 l 431 956 l 407 956 m 83 933 l 83 940 l 72 933 l 83 933 m 86 926 l 66 926 q 86 911 71 915 l 86 926 m 407 922 l 501 922 q 447 926 475 926 q 407 922 419 926 m 300 836 q 296 873 300 841 l 300 825 l 300 836 m 250 856 q 257 803 255 831 q 258 734 258 775 l 258 718 l 258 705 q 269 822 269 768 l 269 851 q 258 857 266 857 q 255 857 256 857 q 250 856 253 857 m 236 814 q 232 839 236 819 l 236 803 l 236 814 m 239 761 l 244 672 l 239 761 m 239 624 l 244 624 l 244 664 l 239 664 l 239 624 m 583 642 l 597 642 l 583 642 m 367 549 l 366 530 q 374 492 366 508 q 404 476 383 476 q 449 496 428 476 q 453 514 453 506 q 443 550 453 534 q 414 566 432 566 q 367 549 395 566 m 262 549 l 262 522 q 281 508 271 519 q 298 492 291 497 q 318 486 305 486 l 307 485 l 300 489 l 298 496 l 302 504 q 298 512 300 507 q 292 518 296 517 l 300 522 l 292 522 q 281 541 281 530 l 285 549 l 349 545 l 318 545 q 296 549 306 545 q 285 559 293 559 q 262 549 273 559 m 510 530 l 539 530 l 510 530 m 530 504 l 515 504 l 504 500 l 530 504 m 355 268 l 358 268 l 358 335 l 355 335 l 355 268 m 163 306 l 157 279 l 163 306 m 119 102 l 154 265 q 138 184 147 227 q 119 102 129 142 m 338 111 l 338 121 q 345 186 338 144 q 351 252 351 229 l 351 261 q 346 178 348 216 q 338 111 343 141 m 699 261 q 655 253 691 260 q 597 245 619 245 l 579 248 q 641 253 601 250 q 699 261 680 256 m 262 248 l 258 224 l 232 227 q 200 187 200 218 q 205 158 200 180 q 210 125 210 137 q 205 104 210 115 l 210 104 l 210 115 l 205 115 q 210 125 209 117 q 218 134 212 134 q 230 128 227 134 q 232 102 232 122 l 232 111 q 250 125 237 125 q 261 127 258 127 q 269 122 269 127 q 264 105 269 116 q 260 92 260 95 q 261 87 260 91 q 262 82 262 84 q 267 108 266 92 q 271 133 267 123 q 288 149 274 142 q 294 172 294 160 q 287 197 294 184 q 271 223 279 210 q 262 248 262 236 m 433 231 l 460 231 l 433 231 m 102 208 q 77 193 85 193 q 66 195 71 193 q 102 208 83 208 m 98 189 q 84 187 96 188 q 66 183 72 186 q 71 179 66 183 q 75 171 75 174 l 98 171 l 98 189 m 375 149 l 367 69 l 375 149 m 302 115 l 306 115 l 306 134 l 302 134 l 302 115 m 659 131 l 676 131 l 659 131 m 332 82 l 338 82 l 338 104 l 332 104 l 332 82 m 300 102 l 296 64 l 300 102 z "},"F":{"ha":827,"x_min":20,"x_max":807,"o":"m 450 1129 l 450 1109 l 465 1109 q 677 1132 574 1109 q 728 1145 689 1134 q 774 1157 766 1157 q 806 1088 806 1157 q 800 1016 806 1060 q 794 947 794 971 q 801 907 794 937 q 807 864 807 878 q 802 850 807 857 q 792 836 798 843 q 787 819 787 828 q 790 806 787 817 q 746 785 774 785 q 707 791 733 785 q 675 798 682 797 l 441 827 l 431 814 l 428 664 q 514 683 477 671 q 637 724 552 694 q 657 611 657 682 q 656 562 657 595 q 654 514 654 530 q 638 498 642 509 q 635 458 635 488 q 627 431 635 443 q 621 407 625 420 q 615 386 616 394 l 608 386 q 557 390 583 386 q 503 403 532 395 q 447 419 473 412 l 436 407 q 431 309 431 363 q 435 210 431 256 q 446 118 439 164 q 463 11 452 71 q 336 -4 412 -4 q 240 0 288 -4 q 234 10 237 3 q 227 20 231 18 q 204 8 218 8 q 179 14 196 8 q 144 20 161 20 q 106 28 126 24 q 74 36 87 32 q 45 49 61 40 q 76 271 65 189 q 98 456 87 353 q 114 649 109 559 q 119 839 119 739 q 84 848 110 845 q 52 863 58 852 q 62 897 57 874 q 71 930 66 920 q 49 941 59 936 q 32 953 39 945 q 25 972 25 960 q 36 1001 25 983 q 47 1028 47 1019 q 28 1046 47 1039 q 20 1080 20 1059 l 20 1095 q 47 1117 24 1105 q 79 1134 71 1128 q 87 1157 87 1139 l 103 1158 q 133 1157 118 1158 q 164 1152 148 1155 q 192 1149 181 1149 q 278 1142 222 1146 q 377 1135 334 1138 q 450 1129 420 1132 m 87 1109 q 62 1067 62 1089 l 64 1054 q 85 1035 85 1047 q 72 1011 85 1025 q 60 989 60 998 q 62 986 60 990 q 64 978 64 981 l 115 974 q 111 1014 111 994 q 119 1050 111 1037 l 127 1042 q 121 1015 121 1028 q 129 980 121 1006 q 136 942 136 954 l 135 966 q 139 1035 135 990 q 144 1101 143 1080 q 125 1109 140 1109 l 119 1109 l 119 1083 q 115 1059 119 1065 q 101 1084 104 1063 q 87 1109 98 1105 m 153 1105 l 153 918 l 155 930 l 164 922 q 165 872 165 905 q 162 778 165 821 q 154 667 159 734 q 147 567 149 600 q 90 79 140 382 q 112 113 104 83 q 123 147 120 142 l 123 139 q 120 105 123 128 q 115 71 117 82 l 127 71 q 153 131 146 84 q 155 115 155 126 q 153 97 155 110 q 150 78 150 84 q 153 68 150 73 q 158 66 154 66 q 168 69 165 66 q 173 75 170 71 q 179 83 175 79 q 183 62 183 81 l 204 62 q 224 127 214 85 q 243 204 235 169 l 243 195 q 251 121 243 170 q 260 43 260 73 l 279 40 q 274 79 278 52 q 271 125 271 106 q 279 176 271 153 q 283 96 283 150 q 292 40 283 60 l 315 40 q 315 80 315 64 q 314 114 315 96 q 323 176 314 152 q 332 150 332 164 q 329 128 332 142 q 326 106 326 114 q 330 83 326 94 q 336 70 334 81 q 339 51 338 59 q 343 37 340 42 q 353 32 346 32 q 371 36 355 32 q 350 250 350 132 q 351 298 350 269 q 354 367 353 328 q 361 200 361 313 q 383 36 361 100 l 399 36 q 411 40 403 36 q 405 131 409 82 q 397 220 400 179 q 395 298 395 261 q 399 368 395 316 q 413 469 404 420 q 431 530 422 517 l 436 522 q 467 523 453 523 q 503 524 481 524 q 558 514 539 524 q 478 511 532 511 q 436 507 458 511 q 447 496 439 499 q 470 491 455 492 q 490 488 485 490 q 444 484 476 484 l 436 482 l 436 463 q 603 435 497 440 l 603 452 l 600 452 q 590 454 593 452 q 605 460 601 454 q 611 477 609 466 q 615 494 612 488 q 597 505 597 500 q 611 518 597 509 q 624 538 624 528 l 624 542 q 612 543 620 543 q 598 544 604 543 q 590 547 593 545 l 595 555 l 606 554 q 629 567 629 554 q 627 575 629 572 l 570 579 l 570 582 q 576 593 570 591 q 598 598 583 595 q 618 603 612 600 q 624 615 624 606 l 590 618 q 607 626 595 625 q 624 635 619 627 l 618 643 q 564 625 587 633 q 517 610 540 616 q 471 602 494 604 q 508 623 488 615 q 562 642 528 631 q 615 659 597 652 l 615 669 q 528 653 587 669 q 436 624 470 637 q 431 612 432 623 q 422 602 431 602 q 407 650 414 632 q 383 677 399 667 q 390 718 387 693 q 395 770 393 742 q 399 822 397 798 q 413 851 411 833 q 418 889 416 868 q 431 922 421 911 l 488 918 q 460 914 479 914 q 441 909 449 914 l 441 895 l 467 895 q 583 882 527 895 l 439 882 l 439 876 q 439 871 439 873 q 441 867 440 869 q 441 863 441 865 q 481 864 456 864 q 547 859 519 864 q 645 840 575 854 q 751 822 715 825 q 677 846 705 838 q 690 847 682 847 q 719 840 700 847 q 749 833 738 833 l 754 835 l 751 839 q 675 865 715 857 q 707 873 686 873 q 765 863 730 873 l 765 882 l 755 882 q 726 890 747 882 l 730 899 q 747 895 736 895 q 765 890 758 894 q 771 908 771 900 q 745 921 771 919 q 714 926 718 924 q 735 929 720 928 q 757 930 750 930 l 762 930 l 762 936 q 756 948 762 944 q 741 954 749 952 q 722 958 732 956 l 743 966 q 762 1043 762 1003 q 760 1075 762 1053 l 754 1075 q 724 1068 744 1075 q 693 1061 703 1061 q 671 1067 680 1061 q 716 1077 687 1074 q 760 1086 746 1080 l 760 1105 q 450 1067 602 1073 l 441 1050 l 443 1054 q 437 1076 443 1061 q 431 1097 431 1091 l 432 1079 q 422 1021 432 1042 l 414 1097 l 407 1097 q 406 1075 406 1090 q 410 1038 406 1065 q 415 994 415 1011 q 411 966 415 982 q 405 1007 409 984 q 397 1051 400 1030 q 395 1097 395 1072 l 286 1097 l 288 1083 q 283 1069 288 1078 q 279 1101 279 1078 q 244 1105 262 1105 q 215 1097 226 1105 q 192 1101 204 1097 l 183 1038 q 178 1057 178 1045 q 179 1072 178 1063 q 180 1086 180 1082 q 164 1107 180 1107 q 153 1105 155 1107 m 624 1061 l 663 1061 l 624 1061 m 578 1059 l 610 1059 l 578 1059 m 326 1050 q 291 1023 311 1050 q 264 993 271 997 q 300 971 275 989 q 347 953 326 953 l 359 953 q 385 1003 385 969 q 367 1038 385 1026 q 326 1050 350 1050 m 227 1046 q 223 1015 227 1034 q 220 991 220 996 q 232 943 220 981 q 244 879 244 905 q 235 786 244 829 q 241 828 238 806 q 247 865 245 850 q 249 901 249 880 q 249 917 249 911 q 248 930 248 923 q 224 1006 224 958 q 227 1046 224 1021 m 179 1038 l 172 999 l 179 1038 m 760 1035 q 703 1026 753 1026 l 711 1025 q 728 1027 720 1025 q 744 1031 736 1029 q 760 1035 751 1034 m 439 1029 l 522 1029 l 439 1029 m 252 1002 l 252 996 q 259 940 252 983 q 267 865 267 897 q 270 901 267 879 q 272 943 272 924 q 252 1002 272 985 m 199 982 l 215 905 l 215 917 q 207 946 215 926 q 199 977 199 966 l 199 982 m 115 961 l 87 961 l 115 942 l 115 961 m 436 961 l 488 961 l 436 961 m 686 961 l 722 961 l 686 961 m 510 958 l 526 958 l 510 958 m 104 918 l 115 914 l 115 926 q 110 930 113 930 q 103 924 103 930 q 104 918 103 920 m 501 914 l 543 914 l 501 914 m 98 905 l 98 886 l 115 886 l 117 890 l 117 893 q 98 905 117 905 m 218 873 l 224 873 l 224 890 l 218 890 l 218 873 m 359 656 q 374 773 366 728 q 399 865 381 818 q 374 773 381 818 q 359 656 366 728 m 624 859 l 675 850 l 624 859 m 215 839 l 218 839 l 218 854 l 215 854 l 215 839 m 267 835 l 272 835 l 272 854 l 267 854 l 267 835 m 351 794 l 354 794 l 354 814 l 351 814 l 351 794 m 260 715 l 264 798 l 256 703 l 260 715 m 347 786 l 343 758 l 347 786 m 335 724 l 330 684 l 335 724 m 326 639 l 332 639 l 332 667 l 326 667 l 326 639 m 570 615 l 590 615 l 570 615 m 567 610 l 555 610 l 490 590 l 567 610 m 272 590 q 244 541 244 567 q 248 528 244 534 q 273 478 273 512 q 269 440 273 466 q 265 401 265 414 q 267 383 265 389 q 271 447 271 404 q 283 498 271 481 l 289 500 q 298 492 298 500 q 296 477 298 487 q 293 463 293 468 q 294 459 294 460 q 294 454 294 457 q 298 476 296 461 q 305 500 300 491 q 323 511 310 509 q 328 498 328 499 q 323 483 328 494 q 319 467 319 472 l 319 460 q 327 492 326 473 q 330 525 328 511 q 339 550 331 538 q 323 581 339 570 q 286 591 308 591 l 272 590 m 475 555 l 496 555 l 475 555 m 431 550 l 456 550 l 431 550 m 127 147 q 167 507 151 399 q 157 408 163 458 q 147 321 151 357 q 138 245 142 286 q 127 147 133 205 m 586 460 l 567 463 l 575 460 l 586 460 m 292 443 l 286 422 l 292 443 m 155 131 q 179 375 170 269 q 155 131 170 269 m 256 288 q 253 301 253 296 q 259 329 253 309 q 265 361 265 349 q 265 369 265 366 q 264 375 264 372 l 256 288 m 204 258 l 199 184 l 204 258 m 283 207 l 286 207 l 286 228 l 283 228 l 283 207 m 196 147 l 199 147 l 199 171 l 196 171 l 196 147 m 192 139 l 183 83 l 192 139 z "},"G":{"ha":890,"x_min":21,"x_max":869,"o":"m 501 1132 q 523 1138 510 1132 q 546 1143 536 1143 q 551 1142 549 1143 q 554 1139 553 1140 q 570 1126 562 1134 q 591 1109 579 1119 q 631 1090 597 1106 q 686 1061 665 1074 q 717 1031 706 1048 q 744 994 726 1018 q 779 947 762 970 q 808 898 795 923 q 825 854 821 873 q 818 857 822 856 q 811 859 814 859 q 790 840 801 859 q 768 821 779 821 q 757 823 765 821 q 721 805 743 811 q 679 792 698 799 q 648 771 661 786 q 533 728 576 755 q 501 780 528 735 q 461 843 474 825 q 359 733 389 835 q 330 529 330 631 q 382 349 330 411 q 411 346 402 346 q 541 404 489 346 l 541 439 q 495 444 528 440 q 446 447 463 447 q 454 498 449 477 q 465 550 458 520 q 478 607 472 581 q 607 626 559 619 q 720 644 654 633 q 847 667 786 654 l 847 629 q 838 508 847 584 q 812 432 829 432 q 803 435 809 432 q 791 439 797 438 q 789 415 789 431 q 819 283 789 377 q 869 136 849 190 q 866 118 869 124 q 850 101 862 111 q 836 90 838 92 q 775 69 808 78 q 700 51 743 60 q 622 33 656 41 q 551 12 587 24 l 545 46 q 349 0 461 0 q 301 16 334 0 q 244 32 268 32 q 75 251 128 115 q 21 546 21 387 q 41 753 21 662 q 53 784 45 764 q 61 817 60 803 q 66 826 64 819 q 69 839 68 833 q 71 854 69 845 q 118 948 83 893 q 180 1031 153 1003 q 231 1059 201 1037 q 278 1088 260 1080 q 330 1112 282 1089 q 410 1145 378 1134 q 465 1157 441 1157 q 487 1144 479 1157 q 501 1132 495 1132 m 424 1097 q 361 1084 391 1097 q 300 1052 331 1072 q 240 1013 269 1031 q 267 982 241 994 q 239 957 250 957 l 231 962 q 232 972 232 966 q 217 982 232 979 q 199 986 201 985 q 119 838 146 922 q 83 652 93 754 l 71 657 q 65 546 65 581 q 85 376 65 467 q 147 206 105 285 q 252 83 189 127 q 260 94 260 87 l 260 98 q 218 160 224 128 q 244 129 226 155 q 278 102 263 104 q 297 125 288 104 q 306 121 301 121 q 326 139 315 121 l 318 147 l 323 154 l 329 147 l 345 154 q 349 146 347 151 q 357 136 351 141 l 335 127 q 330 119 330 123 q 342 102 330 106 q 335 97 338 97 q 328 100 332 97 q 319 103 323 103 q 315 102 317 103 l 315 83 q 403 64 349 64 q 454 69 432 64 q 401 57 433 57 q 342 61 370 57 q 323 70 334 62 q 306 78 313 78 l 297 72 q 375 37 323 37 q 412 40 392 37 q 453 48 431 43 q 492 53 475 52 q 494 60 494 56 q 491 69 494 64 q 488 77 488 74 q 511 92 488 89 q 541 102 535 94 q 536 121 541 117 q 528 116 534 120 q 519 113 522 113 q 514 117 518 113 q 554 134 534 132 l 554 164 q 562 189 554 180 q 569 154 566 174 q 574 107 572 133 q 578 61 576 82 l 582 64 q 596 76 593 64 q 600 90 599 89 q 603 72 603 87 l 607 71 q 620 75 612 71 q 637 79 628 79 q 669 114 669 79 q 668 132 669 119 q 667 150 667 145 q 671 170 667 164 q 688 148 683 163 q 698 114 693 134 q 713 83 703 94 q 799 102 754 102 l 802 170 q 815 154 812 167 q 821 125 817 141 l 828 136 q 801 234 819 180 q 769 332 784 287 q 749 421 755 378 q 745 433 747 425 q 741 446 744 441 q 730 450 739 450 l 739 457 l 743 454 q 771 471 760 471 q 786 468 781 471 q 790 503 787 483 q 796 535 793 523 q 802 562 799 547 l 791 567 l 802 570 l 806 596 l 799 596 q 791 600 793 596 l 810 607 q 808 617 809 610 q 806 627 808 625 q 714 604 765 613 q 608 589 663 595 q 501 578 552 583 l 501 567 l 536 562 q 519 556 532 559 q 498 551 507 554 q 503 544 498 546 q 518 541 508 543 l 496 532 q 494 524 496 529 q 492 514 493 518 l 501 510 l 492 503 q 488 492 491 498 q 484 484 484 486 l 488 476 q 527 475 509 476 q 569 470 545 473 q 614 463 593 466 q 656 457 635 460 l 629 443 l 629 297 q 625 374 627 333 q 623 439 623 416 l 603 439 l 602 415 q 604 371 602 400 q 607 328 607 342 q 600 279 607 298 l 591 439 l 582 439 q 583 421 583 430 q 583 389 583 412 q 571 319 583 325 l 566 256 q 562 283 562 264 q 559 297 562 289 q 555 247 559 279 q 551 207 551 215 l 547 207 q 545 222 545 210 l 545 227 l 514 229 q 529 237 515 230 q 543 252 543 243 q 541 260 543 257 q 522 253 525 253 l 514 256 q 528 266 520 261 q 539 276 536 270 q 542 293 542 281 q 539 318 542 305 q 536 340 537 332 q 419 297 494 297 l 424 293 l 425 285 q 416 271 425 275 q 441 269 419 269 l 452 264 q 422 260 441 260 l 395 260 q 399 268 399 261 l 397 273 q 321 381 344 311 q 298 532 298 451 q 317 713 298 633 q 390 854 336 793 q 389 859 389 856 q 410 873 389 873 l 419 872 l 419 869 l 424 868 q 431 870 427 868 q 437 874 434 871 q 443 878 441 877 q 437 882 439 882 q 431 876 435 882 q 424 871 427 871 l 419 872 l 416 880 q 427 885 418 881 q 436 890 436 890 l 435 896 l 432 896 q 397 888 413 896 q 382 867 382 881 q 365 857 370 866 q 351 831 359 848 q 335 808 343 814 q 329 828 329 818 q 339 864 329 839 q 350 904 350 890 q 330 917 350 917 q 313 914 321 917 q 296 949 296 925 l 297 960 l 315 960 l 309 951 q 332 945 320 945 q 354 947 339 945 q 376 950 369 950 l 387 949 l 342 933 q 352 922 347 930 q 361 911 356 913 l 361 918 q 389 926 369 921 q 418 935 408 931 q 435 945 427 939 q 422 955 434 953 q 408 960 410 958 q 422 972 422 960 q 418 990 422 980 q 414 1007 414 1000 q 416 1015 414 1010 q 429 992 423 1010 q 439 968 435 975 q 452 954 443 960 q 465 907 454 928 q 485 873 475 886 q 522 829 494 861 q 559 783 550 797 l 574 790 q 542 836 566 810 q 510 880 518 862 l 514 885 q 544 849 520 881 q 577 806 567 817 q 591 794 587 794 l 600 794 l 600 803 q 586 831 600 807 q 571 867 571 854 q 593 838 581 860 q 609 808 604 816 q 627 800 614 800 q 637 803 629 800 q 632 821 637 814 q 616 842 627 829 q 603 861 606 854 l 608 867 q 653 808 629 848 l 661 814 q 643 848 659 828 q 627 882 627 867 q 629 896 627 885 q 618 919 629 903 q 608 943 608 934 q 611 951 608 946 q 656 880 640 920 q 665 868 659 878 q 678 853 672 859 q 690 847 684 848 l 701 854 q 672 900 696 861 q 634 959 648 939 q 600 1000 620 979 l 603 1004 q 708 859 659 952 l 720 859 q 693 907 713 884 l 697 918 l 739 867 l 754 867 l 757 878 l 765 869 l 772 888 q 664 1042 734 962 l 664 1029 q 661 1023 664 1026 q 620 1056 647 1031 q 574 1090 592 1080 q 533 1101 555 1101 q 528 1086 528 1090 q 537 1067 528 1082 q 547 1034 547 1051 q 531 1004 547 1017 q 514 971 514 991 q 507 954 514 954 q 467 1001 491 972 q 443 1039 443 1029 q 463 1077 443 1064 q 514 1090 482 1090 q 468 1109 503 1109 q 424 1097 441 1109 m 211 966 q 193 930 206 954 q 174 887 180 905 q 167 850 167 869 q 170 823 167 844 q 214 804 191 804 l 225 806 q 249 823 245 823 q 252 847 252 832 q 242 881 252 867 q 214 896 233 896 q 199 893 210 896 q 182 890 188 890 l 178 892 l 211 966 m 330 966 l 323 966 l 318 962 l 330 966 m 408 954 l 397 954 l 390 951 l 408 954 m 554 888 q 537 905 546 890 q 522 932 529 920 q 501 949 514 945 q 507 950 504 950 q 533 922 519 950 q 554 888 548 894 m 693 925 q 686 932 688 926 q 682 940 684 939 q 689 933 687 939 q 693 925 690 928 m 484 936 l 488 925 l 484 936 m 371 911 q 379 902 375 909 q 387 895 384 895 q 417 904 398 895 q 436 921 436 913 q 435 930 436 928 q 403 921 419 928 q 371 911 387 914 m 754 885 l 730 907 l 754 878 l 754 885 m 154 904 l 143 872 l 154 904 m 132 840 l 117 790 l 132 840 m 154 829 q 138 736 152 798 q 123 642 123 674 l 125 623 q 130 678 127 654 q 140 743 134 703 q 154 829 147 783 m 184 798 q 157 652 157 740 l 158 614 q 166 718 161 676 q 184 798 171 759 m 218 783 l 207 750 l 218 783 m 110 753 l 106 728 l 110 753 m 289 689 l 286 671 l 289 689 m 282 633 l 286 633 l 286 664 l 282 664 l 282 633 m 278 593 l 282 593 l 282 619 l 278 619 l 278 593 m 161 545 q 157 572 157 556 q 158 589 157 581 q 158 607 158 596 l 157 596 q 160 577 157 589 q 163 555 163 564 l 161 545 m 743 593 l 760 591 l 764 591 q 781 596 773 591 l 774 597 q 760 594 768 597 q 749 591 753 591 l 743 593 m 642 586 q 610 578 631 586 q 571 570 589 570 l 603 570 l 591 555 l 591 536 q 646 494 591 494 q 673 509 662 494 q 684 539 684 523 q 682 551 684 547 q 665 576 674 566 q 642 586 656 586 m 240 465 l 244 465 l 244 488 l 240 488 l 240 465 m 656 450 q 657 412 656 432 q 659 385 659 391 q 642 357 659 357 q 656 285 656 334 q 685 253 665 262 l 717 256 q 722 233 722 252 l 722 243 q 727 259 722 252 q 741 276 731 266 q 754 293 750 286 q 762 261 758 274 q 768 234 766 248 q 772 207 771 221 q 762 265 766 233 q 751 322 757 298 q 734 367 745 347 q 743 319 743 350 q 732 329 739 322 q 720 338 725 336 q 694 365 699 347 q 689 414 689 382 q 685 450 689 439 q 690 409 686 442 q 694 359 694 375 l 693 340 q 657 383 657 340 q 659 407 657 391 q 660 428 660 422 q 656 450 660 439 m 722 424 q 725 421 725 421 l 722 428 q 718 444 718 436 l 720 450 l 722 424 m 103 436 q 114 391 111 414 q 122 334 117 368 q 135 278 126 301 q 158 236 143 254 q 138 277 145 253 q 126 326 130 302 q 117 384 123 350 q 103 436 111 418 m 271 372 l 256 401 l 271 367 l 271 372 m 187 281 q 232 241 187 241 q 279 286 279 241 l 278 297 q 231 323 262 323 q 200 312 212 323 q 187 281 187 300 m 309 300 q 371 221 337 249 l 371 227 q 363 245 363 235 q 376 260 363 258 q 353 268 363 262 q 330 285 343 274 q 309 300 316 296 m 648 244 l 653 244 l 653 260 l 648 260 l 648 244 m 315 248 l 345 218 l 315 248 m 443 236 l 461 236 l 443 236 m 262 229 l 293 196 l 262 229 m 364 200 q 359 199 363 199 q 357 204 357 199 q 353 210 356 209 q 358 207 353 209 q 364 203 364 205 l 364 200 m 260 170 l 244 189 q 260 170 254 174 m 300 183 l 304 174 l 300 183 m 262 163 l 275 151 l 262 163 m 547 154 l 541 154 l 521 143 l 547 154 m 472 139 l 501 139 l 472 139 m 357 134 l 382 134 l 357 134 m 484 114 l 510 114 l 484 114 m 342 98 l 368 98 l 342 98 m 376 98 l 390 98 l 376 98 z "},"H":{"ha":974,"x_min":22,"x_max":951,"o":"m 389 1133 q 400 1068 395 1107 q 408 985 405 1028 q 411 907 411 941 q 405 820 411 874 q 399 745 399 766 l 400 717 q 437 714 425 714 q 483 718 446 714 q 536 722 519 722 q 557 925 541 823 q 596 1122 572 1027 l 733 1105 q 765 1076 741 1076 q 789 1103 777 1076 l 789 1105 l 807 1107 q 951 1053 877 1107 q 886 505 886 784 q 899 277 886 392 q 940 54 912 163 l 885 47 l 886 40 q 882 35 886 39 q 878 31 878 31 q 804 26 836 30 q 695 14 772 23 q 582 0 618 4 q 565 145 578 57 q 545 292 553 234 q 536 403 538 350 l 397 403 q 377 234 382 313 q 370 28 372 154 l 359 28 q 316 22 343 28 q 278 16 288 16 q 249 22 262 16 q 136 20 211 20 q 25 22 61 20 q 22 50 22 32 q 24 64 22 56 q 27 83 25 73 q 31 97 30 93 q 40 160 37 123 q 47 235 43 196 q 76 499 66 393 q 86 714 86 604 q 83 820 86 769 q 74 912 80 870 q 56 1011 68 954 q 31 1105 43 1069 q 79 1112 56 1107 q 148 1126 102 1116 q 215 1137 194 1135 q 250 1157 225 1157 q 293 1154 268 1157 q 326 1150 319 1150 q 351 1145 340 1147 q 373 1140 363 1143 q 389 1133 382 1137 m 249 1120 q 255 1080 253 1093 q 260 1044 257 1068 q 262 1000 262 1021 q 260 962 262 975 l 253 962 q 228 1041 238 1008 q 201 1097 218 1074 q 187 1089 187 1097 q 191 1073 187 1083 q 195 1061 195 1063 l 191 1053 q 182 1073 188 1056 q 167 1089 176 1089 q 155 1086 161 1089 l 151 1044 l 140 1078 q 121 1082 132 1082 q 109 1072 109 1082 q 114 1052 109 1066 q 119 1029 119 1038 q 113 1013 119 1019 l 97 1075 l 86 1072 q 116 909 106 994 q 125 734 125 823 q 118 570 125 660 q 104 410 112 481 q 82 227 96 340 q 62 58 68 115 l 86 58 q 94 86 89 78 q 97 58 97 79 l 125 58 l 125 69 q 129 78 125 77 q 132 64 132 74 l 132 58 q 155 54 143 58 l 163 69 l 168 58 l 187 58 q 196 106 193 85 q 203 142 200 126 q 215 179 207 157 q 227 161 227 175 q 223 143 227 154 q 220 129 220 132 q 221 121 220 123 q 227 147 227 132 q 226 162 227 157 q 225 175 226 168 q 240 210 225 203 q 241 184 241 201 q 239 138 241 169 q 236 90 236 106 q 240 50 236 71 l 268 50 l 272 135 q 277 106 277 121 q 276 85 277 93 q 275 68 276 77 l 277 54 l 282 54 q 292 57 287 54 q 302 62 298 60 l 307 179 l 315 174 q 311 117 311 155 l 311 58 q 334 66 330 58 q 339 184 336 139 q 345 283 341 230 q 353 389 348 336 l 326 411 l 322 400 l 323 406 q 308 422 323 417 q 288 435 292 427 l 283 380 l 279 383 l 279 433 q 300 463 279 459 q 422 449 358 449 q 532 454 460 449 l 416 458 l 408 465 q 465 473 430 473 l 513 473 l 532 473 q 522 484 529 482 q 497 488 515 486 q 473 493 479 490 q 501 497 488 497 q 529 493 517 497 q 541 522 541 510 q 540 525 541 524 q 539 529 540 526 q 538 532 538 531 q 536 534 537 534 l 482 541 q 530 547 489 547 l 541 549 l 541 554 l 551 559 q 555 546 555 553 q 553 529 555 539 q 551 518 551 519 l 551 513 l 554 515 q 562 513 559 515 q 571 504 564 511 q 576 393 572 452 q 592 260 581 335 q 611 139 604 184 q 629 36 619 94 l 644 35 q 694 47 677 35 q 691 70 694 58 q 688 89 688 83 q 692 109 688 98 l 703 47 l 724 46 q 742 50 732 46 l 742 57 l 745 66 q 750 50 750 62 q 770 54 760 52 q 789 58 781 55 l 789 68 q 783 113 789 85 q 777 153 777 141 q 781 182 777 168 q 790 124 786 162 q 800 58 795 86 q 814 57 806 58 q 827 56 822 56 q 851 89 851 56 q 851 117 851 106 q 850 140 850 127 q 841 146 843 140 q 839 167 839 153 q 833 205 839 180 q 827 237 827 229 q 831 257 827 247 q 847 187 847 239 q 854 163 854 182 q 869 147 865 157 q 875 118 872 138 q 878 97 878 98 l 890 104 q 839 524 839 299 q 909 1029 839 795 q 892 1049 904 1042 q 866 1061 880 1057 q 834 1068 853 1064 q 811 1072 814 1072 l 819 1064 q 806 979 816 1038 q 792 883 797 920 q 787 802 787 846 q 789 761 787 775 q 798 783 789 770 q 802 772 802 775 q 799 763 802 766 q 792 752 797 759 q 785 742 787 746 q 778 823 778 775 q 784 924 778 850 q 791 1034 791 998 l 781 1034 q 775 1023 779 1032 q 770 1013 771 1015 l 764 1017 l 765 1023 q 751 1040 765 1040 l 745 1040 l 722 960 q 722 965 722 963 q 721 971 722 968 q 725 998 721 980 q 729 1025 729 1015 q 728 1032 729 1027 q 726 1040 726 1038 q 681 783 688 905 l 681 804 q 683 861 681 828 q 690 933 686 894 q 700 1011 695 972 q 707 1072 705 1050 q 681 1076 694 1076 q 657 1067 662 1076 l 653 1078 l 633 1078 q 598 927 611 999 q 575 775 585 855 q 562 612 566 696 l 559 612 l 554 621 l 469 629 q 504 637 481 637 q 520 637 513 637 q 538 636 528 637 l 551 636 l 551 642 q 543 660 551 649 q 510 661 531 661 q 469 662 489 661 q 436 664 448 663 q 478 672 452 672 q 496 672 489 672 q 510 671 503 671 q 549 675 530 671 l 543 686 l 493 688 q 342 672 403 688 q 330 684 339 684 q 317 681 325 684 q 306 677 310 677 q 300 679 301 677 q 295 692 300 689 q 275 694 291 694 q 271 701 271 694 q 272 706 271 704 q 272 711 272 708 l 353 717 q 363 766 357 741 q 374 815 370 791 q 378 857 378 840 q 373 938 378 892 q 363 1030 368 984 q 358 1111 358 1076 l 322 1114 l 319 1060 q 315 1100 315 1072 q 302 1120 315 1120 l 283 1120 q 311 889 311 977 q 300 770 311 821 q 298 930 299 847 q 283 1078 297 1014 q 261 1122 279 1122 q 249 1120 257 1122 m 653 1067 l 648 1047 l 653 1067 m 155 1040 l 160 1017 l 155 1040 m 322 1040 l 326 1006 l 322 1040 m 633 966 q 639 1004 636 979 q 644 1040 642 1028 q 640 1008 642 1022 q 633 966 637 994 m 199 1036 l 207 1002 l 199 1036 m 839 1034 l 835 1002 l 839 1034 m 831 857 q 852 956 843 914 q 867 1025 861 998 q 852 956 861 998 q 831 857 843 914 m 882 1006 l 885 1006 l 885 1021 l 882 1021 l 882 1006 m 764 997 l 770 997 l 770 1013 l 764 1013 l 764 997 m 163 990 l 168 990 l 168 1010 l 163 1010 l 163 990 m 831 974 l 835 974 l 835 993 l 831 993 l 831 974 m 761 990 l 758 962 l 761 990 m 215 960 q 212 976 215 965 q 210 986 210 986 l 215 947 l 215 960 m 168 979 l 171 947 q 168 979 171 970 m 339 940 q 335 958 339 943 q 330 979 332 972 l 339 929 l 339 940 m 800 783 q 804 843 801 804 q 811 909 806 882 q 828 966 817 937 q 810 895 814 928 q 800 783 806 862 m 720 960 l 714 932 l 720 960 m 132 943 l 136 893 q 132 943 136 918 m 175 916 l 179 916 l 179 940 l 175 940 l 175 916 m 350 882 l 342 921 l 342 865 l 350 882 m 711 893 l 714 893 l 714 921 l 711 921 l 711 893 m 179 907 l 182 876 q 179 907 182 897 m 707 846 l 711 846 l 711 876 l 707 876 l 707 846 m 187 869 l 191 827 l 187 869 m 155 686 l 155 725 q 144 863 155 789 q 155 686 155 796 m 339 827 l 342 827 l 342 846 l 339 846 l 339 827 m 618 831 l 614 739 l 618 831 m 610 725 l 607 574 l 610 725 m 279 684 q 273 675 273 682 q 288 648 273 668 l 288 647 q 284 639 288 644 q 281 633 281 635 q 289 628 281 628 q 297 632 291 628 q 307 636 303 635 q 310 647 310 644 q 295 666 310 657 q 279 684 281 675 m 676 668 q 644 621 644 651 q 648 602 644 610 q 669 574 669 595 q 668 558 669 569 q 667 542 667 547 q 672 521 667 528 q 686 536 682 521 q 694 554 690 551 q 700 569 694 564 q 715 580 705 574 q 732 591 726 585 q 739 606 739 597 q 743 619 743 612 q 725 654 743 641 q 684 668 706 668 l 676 668 m 155 562 l 160 562 l 160 660 l 155 660 l 155 562 m 302 586 q 281 578 294 578 q 268 579 275 578 q 253 583 260 581 q 240 586 246 585 q 239 593 239 589 q 243 603 239 597 q 248 612 248 608 q 247 615 248 614 q 245 618 246 616 q 222 596 222 609 q 231 570 222 588 q 239 541 239 551 q 235 524 239 540 l 233 529 q 236 542 233 534 q 240 554 239 549 q 262 518 262 546 q 261 505 262 513 q 259 487 260 496 q 258 475 258 479 l 260 463 q 261 488 260 475 q 265 509 262 502 q 272 507 268 507 q 300 521 286 507 q 290 534 293 523 q 283 549 288 545 l 302 554 q 289 551 298 551 q 249 574 267 551 q 278 579 262 579 q 307 574 294 579 q 322 553 310 562 q 347 545 335 545 q 381 556 368 545 q 395 587 395 568 q 380 622 395 607 q 346 637 366 637 q 316 621 329 637 q 302 586 302 604 m 408 579 l 424 579 l 408 579 m 653 541 q 648 562 653 548 l 653 528 l 653 541 m 151 521 l 155 521 l 155 551 l 151 551 l 151 521 m 694 361 q 686 433 688 385 q 676 504 683 481 q 686 433 683 481 q 694 361 688 385 m 694 501 l 692 504 l 694 489 l 694 501 m 272 489 l 272 484 q 279 473 272 473 l 281 472 l 283 473 l 283 478 q 281 484 283 479 q 277 489 280 489 l 272 489 m 804 489 l 808 403 l 804 489 m 257 443 l 253 372 l 257 443 m 610 397 l 614 397 l 614 422 l 610 422 l 610 397 m 319 358 l 322 358 l 322 389 l 319 389 l 319 358 m 621 298 q 623 313 623 302 q 618 343 623 325 q 614 380 614 362 q 617 345 614 371 q 621 298 621 318 m 811 350 l 817 350 l 817 372 l 811 372 l 811 350 m 136 358 l 132 307 l 136 358 m 700 325 l 703 325 l 703 350 l 700 350 l 700 325 m 315 345 l 311 268 l 315 345 m 817 338 l 819 314 l 817 338 m 664 307 l 668 275 q 664 307 668 292 m 129 294 l 121 237 l 129 294 m 631 268 l 629 268 q 625 285 625 268 q 627 292 625 290 q 629 283 627 292 q 631 268 631 274 m 772 268 l 770 272 l 772 257 l 772 268 m 160 244 l 155 212 l 160 244 m 191 237 l 187 210 l 191 237 m 676 221 l 681 221 l 681 237 l 676 237 l 676 221 m 637 232 l 640 207 q 637 232 640 224 m 778 182 l 781 182 l 781 232 l 778 232 l 778 182 m 113 207 l 102 140 q 113 207 113 167 m 132 78 q 151 207 134 101 l 151 197 q 142 142 151 178 q 132 86 132 105 l 132 78 m 182 201 l 179 171 l 182 201 m 681 201 l 684 154 q 681 201 684 170 m 644 154 l 648 154 l 648 199 l 644 199 l 644 154 m 726 187 l 730 160 l 726 187 m 277 140 l 279 140 l 279 168 l 277 168 l 277 140 m 175 143 l 179 143 l 179 160 l 175 160 l 175 143 m 688 113 l 692 113 l 692 143 l 688 143 l 688 113 m 733 117 l 739 117 l 739 143 l 733 143 l 733 117 m 171 132 l 168 78 l 171 132 m 97 89 l 102 89 l 102 121 l 97 121 l 97 89 m 653 89 q 652 99 652 94 q 651 110 652 104 q 648 121 650 116 l 653 78 l 653 89 m 739 89 l 742 69 l 739 89 m 657 69 l 660 41 l 657 69 z "},"I":{"ha":421,"x_min":18,"x_max":403,"o":"m 403 1133 q 399 988 403 1060 q 387 791 396 916 q 375 604 378 667 q 370 404 370 515 q 371 304 370 355 q 373 204 372 254 q 374 112 374 154 q 375 3 375 71 q 353 7 366 3 q 328 11 339 11 q 302 0 313 11 l 191 0 q 157 17 183 17 q 140 17 146 17 q 127 16 134 16 q 76 25 108 16 q 18 47 43 35 q 42 278 30 158 q 62 509 55 399 q 69 715 69 620 q 62 915 69 823 q 37 1086 54 1006 q 33 1101 36 1093 q 31 1112 31 1109 q 37 1125 31 1122 l 57 1125 q 155 1137 107 1125 q 165 1129 160 1133 q 175 1125 170 1125 q 203 1157 177 1157 q 252 1147 222 1157 q 300 1137 282 1137 q 321 1137 314 1137 q 339 1136 328 1137 q 367 1135 350 1135 q 403 1133 385 1134 m 197 1117 q 193 1064 195 1084 q 189 1022 191 1043 q 186 968 187 1000 q 191 897 186 930 l 183 890 q 169 958 175 917 q 159 1034 163 1000 q 143 1097 154 1068 q 127 1084 127 1097 q 129 1077 127 1082 q 131 1065 130 1071 q 132 1057 132 1059 q 130 1050 132 1056 q 127 1044 127 1044 q 121 1065 124 1051 q 116 1086 119 1079 q 109 1093 114 1093 q 102 1092 107 1093 q 96 1090 98 1090 l 92 1078 l 89 1086 l 81 1086 q 106 734 106 922 q 102 573 106 652 q 94 421 99 494 q 81 236 89 349 q 69 66 73 122 l 89 64 l 96 83 q 100 58 100 77 q 111 57 104 57 q 124 62 119 57 q 133 76 128 66 q 139 89 137 85 q 143 78 143 85 q 141 66 143 74 q 139 56 139 58 q 164 50 157 56 q 187 221 187 158 q 186 256 187 244 l 197 267 q 211 163 211 225 q 211 121 211 142 q 210 72 210 100 l 211 36 l 224 35 q 239 36 231 35 q 255 37 248 37 q 267 38 262 38 q 281 39 271 39 q 291 55 289 46 q 296 81 294 64 q 300 106 298 99 q 316 99 312 106 q 321 77 320 92 q 326 55 323 62 q 336 47 328 47 l 343 47 l 343 85 q 342 154 343 131 q 338 247 341 178 q 335 364 335 317 q 338 517 335 426 q 347 701 342 609 q 359 904 353 792 q 367 1097 365 1016 l 339 1097 l 340 1090 q 337 1077 340 1084 q 330 1064 334 1070 l 328 1103 l 300 1103 l 300 1096 q 292 1078 300 1082 q 274 1105 289 1097 q 232 1114 260 1112 q 197 1117 205 1115 m 96 1059 l 100 1059 l 100 1078 l 96 1078 l 96 1059 m 289 1067 q 273 1030 285 1048 q 246 991 260 1011 q 225 950 232 971 l 231 950 q 254 997 231 970 q 281 1039 278 1024 q 292 1000 292 1031 q 295 993 293 999 q 297 985 296 987 q 300 983 298 983 l 301 983 q 295 1027 301 999 q 289 1067 289 1055 m 131 843 q 139 909 139 876 q 135 977 139 932 q 131 1044 131 1022 q 139 936 139 991 q 131 843 139 880 m 289 953 q 328 811 325 909 q 321 897 328 862 q 289 953 315 932 m 225 843 q 214 790 223 828 q 202 730 205 751 q 199 688 199 709 q 225 600 199 634 q 254 614 243 602 q 272 644 265 626 q 283 679 278 663 l 283 689 q 288 728 283 699 q 293 777 293 758 q 264 828 293 814 q 240 776 245 806 q 233 701 235 746 q 241 689 236 698 q 253 681 246 681 q 265 704 265 681 q 265 720 265 714 q 264 733 264 726 q 250 685 264 685 l 244 686 q 237 732 237 703 q 264 823 237 781 q 280 814 273 823 q 289 804 287 806 l 289 768 q 275 664 289 724 q 233 603 262 603 q 221 613 229 603 q 211 624 213 623 q 201 705 201 663 q 261 890 201 821 q 240 868 247 888 q 225 843 233 848 m 211 486 q 231 492 220 486 q 250 501 242 498 q 269 525 261 511 q 282 552 277 538 q 292 583 287 566 q 302 612 297 600 q 283 553 293 581 q 258 505 274 526 q 214 485 241 485 q 162 535 177 485 q 147 635 147 586 q 153 706 147 669 q 168 778 159 743 q 191 864 177 814 q 176 810 186 846 q 160 745 165 773 q 152 693 155 718 q 149 643 149 669 q 165 545 149 604 q 211 486 182 486 m 127 831 l 123 800 l 127 831 m 319 673 q 325 735 321 694 q 330 796 329 776 q 326 729 328 755 q 319 673 324 702 m 317 667 l 309 619 l 317 667 m 111 654 l 117 619 l 111 654 m 158 473 q 181 410 166 447 q 204 343 196 374 q 214 286 213 312 l 216 340 l 211 338 q 185 405 205 360 q 158 473 164 450 m 258 468 l 244 440 l 258 468 m 236 415 l 233 400 l 236 415 m 264 415 l 258 374 l 264 415 m 231 393 l 225 374 l 231 393 m 253 340 l 258 340 l 258 361 l 253 361 l 253 340 m 250 329 l 241 258 l 250 329 m 241 184 l 244 184 l 244 252 l 241 252 l 241 184 m 311 192 l 317 192 l 317 220 l 311 220 l 311 192 m 269 106 l 272 106 l 272 153 l 269 153 l 269 106 m 236 83 l 241 83 l 241 129 l 236 129 l 236 83 z "},"J":{"ha":783,"x_min":18,"x_max":764,"o":"m 578 1146 q 616 1122 587 1122 q 663 1124 640 1122 q 710 1128 685 1126 q 764 1133 734 1131 l 764 1075 q 755 757 764 860 q 746 670 751 713 q 739 591 741 627 q 736 519 736 555 q 753 283 736 404 q 740 209 748 269 q 715 127 732 149 q 599 38 674 75 q 460 0 524 0 q 393 9 424 0 q 359 2 378 6 q 330 -1 340 -1 q 294 9 310 -1 q 258 5 278 5 q 162 34 205 5 q 72 111 119 62 q 60 134 71 114 q 50 164 50 155 q 60 180 50 175 q 52 234 59 203 q 37 296 45 264 q 23 355 28 328 q 18 404 18 381 q 317 461 179 424 l 328 456 q 335 408 333 441 q 342 354 338 374 q 359 321 347 334 l 368 319 q 404 339 391 319 q 400 418 401 378 q 398 492 399 458 q 397 579 397 526 q 400 783 397 685 q 411 972 404 881 q 431 1157 418 1063 q 469 1152 447 1156 q 509 1144 490 1147 q 543 1141 527 1141 q 578 1146 559 1141 m 514 1111 q 500 1114 506 1114 q 488 1101 488 1114 q 490 1090 488 1101 q 492 1074 492 1080 q 488 1059 492 1065 l 476 1108 q 446 880 456 997 q 436 653 436 764 q 465 343 436 403 l 468 350 q 473 350 471 350 q 478 349 475 349 q 494 378 494 349 q 501 366 499 372 q 505 350 503 359 q 419 301 485 308 q 403 291 415 294 q 380 284 391 287 q 361 276 369 281 q 354 261 354 271 l 355 256 l 366 256 q 379 252 375 256 l 355 240 q 359 229 355 232 q 370 225 362 227 q 382 222 378 224 q 372 216 380 220 q 363 203 363 212 q 351 199 358 199 q 339 203 347 199 q 318 313 328 241 q 298 415 308 385 q 282 411 290 413 q 269 404 274 408 q 264 389 264 399 q 261 404 261 392 q 233 401 254 401 q 211 385 212 401 l 207 392 l 203 392 q 180 385 199 392 l 176 386 q 135 372 149 386 l 94 370 l 94 358 q 90 350 94 353 q 83 370 83 363 l 78 370 q 64 361 75 370 q 104 190 81 268 q 161 93 126 111 l 154 100 l 158 111 l 178 93 q 200 110 184 98 q 225 131 217 121 q 233 153 233 140 q 228 174 233 164 q 211 183 222 183 q 208 196 211 189 q 204 205 204 203 q 211 214 204 207 q 245 157 245 196 q 222 89 245 136 l 229 89 q 253 127 253 89 l 261 127 q 290 109 271 109 q 320 115 301 109 q 350 122 339 122 q 371 117 363 122 q 337 89 353 102 q 310 74 322 77 q 335 78 316 75 q 364 82 355 82 l 374 82 q 283 62 343 69 q 199 47 223 54 l 221 46 q 290 53 244 46 q 358 60 335 60 l 363 60 q 326 50 353 54 q 294 45 300 46 q 325 37 311 37 q 372 46 341 37 q 422 54 403 54 q 446 52 439 54 q 427 48 444 50 q 408 36 411 45 l 416 28 q 545 46 488 28 q 643 105 602 64 q 704 214 683 146 q 710 237 710 233 q 702 272 710 251 q 692 301 693 294 l 700 294 q 702 323 701 311 q 703 344 703 336 q 704 370 704 353 q 699 463 704 401 q 693 557 693 526 q 700 657 693 616 q 718 845 713 744 q 726 1090 724 945 l 715 1089 l 707 1093 l 700 1082 l 696 1090 l 661 1090 l 663 1075 q 659 1063 663 1071 q 654 1090 654 1069 l 627 1093 l 621 1067 q 616 1090 616 1072 l 608 1090 q 591 1038 600 1071 q 577 976 583 1006 q 567 916 572 945 l 559 916 q 551 983 551 941 q 552 1006 552 996 q 553 1034 553 1017 q 546 1108 553 1078 l 525 1111 l 525 1100 l 522 1090 l 514 1111 m 525 1010 l 529 1010 l 529 1090 l 525 1090 l 525 1010 m 616 1044 l 621 1044 l 621 1067 l 616 1067 l 616 1044 m 488 1010 l 492 1010 l 492 1025 l 488 1025 l 488 1010 m 659 907 l 654 918 l 659 896 l 659 907 m 621 900 l 621 768 l 621 746 q 612 657 621 701 q 638 608 632 636 q 647 533 645 581 q 650 475 648 486 l 650 539 q 616 657 650 619 q 619 779 618 697 q 621 900 620 860 m 541 880 l 538 854 l 541 880 m 659 878 q 654 808 654 843 q 677 639 654 715 l 677 642 l 669 703 l 669 700 q 657 785 657 736 q 658 813 658 800 q 659 856 659 826 l 659 878 m 532 846 q 525 734 525 811 q 519 647 525 681 q 492 585 513 612 q 506 607 497 591 q 522 631 514 623 l 532 846 m 578 846 l 578 616 q 608 551 596 584 q 621 486 621 519 l 621 472 q 608 555 621 523 q 578 722 578 625 l 578 846 m 463 628 q 489 739 489 695 q 488 766 489 758 q 484 687 488 718 q 463 628 479 655 m 488 576 l 484 558 l 488 576 m 546 558 q 521 510 521 547 q 522 496 522 503 q 522 479 522 490 l 522 517 q 530 539 525 521 q 547 558 534 558 l 551 558 q 566 545 559 554 q 575 529 572 536 q 579 511 577 522 q 583 490 582 500 l 583 498 q 580 519 583 506 q 575 539 576 533 q 546 558 560 556 m 484 551 l 484 524 q 511 392 484 441 q 484 551 484 473 m 525 468 l 532 431 l 525 468 m 583 444 l 583 468 l 578 441 l 583 444 m 621 441 l 624 441 l 624 464 l 621 464 l 621 441 m 685 404 l 681 350 q 677 321 677 342 q 669 301 677 307 q 661 332 661 318 q 662 345 661 336 q 664 361 663 353 q 665 375 665 370 q 661 400 665 388 q 647 370 661 372 l 661 358 q 621 278 643 296 l 661 283 q 681 325 677 298 q 685 404 685 351 m 472 380 l 476 361 l 472 380 m 551 329 q 546 361 546 336 q 543 355 543 358 q 548 347 543 353 q 553 335 553 340 q 551 329 553 330 m 571 361 l 575 343 l 571 361 m 529 350 q 518 340 520 349 q 513 320 516 331 q 503 306 511 310 l 510 304 q 541 315 523 304 l 529 350 m 170 347 q 139 307 139 327 q 142 293 139 300 q 148 282 144 287 q 158 267 151 278 l 165 268 q 183 262 178 268 q 197 239 188 256 q 215 218 207 223 q 215 238 215 231 q 214 256 214 246 q 231 294 214 281 l 231 300 q 215 335 231 321 q 179 349 199 349 l 170 347 m 578 275 q 549 279 564 279 q 504 235 504 279 q 505 227 505 231 q 505 218 505 224 q 554 191 533 191 q 560 192 557 191 q 567 192 562 192 q 599 237 599 207 q 595 256 599 243 q 578 275 583 264 m 233 271 q 239 258 239 262 q 234 241 239 251 q 229 225 229 231 q 237 211 229 216 q 232 224 232 214 q 234 237 232 228 q 236 253 236 246 q 233 271 236 262 m 123 207 l 132 176 l 123 207 m 154 111 l 135 168 q 144 140 140 160 q 154 111 149 119 m 86 149 q 102 110 95 122 q 123 97 109 97 l 86 149 m 382 149 l 371 149 l 363 146 l 382 149 m 411 93 l 400 93 l 400 89 l 411 93 m 256 82 q 170 62 237 82 l 178 54 q 237 64 197 62 q 298 78 277 67 q 286 79 294 78 q 269 81 277 80 q 256 82 260 82 m 431 78 q 440 80 431 78 q 457 82 450 82 q 444 81 453 81 q 431 78 434 80 m 546 82 l 538 82 l 505 71 l 546 82 m 408 74 l 422 74 l 408 74 m 400 71 q 391 68 399 71 q 382 65 383 65 q 400 71 389 71 m 465 60 q 458 56 463 56 l 446 54 q 465 60 460 60 z "},"K":{"ha":878,"x_min":21,"x_max":857,"o":"m 389 914 l 400 914 q 600 1153 548 1086 l 611 1153 q 641 1111 622 1143 q 675 1063 660 1080 q 717 1047 690 1047 q 725 1035 725 1042 q 720 1019 725 1029 q 714 1002 714 1010 q 721 997 716 997 q 732 1003 724 997 q 747 1008 740 1008 q 761 965 749 998 q 774 905 774 932 l 786 895 l 503 590 q 572 524 538 558 q 664 430 605 490 q 767 330 724 370 q 857 254 811 290 q 811 186 849 229 q 794 158 806 180 q 771 125 783 137 q 743 114 760 114 q 697 74 724 91 q 638 42 670 56 q 576 14 606 27 q 536 83 555 49 q 491 166 517 118 q 441 251 465 214 q 389 319 417 288 q 381 251 385 295 q 375 166 378 207 q 367 90 372 126 q 351 22 361 54 l 304 22 q 161 8 213 22 l 154 22 q 139 12 145 22 q 131 0 134 2 q 88 28 123 10 q 38 58 54 46 q 22 86 22 69 q 26 100 22 94 q 32 114 29 107 q 65 250 52 169 q 84 412 79 332 q 90 567 90 492 q 80 721 90 644 q 55 870 70 798 q 21 1043 41 942 q 48 1048 27 1046 q 80 1056 70 1051 q 92 1076 91 1061 q 153 1105 113 1086 q 214 1133 194 1123 q 244 1126 231 1126 q 332 1157 273 1126 q 389 914 378 1067 m 301 1100 q 277 1092 292 1100 q 257 1084 262 1084 l 275 1002 l 264 993 q 238 1049 249 1025 q 214 1088 228 1073 q 203 1072 203 1082 q 208 1053 203 1066 q 214 1034 214 1040 q 212 1029 214 1032 q 211 1023 211 1025 q 200 1063 200 1039 q 184 1071 194 1071 q 158 1062 174 1071 q 135 1050 142 1054 q 157 882 155 960 q 146 945 146 900 q 120 982 133 954 q 97 1019 107 1010 l 92 1002 q 89 1006 91 1003 q 86 1010 87 1008 q 83 1013 85 1011 l 78 1013 q 140 525 140 774 q 78 87 140 280 l 86 79 l 92 79 q 138 304 125 160 l 154 317 q 144 249 148 272 q 135 193 141 225 q 120 129 130 160 q 100 71 111 97 q 117 58 106 68 q 138 46 128 47 q 150 81 146 58 q 160 117 155 105 q 180 134 165 129 q 183 78 183 115 q 192 41 183 55 l 199 41 q 223 57 217 41 q 233 101 230 73 q 240 140 236 130 l 245 140 q 243 97 244 126 q 240 53 243 67 q 263 54 252 54 q 283 57 275 54 l 283 62 q 290 115 283 80 q 297 168 297 151 q 306 139 306 155 q 298 97 306 125 q 290 58 290 69 l 292 53 l 317 53 q 331 162 318 84 q 343 278 343 240 q 347 308 343 283 q 350 347 350 333 q 317 400 350 389 l 317 393 q 310 374 317 391 q 306 385 306 376 l 306 387 q 311 397 311 393 q 307 406 311 402 q 297 413 303 410 q 286 419 292 416 l 279 403 q 257 449 271 439 q 253 387 256 413 q 245 317 250 360 q 237 252 239 274 q 236 289 236 264 q 237 331 236 304 q 239 384 238 357 q 240 425 240 410 q 237 484 240 464 l 249 494 q 249 522 249 507 q 244 549 248 537 q 229 568 241 561 q 221 443 227 494 q 203 350 216 391 q 209 437 203 380 q 214 532 214 494 l 214 555 q 191 581 203 555 q 179 616 179 606 q 192 643 179 627 q 207 663 205 659 l 211 659 q 203 625 203 644 q 214 608 203 610 l 212 599 q 220 590 212 590 q 233 596 224 590 q 248 602 242 602 l 252 602 q 263 583 254 587 q 300 579 273 579 l 306 579 q 293 552 299 565 q 281 530 288 539 q 264 514 274 520 q 262 519 262 515 q 266 533 262 523 q 271 547 270 543 q 256 518 256 545 l 256 500 q 252 479 256 488 l 264 468 l 283 484 q 286 476 286 481 q 280 469 286 475 q 273 461 273 463 q 297 447 273 447 q 319 452 309 447 q 339 466 329 458 q 363 484 350 474 l 370 485 q 391 480 382 485 q 411 465 400 475 q 428 449 421 454 l 424 449 q 403 460 417 449 q 378 471 389 471 q 359 449 359 460 q 435 391 395 441 q 492 300 475 340 q 460 340 481 315 q 424 386 440 366 q 388 421 408 405 q 354 437 368 437 q 321 411 340 437 q 334 412 325 412 q 424 347 372 412 q 525 195 476 282 q 600 60 573 109 q 651 87 621 64 q 697 117 682 110 q 670 200 682 172 q 629 254 658 229 l 633 258 q 690 204 661 233 q 747 160 720 176 q 750 167 750 161 q 745 174 750 170 q 741 179 741 178 q 743 186 741 183 l 760 175 q 765 191 765 183 q 746 227 765 202 q 725 258 728 251 q 736 261 730 261 q 754 254 745 261 q 774 235 762 248 q 793 220 787 223 q 801 229 797 224 q 806 237 806 234 q 803 246 806 243 q 797 255 801 250 q 789 265 793 260 l 473 559 q 464 547 464 555 q 479 526 464 538 q 497 505 494 513 l 492 503 l 454 536 l 435 517 l 463 488 l 457 484 l 419 514 q 416 510 418 512 q 414 505 415 507 q 411 501 412 503 l 406 503 l 404 509 q 409 524 404 517 q 424 543 414 532 q 438 560 434 554 q 443 574 443 566 q 510 647 455 589 q 619 764 564 705 q 713 869 674 823 q 753 924 753 916 q 746 935 753 930 q 736 945 739 941 l 668 879 l 663 882 l 728 956 l 725 966 q 682 936 701 956 q 637 887 663 916 q 591 844 611 859 l 587 848 q 611 890 609 868 q 659 945 644 914 q 686 1023 674 976 l 652 1023 q 625 985 640 993 l 623 990 q 629 999 623 991 q 638 1014 635 1007 q 644 1028 642 1020 q 639 1054 642 1033 q 623 1082 635 1074 q 587 1019 612 1048 l 583 1023 q 595 1043 589 1040 q 604 1064 596 1050 q 611 1083 611 1078 q 603 1093 611 1089 q 492 958 554 1029 q 355 809 430 887 q 237 689 280 732 l 233 693 q 257 739 242 721 q 306 796 271 758 q 351 852 341 835 q 353 884 353 863 q 344 957 353 899 q 323 1057 335 1015 q 301 1100 312 1100 m 302 1031 l 292 1054 l 302 1013 l 302 1031 m 168 1031 l 176 990 l 168 1031 m 222 971 l 214 1023 l 222 960 l 222 971 m 583 1019 q 530 962 575 1007 q 560 996 541 978 q 583 1019 579 1015 m 115 914 q 109 957 115 935 q 97 1002 102 980 q 104 973 99 992 q 112 941 109 954 q 115 914 115 928 m 306 971 l 310 971 l 310 1002 l 306 1002 l 306 971 m 559 951 q 577 971 564 951 q 591 993 589 991 q 579 970 591 985 q 559 951 566 956 m 623 985 q 587 944 608 966 q 553 904 566 922 q 530 868 540 887 l 623 985 m 180 960 l 183 960 l 183 979 l 180 979 l 180 960 m 310 895 l 314 895 l 314 962 l 310 962 l 310 895 m 195 860 l 196 867 q 189 903 196 880 q 182 939 182 926 q 183 945 182 943 q 183 951 183 948 q 195 860 193 875 m 623 940 l 611 925 l 623 940 m 126 852 l 119 901 l 126 842 l 126 852 m 614 796 q 636 819 625 806 q 666 851 648 831 q 703 890 684 870 q 614 796 661 833 m 135 814 q 134 819 135 814 q 132 828 133 824 q 131 833 131 833 l 135 803 l 135 814 m 481 807 l 406 715 l 481 807 m 428 787 l 397 750 l 428 787 m 332 739 q 311 720 319 733 q 302 693 302 706 q 308 673 302 681 q 322 659 313 665 q 343 643 331 652 l 336 636 q 310 593 318 636 q 318 609 311 602 q 335 623 325 615 q 349 639 345 630 l 343 643 q 384 663 374 654 q 393 694 393 671 q 389 720 393 708 q 343 739 371 739 l 332 739 m 374 597 l 359 582 l 374 597 m 165 431 q 170 486 167 448 q 174 543 174 524 q 172 571 174 561 q 176 530 176 550 q 165 431 176 494 m 286 484 q 302 511 294 495 q 321 545 311 527 l 286 484 m 200 488 l 195 514 l 195 484 l 200 488 m 587 400 l 497 503 q 541 453 515 488 q 587 400 566 418 m 463 484 l 476 468 l 476 471 q 472 475 475 472 q 468 481 470 479 q 463 484 466 484 m 428 444 l 457 411 l 428 444 m 271 350 l 275 350 l 275 366 l 271 366 l 271 350 m 183 300 q 161 171 169 210 q 169 208 164 182 q 176 244 174 233 q 187 273 179 255 l 187 288 q 183 300 187 292 m 663 111 q 602 197 640 138 q 538 285 564 255 q 578 237 559 266 q 619 171 597 208 q 663 111 642 134 m 614 273 l 629 258 l 629 262 q 623 268 629 262 q 614 273 617 273 m 668 271 l 741 186 l 668 271 m 542 214 q 568 175 556 197 q 593 131 581 153 q 623 94 606 109 q 589 144 610 115 q 542 214 569 174 z "},"L":{"ha":802,"x_min":20,"x_max":782,"o":"m 472 1129 q 468 1077 471 1113 q 464 1034 464 1041 q 472 987 464 1009 q 454 687 467 850 q 429 370 441 524 l 437 364 l 444 363 q 493 369 457 363 q 550 375 529 375 q 587 366 571 375 q 612 339 604 357 l 646 339 q 679 329 656 339 q 719 313 701 319 q 766 307 736 307 l 774 298 q 770 290 770 294 q 776 280 770 289 q 782 262 782 272 q 782 177 782 210 q 781 104 781 144 q 782 25 781 52 q 766 10 777 14 q 735 3 756 6 q 711 0 713 1 q 569 8 642 3 q 432 25 497 14 q 390 8 420 8 q 373 9 385 8 q 354 12 362 11 q 334 14 346 12 l 321 28 q 224 32 289 32 q 20 20 142 32 q 61 173 45 92 q 84 336 77 254 q 90 500 90 418 q 84 685 90 582 q 66 916 77 789 q 50 1137 56 1043 q 131 1133 92 1133 q 364 1157 230 1133 q 385 1144 371 1147 q 431 1141 399 1141 q 472 1129 460 1141 m 345 1118 q 336 1119 340 1119 q 326 1120 332 1120 q 286 1074 286 1120 q 290 1037 286 1066 q 293 990 293 1008 q 290 968 293 975 l 282 960 q 278 1023 279 982 q 277 1099 277 1064 l 268 1099 q 245 1095 260 1099 q 222 1090 230 1092 q 233 939 233 957 q 225 875 233 896 q 222 953 224 910 q 217 1031 220 996 q 210 1090 214 1067 l 184 1090 q 163 1086 170 1090 q 176 978 174 1034 q 179 840 179 923 q 183 717 179 757 l 178 717 q 166 899 172 804 q 150 1061 159 994 l 150 1069 q 119 1090 150 1090 l 107 1090 l 106 1069 q 110 1050 106 1058 q 116 920 111 1002 q 125 767 121 838 q 133 622 130 696 q 136 485 136 548 q 87 72 136 255 l 97 72 q 110 68 107 72 q 131 141 119 90 q 150 246 142 193 q 158 329 158 299 q 167 355 158 347 q 129 68 157 213 l 135 66 q 157 80 152 66 q 165 123 162 94 q 175 160 168 151 q 176 134 176 151 q 170 72 176 107 l 183 72 q 200 68 195 68 q 218 98 218 68 q 218 116 218 105 q 216 135 217 126 q 193 189 193 163 q 233 235 193 222 q 241 350 241 312 q 245 374 245 355 q 254 390 245 387 l 253 364 l 253 304 q 245 235 253 262 l 262 235 l 261 268 q 265 298 261 289 q 270 262 265 281 q 279 230 275 244 q 287 203 284 215 q 290 174 290 191 l 290 164 q 257 92 257 148 l 257 68 l 306 68 q 324 232 315 146 q 338 383 334 317 l 342 383 l 342 358 q 337 270 342 316 q 326 177 332 224 q 321 89 321 131 l 321 64 q 330 72 330 64 q 338 81 331 81 q 345 47 345 81 l 364 47 l 364 64 q 367 128 364 94 q 372 195 370 162 l 380 189 q 377 120 377 165 q 372 47 377 75 l 385 47 q 397 94 397 64 q 397 112 397 106 q 396 126 397 119 q 408 180 396 163 q 416 136 416 174 l 416 127 l 511 127 l 511 123 q 465 118 498 122 q 416 113 433 114 l 416 107 q 424 87 416 102 q 528 89 472 88 q 615 93 583 90 q 510 78 580 81 q 424 72 440 74 q 612 40 517 40 q 711 47 658 40 q 728 55 714 50 q 742 66 742 59 q 739 77 742 71 l 643 77 l 647 85 q 672 79 659 79 q 705 83 683 79 q 739 87 728 87 l 741 109 q 710 131 741 131 q 689 129 700 131 q 672 127 677 127 q 652 132 659 127 q 692 136 665 136 q 730 135 718 136 q 734 163 733 153 q 739 189 735 173 l 684 192 q 709 198 690 195 q 739 207 728 201 q 750 225 750 212 q 747 239 750 231 l 686 248 q 747 252 705 252 q 746 261 747 254 q 743 271 745 269 q 693 272 726 272 q 641 271 674 272 q 579 268 608 269 q 604 279 590 277 q 643 283 617 281 q 679 290 669 286 q 606 311 652 311 q 547 306 587 311 q 494 301 507 301 l 485 302 l 485 307 q 575 326 511 309 l 564 339 q 554 340 558 340 q 542 340 549 340 q 477 332 518 340 q 424 322 435 323 q 425 305 425 313 q 425 285 425 297 q 416 256 425 265 l 400 271 l 400 301 q 402 438 400 356 q 409 601 405 519 q 421 791 414 683 q 432 954 429 900 l 416 954 q 370 741 382 806 q 367 775 367 762 q 379 868 367 808 q 393 951 391 928 q 399 976 395 954 q 421 999 403 999 q 428 1031 425 1015 q 432 1064 432 1048 q 424 1090 432 1082 q 416 1065 418 1080 q 412 1036 414 1050 q 404 1011 410 1021 l 403 1025 q 406 1054 403 1030 q 410 1095 410 1078 l 408 1109 l 400 1109 q 390 1041 393 1080 q 385 979 387 1001 q 364 926 372 964 q 350 875 357 888 q 353 944 351 907 q 354 1002 354 981 q 345 1118 354 1063 m 660 243 l 686 243 l 660 243 m 519 235 l 564 235 l 519 235 m 504 231 l 498 232 q 482 229 494 232 q 465 227 471 227 l 457 228 q 504 231 472 231 m 457 189 l 452 189 q 433 185 445 189 q 418 182 420 182 l 412 183 q 438 188 420 187 q 457 189 456 189 m 225 132 l 225 68 l 237 68 q 250 104 250 81 l 250 132 l 225 132 z "},"M":{"ha":1364,"x_min":32,"x_max":1332,"o":"m 526 1050 q 563 976 551 1017 q 584 884 576 936 q 598 783 591 831 q 618 694 606 734 q 624 667 622 678 q 632 646 627 655 q 656 733 644 666 q 690 927 669 801 q 717 1078 711 1053 q 736 1077 728 1078 q 753 1076 744 1077 q 782 1096 774 1076 q 827 1110 798 1097 q 871 1124 857 1124 q 900 1107 888 1124 q 913 1129 901 1124 q 957 1135 925 1135 q 985 1143 975 1135 l 996 1143 l 996 1139 q 1064 1132 1008 1139 q 1091 989 1078 1074 q 1116 822 1105 903 q 1147 655 1128 736 q 1196 493 1167 574 q 1257 339 1225 412 q 1332 179 1289 266 l 1332 165 q 1283 131 1315 155 q 1226 94 1252 108 q 1175 74 1200 79 q 1158 65 1168 65 q 1145 74 1149 65 q 1086 41 1118 52 q 1004 20 1053 31 q 950 155 984 64 q 896 290 916 246 q 867 194 884 247 q 837 102 850 140 q 811 11 825 63 q 789 0 800 0 q 713 26 783 5 q 567 66 643 47 q 472 89 491 86 q 481 122 473 99 q 492 149 490 144 q 473 195 486 170 q 442 251 460 219 q 418 301 425 283 q 400 208 404 264 q 391 102 396 151 q 370 20 386 54 q 328 31 355 31 q 307 30 315 31 q 286 29 298 30 l 273 31 l 277 35 q 269 44 275 43 q 254 47 262 45 q 243 54 245 49 l 197 49 q 123 105 167 77 q 32 165 80 134 q 85 326 60 241 q 131 493 110 410 q 169 659 151 576 q 201 828 187 742 q 209 863 204 842 q 217 899 214 883 q 220 928 220 914 q 214 973 220 949 q 196 1034 208 996 q 182 1089 184 1072 l 289 1104 q 315 1021 294 1053 q 367 1044 334 1044 l 376 1044 q 407 1004 394 1036 q 393 968 407 987 q 363 950 378 950 q 350 953 355 950 q 337 961 344 956 q 322 971 330 966 l 311 1004 l 296 1002 q 286 1033 294 1006 q 269 1069 279 1059 q 255 1070 262 1070 q 239 1071 249 1071 q 216 1063 224 1071 q 304 689 256 916 q 285 730 296 721 q 270 666 277 697 q 259 607 263 635 q 254 550 254 578 l 248 546 q 252 586 250 572 q 263 635 255 600 q 275 690 271 671 q 278 733 278 709 q 265 799 278 766 q 247 735 254 766 q 232 654 239 703 q 219 574 224 606 q 205 509 214 543 q 215 565 210 531 q 226 632 220 598 q 241 709 231 666 q 258 777 251 753 l 258 817 q 248 848 258 839 q 210 679 234 793 q 169 486 186 565 q 131 329 152 408 q 82 171 111 250 l 97 160 q 122 200 113 177 q 140 256 132 222 q 154 306 148 290 q 138 243 153 302 q 109 160 124 184 l 132 138 q 156 177 150 156 q 171 236 163 197 l 171 231 q 157 185 171 214 q 143 139 143 156 q 178 109 143 115 q 239 277 222 220 q 245 269 245 277 q 211 111 229 155 q 244 104 221 104 q 269 96 261 104 q 289 158 282 115 q 309 222 296 202 l 310 210 q 305 166 310 196 q 300 127 300 137 q 304 100 300 114 q 324 95 311 99 q 339 92 337 92 q 350 96 342 92 q 366 184 357 138 q 381 268 374 231 q 393 353 388 305 q 400 363 400 353 q 400 373 400 370 q 399 382 399 377 q 391 401 395 387 q 380 421 388 416 q 370 375 370 405 q 371 394 370 381 q 373 419 372 406 q 374 437 374 431 q 358 489 374 468 l 315 310 q 333 385 323 345 q 347 458 342 425 q 353 521 352 491 q 339 543 345 541 l 309 436 q 326 506 319 460 q 339 570 334 552 q 380 467 363 507 q 417 383 397 426 q 463 296 438 340 q 518 207 488 252 q 492 295 517 241 q 461 371 467 350 q 488 307 469 355 q 526 231 507 259 q 536 244 533 235 q 541 264 538 254 q 549 282 543 275 l 488 428 q 549 298 509 368 q 554 311 549 305 q 564 325 558 317 l 564 318 q 544 211 564 278 q 521 119 524 144 l 533 109 q 553 152 541 123 q 572 198 566 181 q 590 242 578 215 q 610 282 602 269 q 585 218 598 256 q 564 158 572 180 q 545 111 556 135 q 586 96 551 106 q 609 132 601 113 q 629 189 617 152 q 648 241 640 226 q 656 233 656 239 q 655 226 656 229 q 654 219 655 223 q 653 210 654 215 q 652 201 652 205 q 642 152 652 182 q 632 104 632 121 q 646 74 632 82 q 684 65 660 65 l 689 68 q 707 58 692 61 q 724 54 722 55 q 739 83 732 66 q 751 122 745 101 q 744 102 747 115 q 740 79 742 90 q 732 57 738 67 q 758 49 741 49 l 778 49 q 808 136 787 76 q 838 221 829 197 q 859 289 846 245 q 876 371 871 332 q 854 439 865 409 l 835 399 q 854 453 854 418 q 845 520 854 478 q 835 585 835 562 l 835 597 q 881 426 850 517 q 940 269 912 334 q 1031 65 968 203 q 1054 79 1053 65 q 1023 155 1038 119 q 1000 212 1008 191 q 985 260 992 233 q 1025 153 1008 199 q 1053 77 1042 107 q 1063 72 1057 72 q 1088 85 1070 72 q 1060 155 1074 119 q 1038 216 1046 190 q 1026 268 1029 243 q 1051 198 1038 246 q 1072 128 1065 149 q 1096 85 1079 107 q 1120 109 1120 85 q 1119 130 1120 122 q 1118 149 1119 138 l 1099 233 l 1109 233 q 1137 164 1114 205 q 1164 111 1159 123 q 1171 110 1166 110 q 1194 118 1179 110 q 1213 126 1209 125 q 1201 175 1209 150 q 1183 231 1193 200 q 1195 197 1187 220 q 1207 160 1202 174 q 1223 134 1213 146 q 1235 137 1230 134 q 1245 144 1240 140 q 1255 153 1249 148 q 1205 270 1222 226 q 1175 364 1188 315 q 1220 238 1190 317 q 1263 158 1250 158 q 1279 166 1268 158 q 1291 180 1291 174 l 1289 192 q 1192 403 1233 296 q 1122 626 1152 511 q 1076 847 1093 741 q 1042 1096 1058 952 l 1021 1108 q 1009 1099 1011 1107 q 1004 1084 1006 1092 q 991 1097 999 1088 q 975 1105 983 1105 q 965 1104 970 1105 l 961 1078 q 962 1084 962 1081 q 962 1092 962 1087 q 954 1101 962 1101 q 936 1086 941 1101 q 920 1067 930 1072 l 920 1057 q 916 1049 920 1053 q 909 1046 912 1046 l 900 1047 l 873 1084 q 872 1069 872 1080 q 879 1028 872 1058 q 885 985 885 999 q 872 1042 878 1005 q 865 1082 866 1080 q 859 1083 863 1083 q 840 1076 852 1083 q 819 1069 827 1069 q 832 975 825 1026 q 843 895 840 924 l 819 1050 q 803 1063 813 1063 q 792 1049 795 1063 q 789 1026 789 1036 q 796 952 789 998 q 806 882 803 905 q 785 844 785 869 q 791 809 785 833 q 798 779 797 785 l 789 779 l 790 782 q 786 791 790 787 q 765 730 774 766 q 749 657 755 693 q 734 581 743 622 q 752 667 737 608 q 772 753 766 726 q 778 812 778 779 q 771 871 778 840 q 779 905 779 887 q 771 940 779 926 q 748 846 760 909 q 732 768 735 784 q 755 874 740 800 q 771 970 771 948 q 767 1004 771 984 q 762 1036 764 1023 l 754 1036 q 722 860 739 940 q 688 713 705 781 q 646 561 671 646 q 591 401 620 475 l 583 401 q 587 425 587 414 q 571 481 587 447 q 553 526 555 515 q 568 489 562 516 q 586 450 574 462 q 596 476 588 458 q 604 504 604 493 q 602 522 604 513 q 595 541 600 530 q 588 561 591 552 q 583 581 585 570 q 603 532 595 544 q 616 561 616 541 q 614 581 616 570 q 579 702 595 631 q 553 823 564 772 q 528 931 543 873 q 488 1039 512 988 q 475 1074 483 1050 q 461 1107 468 1097 q 437 1092 452 1105 q 412 1079 422 1079 q 408 1080 411 1079 q 404 1082 406 1082 q 393 1104 404 1093 l 342 1093 l 347 1050 l 328 1047 q 309 1116 310 1097 l 407 1132 q 421 1125 414 1125 q 453 1141 432 1125 q 484 1157 475 1157 q 507 1114 492 1157 q 526 1050 522 1071 m 968 1050 l 965 1069 q 968 1050 968 1064 m 538 676 q 516 728 522 705 q 498 814 511 751 q 474 910 485 877 q 444 971 464 943 l 422 1059 q 432 1013 425 1035 q 452 964 439 991 q 474 908 464 936 q 488 860 484 881 q 538 676 507 755 m 376 600 q 308 818 338 709 q 250 1036 277 926 q 282 937 258 1024 q 335 741 306 850 q 376 600 364 632 m 991 957 q 985 931 991 940 q 961 909 978 922 l 951 908 q 914 922 928 908 q 900 958 900 935 q 913 987 900 973 q 940 1002 926 1002 q 977 990 962 1002 q 991 957 991 979 m 492 635 q 444 732 460 694 q 418 814 427 770 q 395 874 414 833 q 372 936 375 914 q 399 914 391 936 q 422 853 413 884 q 441 787 431 823 q 464 708 450 751 q 492 635 478 664 m 472 509 q 465 511 467 509 q 463 519 463 514 q 461 526 462 524 q 450 559 457 541 q 431 605 443 578 q 411 654 420 632 q 330 917 370 769 q 350 863 343 886 q 367 797 356 840 q 385 733 377 755 q 472 509 415 645 m 996 742 q 976 826 985 772 q 961 899 966 881 q 974 838 968 878 q 982 782 979 798 q 996 742 985 765 m 786 643 q 806 742 786 665 q 797 691 804 724 q 786 643 789 659 m 293 589 q 309 672 296 637 l 293 589 m 648 439 q 674 529 663 490 q 695 603 686 567 q 713 669 705 638 q 686 550 701 609 q 648 439 670 491 m 1018 608 l 1038 543 l 1018 608 m 786 478 q 800 519 790 492 q 814 566 809 546 q 819 604 819 586 l 821 590 q 817 566 821 578 q 808 539 814 553 q 794 507 802 524 q 786 478 787 490 m 387 581 l 385 578 l 380 591 l 387 581 m 1109 375 q 1107 351 1107 359 q 1121 291 1107 329 q 1137 233 1136 254 q 1123 276 1134 247 q 1108 319 1113 304 q 1104 351 1104 334 q 1107 375 1104 359 q 1078 418 1089 393 q 1056 478 1066 443 q 1042 526 1046 513 q 1109 375 1061 439 m 979 421 l 954 504 q 979 421 977 460 m 572 355 q 554 392 562 372 q 540 430 546 412 q 526 475 534 448 q 549 412 531 451 q 572 355 567 374 m 228 317 q 239 367 232 334 q 252 421 246 399 q 265 464 257 444 l 228 317 m 686 279 l 686 260 q 685 273 685 265 q 699 314 685 288 q 713 355 712 340 q 722 378 720 365 q 727 409 725 392 q 734 439 729 427 q 715 349 725 385 q 686 279 705 313 m 1022 282 q 1007 318 1013 298 q 995 368 1001 338 q 985 410 988 397 q 996 365 989 395 q 1008 318 1004 335 q 1022 282 1013 301 m 732 294 l 732 300 q 743 342 732 315 q 754 386 753 370 l 755 380 q 744 335 755 363 q 732 294 732 307 m 819 345 l 831 386 l 823 347 l 819 345 m 366 367 l 358 321 l 366 367 m 1068 367 l 1072 339 l 1068 367 m 640 314 l 643 334 l 643 317 l 640 314 m 637 306 l 625 260 l 637 306 m 289 288 l 285 264 l 289 288 m 789 165 q 741 140 776 140 l 728 142 q 701 186 701 163 q 706 205 701 192 q 711 225 711 218 q 706 251 711 234 q 701 273 701 268 l 701 282 q 723 266 713 277 q 745 243 734 254 q 771 225 757 231 q 789 165 789 218 m 1166 279 l 1175 253 l 1166 279 m 599 171 l 621 249 q 599 171 613 204 m 250 138 q 258 171 252 155 q 269 204 264 187 q 277 236 275 222 q 250 138 274 220 m 660 157 l 659 161 q 668 195 659 171 q 677 233 677 220 q 675 210 677 221 q 668 187 672 199 q 660 157 665 176 z "},"N":{"ha":1007,"x_min":24,"x_max":982,"o":"m 380 1109 l 441 1109 q 450 1062 444 1100 q 463 998 455 1024 q 486 952 471 972 q 528 922 501 932 q 559 875 549 904 q 582 812 570 846 q 612 758 594 778 q 627 936 616 817 q 644 1122 638 1056 q 799 1096 694 1104 l 812 1107 q 971 1122 880 1107 q 982 1082 982 1105 q 981 1059 982 1074 q 978 1028 979 1044 q 975 1004 976 1013 q 957 830 964 901 q 944 690 949 760 q 939 542 939 620 q 900 608 907 565 l 916 616 q 920 722 918 650 q 926 863 923 793 q 936 991 929 932 q 951 1088 943 1050 q 928 1083 938 1083 q 919 1084 923 1084 q 911 1084 916 1084 q 903 1065 903 1084 q 904 1040 903 1052 q 904 996 904 1027 l 896 996 q 892 1042 892 1011 q 879 1079 892 1068 q 848 1076 860 1076 q 812 965 822 1020 l 810 965 q 806 1021 806 983 q 793 1068 806 1053 q 758 1064 777 1064 q 720 1067 751 1064 q 668 1071 688 1071 q 660 885 660 1010 q 644 733 660 794 q 642 707 642 717 q 649 671 642 686 q 672 631 656 655 q 692 597 687 608 q 571 775 608 711 q 547 822 556 802 q 528 856 537 842 q 506 880 519 870 q 478 901 494 889 q 456 922 463 912 q 355 1096 393 1010 q 343 1107 348 1107 q 328 1099 338 1107 q 311 1090 317 1092 q 380 974 355 1032 l 311 1082 q 281 1088 307 1088 l 272 1079 q 283 1064 275 1072 q 298 1048 292 1055 q 304 1032 304 1040 l 300 1021 l 288 1021 l 283 1029 l 275 1023 l 275 1015 q 241 1031 253 1018 q 214 1070 229 1044 q 184 1107 198 1096 l 174 1096 l 216 1029 l 170 1096 q 154 1078 154 1086 q 159 1066 154 1074 q 169 1053 164 1058 q 177 1042 173 1048 q 182 1029 182 1036 q 201 1004 193 1019 q 221 965 210 988 q 188 1019 213 977 q 143 1076 163 1061 q 125 1065 140 1072 q 110 1053 110 1058 l 110 1043 q 361 667 221 907 q 295 771 332 711 q 232 871 258 831 q 170 963 207 911 q 98 1051 132 1015 l 87 1043 q 130 972 104 1011 q 181 893 155 932 q 229 815 207 854 q 264 745 252 776 q 241 768 253 749 q 225 791 229 787 q 228 691 227 758 q 229 589 229 623 q 225 705 225 627 q 217 790 225 755 q 184 851 209 825 q 197 656 197 713 q 189 557 197 597 q 197 640 197 598 q 186 765 197 686 q 174 875 175 845 l 157 890 q 165 699 165 798 q 157 539 165 616 q 138 402 149 463 q 106 236 127 341 q 79 102 85 132 q 92 93 83 93 q 110 94 104 93 q 142 194 131 142 q 163 313 153 246 q 158 257 163 288 q 147 204 153 227 q 133 152 142 182 q 115 94 123 121 q 133 87 122 94 q 150 81 144 81 l 157 82 q 171 104 168 93 q 175 136 174 115 q 182 168 177 157 l 165 82 q 216 54 182 59 q 240 110 233 79 q 250 173 248 140 q 252 248 252 205 q 264 307 252 283 l 272 307 q 253 220 253 277 l 253 179 q 236 94 253 134 q 231 70 232 86 q 229 50 230 54 q 240 47 234 50 q 253 44 247 45 q 264 43 260 43 q 285 119 275 79 q 296 191 296 159 q 292 232 296 212 l 302 267 q 298 184 298 240 q 294 143 298 165 q 283 92 290 121 q 272 47 275 62 q 284 42 277 46 q 297 39 292 39 q 307 43 303 39 q 326 107 317 77 q 339 163 334 138 q 345 220 345 189 q 342 260 345 245 q 346 224 346 241 q 339 165 346 197 q 326 101 333 133 q 319 43 319 68 q 330 47 326 43 q 335 54 334 52 q 364 189 351 116 q 386 332 377 262 q 400 471 394 403 q 380 513 398 476 q 355 566 363 549 q 347 538 347 551 l 346 547 q 342 597 346 581 l 347 600 q 423 474 378 552 q 500 334 468 395 q 569 200 532 273 q 637 58 605 127 q 652 66 639 60 q 665 79 665 73 q 634 151 665 86 q 565 287 602 216 q 492 425 528 358 q 447 505 456 492 q 508 410 479 463 q 565 297 538 356 q 619 178 592 237 q 668 78 646 119 q 683 88 677 85 q 696 97 688 91 q 681 168 695 133 q 644 243 667 203 q 662 215 650 235 q 688 184 674 194 q 661 251 684 209 q 633 313 637 293 q 682 242 654 290 q 727 169 709 195 q 771 125 745 143 l 793 129 q 778 171 791 146 q 760 212 765 196 q 777 181 764 207 q 797 145 789 155 q 818 129 804 134 q 818 118 818 122 q 817 109 817 114 q 823 93 817 93 q 833 94 829 94 q 846 94 838 94 q 848 146 848 111 l 848 157 l 857 86 l 876 86 q 882 111 882 97 q 879 138 882 121 q 876 163 876 155 q 907 207 876 194 q 887 274 906 232 q 868 318 868 316 l 868 439 q 873 380 873 418 q 878 317 873 342 q 900 273 883 292 l 896 486 q 879 511 879 488 q 885 550 879 526 l 888 553 q 903 526 896 548 q 928 503 910 504 q 933 434 928 473 q 940 363 937 395 q 943 301 943 332 q 939 232 943 263 q 925 244 930 233 q 916 260 920 256 l 914 250 q 921 223 914 241 q 928 196 928 205 l 939 207 l 947 54 q 909 43 931 43 q 871 48 895 43 q 829 54 846 54 q 782 31 798 54 l 707 31 q 612 0 642 31 q 557 134 583 78 q 505 246 532 189 q 433 387 477 303 q 410 263 420 340 q 392 123 400 186 q 367 11 383 61 q 296 15 328 13 q 212 20 264 17 q 150 39 203 20 q 73 64 96 57 q 24 75 50 72 q 96 410 71 247 q 121 734 121 573 q 110 937 121 847 q 81 975 100 950 q 49 1019 61 1000 q 29 1060 37 1037 q 114 1104 77 1085 q 174 1143 150 1122 q 219 1096 195 1131 q 256 1048 243 1061 q 257 1057 257 1051 q 254 1070 257 1065 q 246 1081 250 1076 q 237 1094 241 1086 q 232 1109 232 1101 q 258 1103 245 1103 q 284 1111 272 1103 q 313 1133 297 1118 q 335 1153 328 1148 q 349 1157 341 1157 q 369 1142 361 1157 q 380 1109 377 1126 m 419 1079 l 406 1079 l 425 1051 l 419 1079 m 260 1048 l 275 1029 l 260 1048 m 860 970 l 865 970 l 865 1029 l 860 1029 l 860 970 m 771 974 l 774 1023 q 775 1011 774 1017 q 775 996 775 1005 q 771 974 775 984 m 253 939 q 268 903 253 912 q 302 886 283 886 q 335 902 321 886 q 349 937 349 918 q 335 971 349 959 q 298 983 321 983 q 265 971 277 983 q 253 939 253 959 m 732 970 q 716 918 731 943 q 686 864 702 893 q 668 812 669 836 q 690 863 670 833 q 715 907 711 892 l 720 907 q 733 961 733 949 l 732 970 m 507 742 q 355 965 418 861 l 507 742 m 765 965 q 758 931 762 954 q 749 894 753 909 q 734 867 744 879 q 679 696 679 794 q 688 656 679 661 q 684 689 684 672 q 693 761 684 729 q 723 832 703 792 q 751 898 742 872 q 765 965 761 924 m 857 950 q 854 928 854 937 q 892 843 854 894 q 874 873 884 858 q 860 903 865 889 q 854 930 854 917 q 857 950 854 937 m 799 907 l 802 907 l 802 937 l 799 937 l 799 907 m 414 839 q 397 863 403 853 q 383 889 391 873 q 367 918 374 905 q 389 885 368 916 q 414 839 410 854 m 799 895 q 793 871 793 886 q 804 837 793 854 q 827 803 815 819 q 848 768 840 787 q 856 724 856 750 q 841 652 856 690 q 812 576 827 614 q 798 504 798 538 l 799 494 q 807 546 799 521 q 829 606 814 572 q 852 665 844 640 q 860 717 860 689 q 848 781 860 762 q 814 824 837 800 q 791 868 791 848 q 799 895 791 882 m 350 890 q 511 639 393 827 q 452 746 484 695 q 355 890 420 797 l 350 890 m 762 812 q 728 770 745 800 q 710 720 710 740 q 721 672 710 701 q 734 631 732 643 q 748 613 741 628 q 764 597 755 597 q 774 600 768 597 q 787 651 781 625 q 799 704 794 677 q 803 751 803 730 q 802 781 803 771 q 762 812 793 798 m 760 800 q 730 753 741 774 q 720 710 720 732 q 736 650 720 688 q 771 608 753 612 q 799 778 794 673 q 785 794 793 786 q 768 803 777 803 q 760 800 765 803 m 760 758 q 743 718 743 745 q 754 659 743 709 q 771 726 771 681 l 771 737 q 767 749 768 739 q 760 758 766 758 m 760 745 q 750 708 750 733 q 754 672 750 690 q 760 696 754 679 q 766 725 766 714 q 760 745 766 736 m 268 725 q 277 616 277 682 q 268 503 277 547 q 277 600 277 541 q 272 697 277 652 l 283 705 q 279 714 281 709 q 275 722 277 720 q 268 725 273 725 m 743 578 l 741 514 l 743 578 m 342 490 l 347 490 l 347 514 l 342 514 l 342 490 m 618 463 q 660 383 630 430 q 699 318 690 336 l 699 326 q 653 401 684 348 q 618 463 623 454 m 799 463 l 793 439 q 788 444 791 441 q 785 452 785 448 l 774 452 q 809 391 788 437 q 852 332 829 346 q 842 369 850 342 q 832 412 834 395 l 833 400 q 829 387 833 395 q 816 404 823 395 q 804 423 809 413 q 799 443 799 433 l 802 443 l 802 458 q 799 463 802 463 m 528 460 l 534 443 l 528 460 m 593 326 q 570 375 586 345 q 547 424 554 405 q 562 395 549 418 q 581 356 574 372 q 593 326 588 340 m 690 275 q 739 231 690 231 q 771 243 760 231 q 783 278 783 256 q 770 311 783 299 q 736 322 757 322 q 702 309 714 322 q 690 275 690 296 m 840 160 q 817 197 832 171 q 793 232 801 222 l 840 160 m 924 196 l 885 168 q 885 136 885 145 q 884 115 884 126 q 904 86 884 90 q 913 122 913 98 q 912 136 913 127 q 911 150 911 144 q 924 196 911 182 m 696 172 q 714 122 699 157 q 734 69 728 87 l 734 78 q 716 133 734 100 q 696 172 699 165 m 804 114 q 801 108 802 111 q 797 103 799 104 q 790 102 795 102 l 793 75 q 810 97 810 75 q 804 114 810 106 m 771 106 q 762 90 762 104 l 762 66 l 779 66 l 779 72 q 771 106 779 100 m 751 90 l 751 66 q 755 82 755 71 l 751 90 z "},"O":{"ha":892,"x_min":22,"x_max":871,"o":"m 498 1022 q 480 1018 489 1022 q 459 1006 472 1015 q 440 994 447 998 q 450 991 444 991 q 467 999 456 991 q 485 1006 477 1006 q 501 994 495 1006 l 500 1006 l 504 1015 q 597 947 558 1000 q 648 831 635 894 q 630 888 645 855 q 595 951 616 921 q 550 1002 575 981 q 498 1022 524 1022 m 351 87 l 354 92 q 322 109 346 95 l 351 87 m 229 229 q 322 109 249 156 q 229 229 245 167 m 232 151 q 167 252 200 190 q 232 151 190 200 m 289 87 q 232 151 250 128 q 289 87 254 120 m 637 288 l 619 269 q 637 288 633 277 m 343 118 l 343 111 l 349 111 l 354 92 l 363 87 q 515 200 400 111 q 363 111 418 155 q 343 118 357 118 m 589 269 q 574 275 580 275 q 561 272 568 275 q 548 262 555 269 q 533 252 541 256 q 529 232 529 243 q 557 184 529 202 q 592 188 582 186 q 612 200 603 189 q 615 215 613 207 q 618 232 618 224 q 612 252 618 239 q 606 258 610 252 q 598 267 601 264 q 589 269 595 269 m 660 802 l 657 802 l 657 751 l 660 751 l 660 802 m 602 551 q 586 668 602 605 q 542 785 571 732 q 469 868 513 839 q 483 877 473 873 q 496 884 492 881 q 563 821 537 866 q 593 730 589 777 q 569 816 592 775 q 507 886 545 857 l 532 893 l 542 889 l 545 901 q 575 876 565 892 q 592 838 586 859 q 607 793 599 817 q 595 833 602 806 q 579 877 589 861 q 551 904 570 894 q 530 922 535 913 q 520 951 526 932 q 507 979 515 970 q 504 964 504 974 q 505 955 504 960 q 508 942 506 950 q 511 930 511 933 q 494 905 508 913 q 456 885 481 896 q 422 864 431 874 q 346 816 380 864 q 294 703 312 768 q 275 599 275 638 q 283 506 275 552 q 306 412 291 459 q 340 322 321 366 q 361 295 348 316 q 386 265 375 275 q 415 256 396 256 q 399 239 411 249 q 385 220 387 229 q 411 237 395 224 q 439 259 427 250 q 463 269 451 267 q 519 337 494 307 q 563 397 545 367 q 591 465 581 427 q 602 551 602 502 m 435 307 q 350 410 381 307 q 318 585 318 512 q 425 833 318 755 q 439 836 433 836 q 472 822 459 836 q 499 781 486 808 q 519 746 512 753 q 553 574 553 670 q 539 472 553 536 q 498 357 525 408 q 435 307 471 307 m 122 637 q 114 576 114 614 l 114 504 l 132 489 q 125 450 125 469 q 138 393 125 419 q 129 449 129 422 q 138 489 129 472 q 117 562 117 519 q 118 586 117 571 q 120 613 119 600 q 122 637 121 625 m 301 269 q 285 304 288 298 q 301 269 288 298 m 351 207 l 350 205 l 351 207 m 301 269 q 351 207 324 231 l 359 214 q 301 269 328 227 m 425 953 l 433 960 q 402 989 429 966 q 370 1031 376 1012 q 354 1035 364 1031 q 336 1039 345 1039 q 322 1035 334 1039 q 300 993 300 1029 l 300 975 q 335 949 313 949 q 366 956 345 949 q 399 962 387 962 q 425 953 415 962 m 249 764 q 314 877 274 839 q 431 949 353 915 l 425 953 q 398 944 411 952 q 371 924 386 935 q 343 909 356 913 q 249 764 264 840 m 269 873 q 300 909 290 899 q 269 873 281 890 m 269 222 q 286 195 277 206 q 307 171 295 184 q 334 140 319 158 l 338 143 q 329 167 329 153 q 350 205 329 187 l 311 187 q 317 178 311 183 q 322 168 322 172 q 319 163 322 165 q 269 222 291 186 m 199 707 q 269 873 227 817 q 199 707 213 801 m 249 425 l 243 437 l 249 419 l 249 425 m 267 351 l 267 349 q 275 334 267 338 q 267 346 267 338 l 267 351 m 689 546 l 694 545 q 727 569 712 545 q 742 614 742 594 q 737 596 741 608 q 733 582 733 585 q 724 569 730 578 q 711 555 717 560 q 697 550 705 550 q 693 551 695 551 q 689 551 692 551 l 686 604 q 682 575 682 590 q 689 546 682 556 m 739 469 q 745 480 741 473 q 751 492 749 487 q 756 501 754 497 q 761 511 758 505 q 704 449 737 472 l 701 452 q 697 422 701 437 q 739 469 713 455 m 742 745 q 729 830 742 790 q 684 946 715 870 q 709 880 696 915 q 729 814 722 846 q 737 751 737 782 q 733 713 737 731 q 749 715 745 715 q 791 629 791 715 q 782 564 791 600 q 794 637 794 599 q 785 697 794 686 q 759 715 776 708 q 742 745 742 722 m 761 511 q 782 564 776 535 q 761 511 772 532 m 676 371 l 652 329 q 676 371 662 341 m 676 371 q 697 422 692 401 q 685 394 693 414 q 676 371 677 373 m 770 403 q 775 443 772 414 q 768 415 768 429 q 770 403 768 407 m 742 322 l 713 278 q 733 300 726 291 q 742 322 741 310 m 807 519 l 808 514 q 775 456 808 486 l 775 443 q 790 466 781 454 q 804 489 799 479 q 808 510 808 500 l 807 519 m 606 1120 q 559 1101 574 1120 q 536 1107 548 1104 q 515 1116 524 1110 l 478 1121 q 449 1157 473 1157 q 402 1144 433 1157 q 354 1132 372 1132 q 329 1139 340 1132 q 158 1013 227 1099 q 56 815 89 926 q 22 593 22 705 q 32 451 22 520 q 61 304 41 382 q 121 177 77 243 q 222 63 164 111 q 340 0 280 15 q 397 -4 358 -4 q 486 14 446 -4 l 489 5 q 505 4 494 4 q 539 10 521 4 q 593 29 558 16 q 755 154 693 66 q 844 349 818 241 q 871 571 871 457 q 859 726 871 648 q 820 880 848 804 q 745 1019 793 956 q 633 1116 698 1082 q 606 1120 627 1120 m 538 56 q 534 66 536 58 q 525 77 532 75 q 503 68 515 75 q 476 50 491 61 q 451 32 461 38 q 428 25 440 25 q 389 56 408 25 q 417 85 399 66 q 449 118 435 105 l 444 122 q 367 61 391 92 l 370 52 q 326 67 351 52 q 289 85 301 83 q 315 64 302 71 q 355 44 329 56 q 389 25 381 31 q 358 30 372 26 q 335 35 345 33 q 314 40 326 37 q 173 184 229 96 q 89 374 116 271 q 61 581 61 477 q 78 742 61 665 q 129 886 95 819 q 217 1010 163 953 q 340 1109 270 1067 q 361 1105 351 1105 q 404 1116 377 1105 q 444 1128 430 1126 q 456 1091 448 1115 q 467 1046 464 1067 q 449 1038 458 1044 q 431 1026 439 1033 q 415 1013 423 1019 l 419 1010 q 451 1025 429 1017 q 485 1043 472 1034 q 497 1067 497 1053 q 493 1086 497 1077 q 557 1066 531 1076 q 602 1039 583 1056 q 608 1048 608 1042 q 602 1063 608 1054 q 596 1079 596 1072 l 604 1071 l 607 1083 q 693 1035 660 1069 q 745 959 726 1001 q 787 851 764 918 q 823 757 810 784 q 832 578 832 671 q 813 384 832 480 q 746 208 794 288 q 615 87 698 127 q 591 76 607 83 q 562 62 576 68 q 538 56 549 56 m 677 846 l 686 819 l 686 831 l 677 846 m 771 396 l 770 403 q 745 329 763 374 q 753 345 751 338 q 761 367 756 353 q 771 396 766 381 m 733 637 q 723 628 732 636 q 714 612 714 619 l 715 607 q 720 618 718 612 q 724 628 722 625 q 732 632 727 632 l 739 631 l 741 625 l 739 637 l 733 637 m 653 571 l 653 564 q 664 522 653 542 q 653 571 655 548 m 770 612 q 766 631 770 622 q 741 547 766 581 q 677 501 716 513 q 664 522 671 509 q 675 496 667 511 q 742 538 715 505 q 770 612 770 572 m 703 700 q 684 673 691 688 q 669 639 677 657 q 652 611 661 621 l 652 595 l 653 571 q 661 612 654 593 q 682 657 669 631 q 703 700 694 682 m 704 758 l 704 704 q 708 729 708 717 q 704 758 708 744 m 704 704 l 703 700 l 704 701 l 704 704 m 766 631 l 766 632 l 766 631 m 704 758 q 689 812 699 792 q 697 784 692 801 q 704 758 702 768 m 686 604 l 686 607 l 686 604 m 697 642 l 686 607 q 726 660 701 652 l 742 660 q 753 652 747 660 q 766 632 764 646 q 753 664 762 652 l 743 665 q 697 642 715 665 m 741 625 l 742 614 q 741 625 742 621 z "},"P":{"ha":918,"x_min":22,"x_max":896,"o":"m 364 782 l 359 782 l 359 762 l 364 762 l 364 782 m 411 922 l 364 909 l 415 922 l 411 922 m 353 679 l 357 726 q 353 679 353 704 m 168 899 l 180 903 l 174 903 l 168 899 m 564 996 q 485 1006 530 1006 q 446 1003 471 1006 q 510 999 465 1003 q 564 996 555 996 m 404 996 q 446 1003 416 1000 q 404 996 423 1003 m 454 1090 l 437 1090 q 424 1086 432 1090 l 440 1086 q 454 1090 442 1086 m 262 886 q 260 885 261 886 q 261 886 260 885 q 262 886 262 886 m 262 886 l 262 888 l 262 886 m 222 909 q 239 914 233 909 l 236 916 q 229 913 234 916 q 222 909 224 910 m 178 953 q 194 955 186 954 q 212 957 201 956 q 178 953 195 957 m 178 953 q 110 933 138 946 q 147 942 123 934 q 178 953 170 951 m 222 909 l 215 909 l 222 909 m 579 903 q 543 909 564 905 q 571 903 557 903 l 579 903 m 585 951 l 559 953 q 585 951 568 951 m 726 852 q 734 772 734 787 q 732 730 734 742 q 741 778 741 755 q 726 852 741 812 m 599 950 q 632 936 613 936 q 653 939 640 936 q 676 942 666 942 q 700 937 688 942 q 706 933 702 935 q 711 929 709 930 q 713 922 713 927 l 720 922 q 675 966 718 966 q 626 959 657 966 q 585 951 595 952 l 599 950 m 720 993 q 699 997 716 993 q 673 1000 682 1000 q 650 993 663 1000 l 654 989 q 673 997 663 997 q 692 994 680 997 q 711 991 705 991 l 720 993 m 267 199 l 262 113 q 265 156 264 127 q 267 199 266 184 m 726 852 q 717 879 720 872 l 726 852 m 549 1019 q 564 1023 555 1023 q 581 1020 573 1023 q 597 1010 589 1016 q 616 997 605 1004 q 633 989 627 990 q 622 1025 633 1000 q 611 1071 611 1051 q 591 1098 606 1087 q 557 1108 577 1108 q 517 1065 517 1108 l 517 1047 q 549 1019 530 1019 m 628 896 l 611 903 q 628 896 621 898 m 543 909 q 520 920 532 915 q 497 926 508 926 q 543 909 511 920 m 599 930 q 673 909 648 920 q 649 920 663 914 q 627 929 635 926 q 607 932 619 932 l 599 930 m 669 868 l 633 871 q 661 865 652 865 q 669 868 664 865 m 628 896 q 676 884 662 884 q 653 891 667 888 q 628 896 640 894 m 262 888 l 265 886 q 270 888 266 886 q 279 890 275 890 l 275 892 q 262 888 271 892 m 665 785 l 685 793 q 667 811 673 796 q 657 828 662 825 q 644 823 650 823 q 632 825 640 823 q 615 827 624 826 q 603 828 607 828 q 593 835 603 828 q 580 846 584 842 q 576 856 576 850 q 579 864 576 861 q 607 857 587 862 q 638 849 626 851 q 659 847 650 847 l 661 848 q 562 874 631 852 q 454 896 493 896 q 433 882 444 896 q 412 868 422 868 q 400 871 404 868 l 400 860 l 406 860 q 418 858 411 860 q 427 856 425 856 q 428 819 428 844 q 424 738 428 787 q 419 663 419 689 l 419 637 q 422 675 422 648 q 431 699 422 690 l 439 692 l 439 591 q 435 543 439 566 q 444 518 440 530 q 452 482 447 506 q 463 433 457 458 l 465 468 q 516 500 481 481 q 564 526 551 518 q 517 505 539 516 q 465 481 495 494 q 463 494 463 489 q 470 513 463 507 q 496 526 477 518 q 521 543 514 534 q 504 534 513 538 q 487 525 496 529 q 469 519 477 521 q 467 524 468 522 q 465 528 465 526 q 469 537 465 530 q 473 547 473 544 q 548 610 517 570 q 592 700 578 650 q 607 808 607 750 l 611 808 q 631 745 631 783 q 591 629 631 688 q 635 758 633 680 q 631 804 635 781 l 633 802 q 664 785 653 802 q 675 749 675 768 q 672 726 675 735 q 663 699 669 718 q 654 672 656 681 q 676 747 676 720 q 665 785 676 770 m 478 590 q 473 671 473 627 q 476 751 473 714 q 486 844 479 787 q 564 789 532 844 q 541 681 564 733 q 478 590 517 629 m 669 644 q 682 663 677 652 l 669 644 m 697 804 q 704 789 702 798 l 704 793 l 697 804 m 704 789 l 705 761 q 682 663 705 701 q 705 702 699 687 q 710 747 710 718 q 704 789 710 768 m 614 579 q 592 555 604 566 q 564 526 581 544 q 614 579 600 551 m 272 922 l 267 922 l 272 922 m 799 676 l 800 688 l 794 676 l 799 676 m 800 688 q 803 704 803 692 l 800 688 m 790 1051 q 762 1078 785 1055 q 723 1111 738 1100 q 681 1129 707 1121 q 507 1157 585 1157 q 399 1149 454 1157 q 273 1128 344 1142 q 151 1106 201 1114 q 49 1095 100 1097 q 44 1045 45 1078 q 36 993 43 1011 q 48 979 38 984 q 62 970 58 975 l 40 953 l 40 947 q 31 907 40 932 q 22 871 22 882 q 34 846 22 856 q 45 828 45 836 q 42 812 45 823 q 40 800 40 802 q 54 785 40 785 q 59 787 59 785 q 64 790 59 790 l 71 789 q 78 786 72 787 q 85 783 83 785 q 87 778 87 781 q 140 790 115 790 l 149 789 q 142 684 142 755 q 129 526 142 608 q 87 293 115 444 q 52 71 60 142 q 112 56 72 69 q 175 43 153 43 q 196 54 186 43 q 208 25 208 54 l 208 18 q 243 12 212 12 q 319 6 272 12 q 382 0 366 0 q 435 8 416 0 q 454 46 454 16 q 469 71 454 67 l 469 265 l 486 289 q 554 321 527 305 q 632 367 581 336 q 708 410 683 397 q 853 564 811 460 q 896 800 896 667 q 875 971 896 890 q 790 1051 854 1051 m 469 323 q 466 334 467 326 q 461 345 464 342 q 450 349 458 349 q 450 355 450 353 q 449 361 450 358 q 452 382 449 368 q 454 403 454 395 q 450 421 454 412 q 444 408 446 416 q 443 372 443 399 q 439 351 443 361 q 437 381 438 361 q 435 410 437 401 q 422 282 422 357 q 424 242 423 260 q 424 196 424 224 q 420 106 424 142 q 404 37 416 70 l 325 46 q 329 64 329 54 q 325 82 329 74 q 318 64 319 78 q 314 46 317 50 l 260 52 q 257 60 257 57 q 260 79 257 66 q 262 97 262 92 q 260 113 262 104 q 248 52 248 90 l 239 52 l 228 204 q 220 210 222 210 q 207 202 210 210 q 204 180 204 194 q 200 168 204 176 q 195 136 198 161 q 187 96 193 111 q 170 82 182 82 l 165 82 l 165 103 q 161 118 165 113 q 143 85 157 85 q 129 90 136 85 q 122 102 122 95 q 126 118 122 108 q 131 135 131 128 q 130 139 130 137 q 129 144 130 142 q 126 149 127 146 l 110 93 l 98 102 q 140 348 118 218 q 176 589 162 477 q 193 804 190 701 q 207 812 197 812 l 212 812 q 208 744 212 791 q 204 686 204 696 q 208 632 204 659 q 216 753 216 671 q 220 817 216 796 l 248 828 l 249 814 q 242 761 249 793 q 235 711 236 729 q 243 708 238 708 q 247 720 246 708 q 252 734 248 731 q 255 779 255 746 q 262 829 256 811 q 294 848 269 846 l 298 851 l 301 793 l 306 793 l 306 808 q 321 860 306 847 q 311 868 318 868 q 298 866 307 868 q 286 864 290 864 q 181 840 245 854 q 115 825 118 825 q 88 833 97 825 q 68 860 79 840 l 87 871 q 60 875 81 875 q 62 909 62 886 l 94 926 q 86 930 90 930 q 77 927 83 930 q 68 922 71 924 l 66 926 q 74 940 66 935 q 91 946 81 944 q 110 953 100 949 q 119 962 119 957 q 110 985 119 969 l 110 990 q 129 1004 110 995 q 118 1008 125 1008 q 104 1006 113 1008 q 94 1004 95 1004 q 91 1006 96 1004 q 82 1008 85 1008 l 82 1023 q 132 1029 111 1026 q 172 1037 153 1031 q 208 1051 192 1042 q 197 1054 205 1054 q 176 1049 189 1054 q 157 1043 164 1044 l 82 1036 l 87 1059 q 176 1067 133 1059 q 281 1089 220 1075 q 394 1111 343 1103 q 497 1118 446 1118 q 572 1137 538 1137 q 623 1118 606 1137 q 645 1093 628 1099 q 686 1083 661 1088 q 720 1063 710 1078 q 691 1067 710 1063 q 661 1071 672 1071 q 633 1063 646 1071 q 685 1057 662 1059 q 720 1043 708 1055 q 697 1039 709 1039 q 684 1040 690 1040 q 669 1040 678 1040 q 642 1036 657 1040 q 692 1028 656 1028 q 717 1023 701 1028 l 717 1019 q 724 1008 717 1015 q 731 1023 729 1016 q 735 1041 733 1031 q 739 1063 736 1050 q 743 1002 743 1043 q 747 957 743 971 q 758 1015 755 998 q 795 969 783 998 q 810 913 807 941 q 814 843 813 886 q 818 782 816 801 l 822 782 q 827 822 827 799 q 822 884 827 842 q 817 937 817 926 q 822 981 817 962 q 833 964 831 974 q 838 938 836 955 q 844 914 840 921 q 857 804 857 857 q 852 743 857 772 q 838 681 847 714 q 822 618 829 647 q 772 518 810 564 q 687 441 734 473 q 576 376 640 408 q 469 323 511 345 m 700 543 q 731 574 718 562 q 756 601 745 587 q 775 629 768 614 q 737 585 765 612 q 700 543 709 557 m 739 953 q 772 899 762 931 q 783 828 783 867 q 781 789 783 814 q 787 838 787 828 q 774 905 787 867 q 739 953 760 943 m 781 789 q 771 743 772 760 q 781 789 774 753 m 309 899 q 325 903 319 899 l 322 904 q 315 902 319 904 q 309 899 311 899 m 315 457 l 318 476 q 315 457 315 471 m 591 493 q 558 465 577 477 q 510 438 538 454 q 469 414 482 423 q 517 438 492 426 q 559 463 541 450 q 591 493 577 475 m 309 899 l 301 899 l 309 899 m 262 1048 l 252 1047 q 224 1025 233 1035 q 215 1000 215 1015 q 219 985 215 992 q 232 969 224 977 q 243 957 239 961 q 262 954 250 954 q 297 967 284 954 q 310 1000 310 980 q 297 1035 310 1021 q 262 1048 283 1048 m 272 922 l 273 922 q 290 926 282 922 l 285 928 q 278 925 282 928 q 272 922 275 923 m 329 90 l 334 90 l 334 104 l 329 104 l 329 90 m 469 371 l 492 385 q 469 371 471 374 m 492 385 q 501 390 496 385 l 492 385 m 379 211 q 385 267 385 248 l 385 269 l 379 211 m 315 457 l 314 446 l 301 446 q 273 392 273 435 l 273 382 q 321 355 290 355 l 334 355 q 359 379 352 368 q 366 411 366 391 q 360 425 366 420 q 341 436 355 430 q 323 447 328 443 q 315 457 317 450 m 372 113 l 379 211 q 371 136 371 161 q 372 113 371 121 z "},"Q":{"ha":878,"x_min":21,"x_max":857,"o":"m 624 583 l 624 549 l 628 549 l 628 583 l 624 583 m 621 541 l 621 521 l 624 521 l 624 541 l 621 541 m 647 807 q 650 819 650 815 q 623 885 650 848 q 570 937 596 922 q 647 807 630 896 m 493 924 q 569 849 538 894 q 612 751 599 805 q 571 853 603 805 q 493 924 538 902 m 615 514 l 612 492 l 615 496 l 615 514 m 561 997 l 561 1021 q 519 1042 547 1042 q 484 999 484 1042 q 526 960 484 960 q 553 968 545 960 q 561 997 561 977 m 153 543 l 140 533 q 122 572 122 547 q 126 593 122 583 q 122 578 122 585 q 147 530 122 535 q 158 561 158 551 l 158 568 l 153 543 m 178 681 l 182 720 q 179 696 180 705 q 178 681 178 687 m 608 467 q 594 460 602 467 q 585 454 585 454 q 575 419 575 427 q 581 401 575 409 q 598 384 592 395 q 609 353 605 372 q 615 332 614 334 q 623 359 618 338 q 637 386 628 380 q 660 424 660 401 q 646 456 660 446 q 608 467 631 467 m 570 937 q 546 951 562 943 l 570 937 m 304 1028 q 296 1019 303 1026 q 285 1008 288 1012 q 281 996 282 1004 q 293 1013 283 1003 q 304 1028 303 1023 m 656 370 q 686 467 680 412 q 656 370 682 428 m 775 471 l 778 489 l 775 471 m 775 465 l 775 471 l 775 465 m 739 349 q 775 465 767 418 q 759 410 772 452 q 739 349 745 368 m 704 383 q 734 503 734 452 q 704 383 732 460 m 704 383 l 699 368 l 700 370 l 704 383 m 679 250 q 656 280 673 264 q 633 307 640 296 q 625 321 632 321 q 616 319 622 321 q 608 317 610 317 q 596 326 601 317 l 595 325 q 601 318 595 322 q 608 310 608 313 q 634 298 623 307 q 660 273 646 289 q 679 250 673 258 m 652 163 q 641 177 646 165 q 631 191 636 188 q 652 163 633 180 m 699 368 q 689 354 689 366 l 690 349 l 699 368 m 644 113 q 617 144 630 130 q 584 184 605 159 q 555 218 563 209 q 577 185 564 202 q 612 146 591 169 q 644 113 634 123 m 382 264 q 372 262 379 262 q 359 267 366 262 q 347 277 353 271 q 336 289 342 283 q 382 257 349 262 l 382 264 m 521 310 q 500 332 516 314 q 472 360 484 351 q 446 372 460 370 q 489 341 467 367 q 521 310 512 316 m 191 429 q 177 464 190 433 q 164 511 165 495 q 168 486 164 500 q 179 455 172 473 q 191 429 187 438 m 505 433 l 521 411 q 505 433 517 422 m 728 143 l 728 146 l 647 237 l 728 143 m 785 278 q 857 667 857 414 q 842 791 857 727 q 799 920 827 856 q 731 1038 771 983 q 647 1129 692 1092 q 603 1121 629 1129 q 571 1112 576 1113 q 479 1157 549 1126 q 452 1147 457 1157 l 440 1149 q 406 1142 429 1149 q 375 1136 383 1136 q 335 1156 361 1156 q 315 1150 323 1156 q 194 1054 248 1108 q 100 934 139 1000 q 41 793 61 868 q 36 762 38 776 q 28 737 34 748 q 21 623 21 673 q 116 263 21 429 q 389 61 212 98 q 433 58 403 58 q 568 96 511 58 q 614 46 581 75 q 659 1 646 16 l 668 0 q 690 7 680 0 q 714 26 701 14 q 734 43 728 39 q 763 69 738 47 q 787 107 787 91 q 785 118 787 110 l 802 118 q 823 151 808 132 q 845 182 838 170 q 852 210 852 195 q 843 234 852 225 q 812 256 833 243 q 785 278 791 269 m 810 183 q 772 218 793 193 q 739 250 751 243 l 734 248 l 799 178 q 789 161 791 161 q 732 195 783 161 q 725 179 725 188 q 737 151 725 169 q 750 123 749 134 q 742 133 747 125 q 733 140 736 140 q 728 138 729 140 l 750 110 q 736 97 743 104 q 722 86 729 90 q 699 107 710 95 q 675 136 687 120 q 656 160 663 152 q 653 154 653 156 q 658 143 653 150 q 665 131 663 136 l 710 78 l 697 61 l 684 71 q 681 66 681 69 q 686 58 681 61 q 668 43 682 46 q 629 83 649 62 q 592 124 609 104 q 564 163 575 144 q 504 232 541 199 q 543 138 508 194 l 493 100 q 466 139 480 119 q 439 170 452 159 l 435 160 q 297 240 341 187 l 296 232 q 356 181 296 212 q 441 149 417 150 l 444 135 q 419 134 436 134 q 351 150 384 134 q 292 191 318 165 q 238 251 266 217 q 191 310 211 286 l 184 307 q 303 172 239 224 q 452 121 368 121 l 458 96 q 351 112 398 100 q 269 155 304 124 q 148 294 191 228 q 88 436 106 360 q 71 618 71 511 q 83 766 71 696 q 126 896 96 836 q 210 1006 157 956 q 257 1056 235 1032 q 303 1096 279 1080 q 354 1112 326 1112 q 300 1067 353 1107 q 205 977 248 1027 q 150 864 163 928 l 153 860 q 307 1065 177 956 q 336 1078 315 1072 q 364 1095 357 1085 q 380 1109 374 1107 q 404 1112 387 1112 l 439 1112 q 356 1078 387 1094 q 304 1031 326 1061 l 307 1028 q 383 1083 361 1069 q 441 1097 406 1097 q 456 1090 446 1090 q 482 1117 460 1117 q 518 1107 496 1117 q 550 1095 541 1097 q 561 1085 555 1088 q 575 1081 567 1082 q 591 1076 583 1079 q 611 1088 596 1088 l 637 1088 q 739 955 697 1031 q 801 796 781 880 q 821 624 821 713 q 802 453 821 547 q 750 307 783 359 q 738 312 744 307 q 728 319 731 317 q 734 329 729 322 q 739 339 739 336 q 734 345 739 342 l 722 326 l 693 345 q 689 330 689 340 l 690 326 q 812 191 738 287 l 810 183 m 679 71 q 644 113 672 82 l 679 71 m 505 433 q 456 471 486 460 l 456 479 l 458 489 q 489 474 465 486 q 528 455 513 461 q 561 449 543 449 q 591 618 591 513 q 562 788 591 717 q 456 908 532 860 q 419 927 450 913 q 375 958 388 942 q 380 965 378 961 q 386 972 382 970 q 396 975 390 975 q 414 1031 408 987 q 408 1025 410 1030 q 407 1006 407 1021 q 400 993 407 996 q 372 990 393 990 q 367 989 370 990 q 357 968 367 968 l 357 961 q 318 924 334 945 q 284 863 303 902 q 260 817 264 825 q 291 873 277 849 q 318 916 304 897 q 354 951 333 936 l 379 926 q 322 748 342 835 q 302 579 302 662 q 323 429 302 494 q 407 351 344 364 l 379 317 l 416 349 q 441 307 436 313 l 444 310 l 467 292 q 455 330 466 304 q 444 372 444 356 l 441 372 q 428 397 428 381 q 429 404 428 399 q 431 411 431 410 q 441 412 435 412 q 476 394 456 412 q 501 372 496 375 q 465 405 482 393 q 427 418 448 418 l 435 429 q 446 432 440 432 q 474 418 459 432 q 493 401 489 404 q 473 427 491 412 q 456 454 456 443 q 457 461 456 456 q 458 467 458 466 q 505 433 488 453 m 412 501 q 413 491 413 496 q 414 478 414 486 q 419 467 419 474 l 419 461 q 395 445 398 451 q 392 411 392 439 q 340 590 340 483 q 367 765 340 650 q 431 879 393 879 q 441 876 436 879 q 508 816 481 863 q 547 712 534 769 q 559 610 559 655 q 536 471 559 534 q 482 512 499 500 q 443 524 465 524 q 412 501 412 524 m 444 372 l 446 372 l 444 372 m 200 612 q 186 641 197 621 q 175 675 176 661 l 175 665 q 179 648 175 656 q 190 629 183 639 q 200 612 197 619 m 178 550 q 164 514 164 534 l 164 511 q 175 541 166 530 l 178 550 m 200 612 q 204 583 204 598 q 200 612 204 604 m 147 632 q 155 661 155 644 q 154 682 155 668 q 153 703 153 696 q 149 676 150 692 q 146 649 149 661 q 136 628 143 636 q 169 596 159 610 q 178 550 178 581 q 180 567 180 553 q 172 598 180 584 q 147 632 163 612 m 410 1059 l 411 1059 l 410 1059 m 204 583 q 199 562 203 578 q 195 538 195 547 q 213 467 195 511 q 235 408 231 422 q 215 464 232 425 q 199 525 199 503 q 200 543 199 531 q 202 564 201 554 q 204 583 203 574 m 410 1059 q 321 996 362 1038 q 253 901 280 955 q 293 962 272 940 q 353 1012 314 983 q 410 1059 391 1041 m 441 1071 q 411 1059 416 1061 q 426 1063 414 1061 q 441 1071 439 1065 m 325 257 q 347 237 329 245 q 372 222 366 228 l 376 224 q 401 210 388 224 q 424 195 415 197 q 479 254 433 208 q 459 250 468 254 q 438 234 451 245 q 416 218 425 222 q 325 257 357 223 z "},"R":{"ha":940,"x_min":22,"x_max":918,"o":"m 746 686 l 745 677 l 746 686 m 704 831 l 711 815 q 726 810 718 815 q 737 804 734 805 q 722 821 736 814 q 704 831 707 827 m 745 677 q 730 647 743 670 q 745 677 740 660 m 165 328 l 161 288 q 164 303 162 294 q 167 318 167 311 l 165 328 m 746 690 l 746 686 l 746 690 m 496 983 q 437 991 475 991 q 496 983 475 991 m 720 836 q 727 887 720 851 q 734 943 734 922 q 714 965 728 957 q 685 974 701 974 q 656 963 668 974 q 644 935 644 951 q 656 897 644 920 q 720 836 696 886 m 161 288 q 158 267 158 281 l 161 288 m 437 991 l 406 993 l 437 991 m 624 868 q 591 881 604 876 q 561 891 578 886 q 533 897 544 897 q 556 892 545 896 q 591 880 568 889 q 624 868 614 871 m 711 673 l 717 676 l 717 700 l 711 673 m 746 700 l 746 690 l 746 700 m 606 636 q 633 685 625 664 q 624 669 629 677 q 615 652 619 661 q 606 636 610 643 m 624 386 l 624 389 l 611 407 l 624 386 m 574 607 q 606 636 591 614 q 574 607 586 614 m 603 572 q 630 597 619 582 q 656 639 640 613 q 627 603 650 631 q 603 572 605 576 m 818 714 l 812 714 l 812 700 l 818 700 l 818 714 m 736 568 l 728 555 l 736 568 m 660 543 q 671 557 671 551 q 663 547 666 557 l 660 543 l 660 542 l 660 543 m 781 639 q 773 630 774 639 q 764 621 772 621 q 736 568 756 600 q 762 604 749 585 q 781 639 776 623 m 717 530 q 728 555 719 542 l 711 530 l 717 530 m 781 685 l 775 671 l 781 673 l 781 685 m 724 509 q 742 527 734 512 q 757 546 749 543 q 740 528 747 545 q 724 509 732 512 m 496 983 q 502 980 500 981 q 507 977 504 979 q 502 980 504 979 q 496 983 500 981 m 345 1075 l 343 1074 l 358 1075 l 345 1075 m 433 453 q 472 456 460 453 q 433 453 452 456 m 358 1075 l 439 1075 q 406 1076 428 1076 q 358 1075 374 1076 m 386 1040 l 382 1038 l 461 1040 l 386 1040 m 412 453 l 433 453 l 412 453 m 631 325 l 591 400 q 602 375 595 389 q 615 351 608 361 q 631 325 621 341 m 631 325 l 637 314 l 631 325 m 734 427 q 830 574 793 494 q 867 733 867 653 q 836 860 867 803 q 832 888 836 872 q 824 913 828 903 q 810 950 820 924 q 719 1066 782 1025 q 576 1122 655 1107 q 404 1136 497 1136 q 330 1135 354 1136 q 288 1157 314 1157 q 258 1141 269 1157 l 132 1135 q 99 1113 121 1118 q 55 1103 77 1108 q 22 1082 33 1099 q 38 1020 32 1055 q 47 955 44 985 q 53 880 50 925 q 57 812 56 836 q 89 821 68 821 l 113 819 q 118 661 118 749 q 31 102 118 347 q 98 90 52 96 q 173 76 144 85 q 222 43 202 66 q 299 27 256 37 q 375 14 342 18 q 378 89 375 16 q 383 197 381 161 q 389 277 385 234 q 417 290 401 287 q 463 295 433 293 q 496 298 493 298 q 519 232 509 264 q 539 167 529 199 q 564 86 549 135 q 591 0 579 37 q 696 40 603 5 q 849 103 790 75 q 918 157 908 131 q 850 253 883 204 q 790 342 817 302 q 734 427 764 382 m 86 950 q 83 965 86 955 q 81 979 81 975 q 89 987 81 987 q 102 985 95 987 q 97 977 97 981 q 98 970 97 974 q 101 962 100 966 q 102 956 102 958 q 90 950 98 950 l 86 950 m 102 943 q 106 925 106 937 l 104 905 q 97 901 102 901 l 86 903 q 86 918 86 911 q 85 930 85 924 q 94 943 85 943 l 102 943 m 90 876 q 86 886 86 878 l 86 892 q 96 893 90 892 q 106 895 102 895 q 113 892 110 895 q 90 876 111 879 m 839 134 q 831 151 836 137 q 818 168 826 164 l 817 163 q 822 147 817 156 q 828 131 827 138 q 813 121 825 128 q 794 107 801 115 q 780 113 784 107 q 766 135 775 118 q 749 157 756 153 l 749 154 q 761 127 749 145 q 772 100 772 109 q 746 89 772 89 q 664 228 697 148 q 644 242 650 231 q 624 279 637 252 q 600 314 610 306 l 600 296 q 613 274 607 285 q 627 248 618 262 q 637 230 635 233 q 653 208 639 228 q 683 159 665 194 q 717 86 701 123 l 690 69 q 682 92 686 77 q 671 119 677 106 q 660 142 666 132 q 659 132 659 139 q 667 105 659 123 q 676 77 676 87 q 660 60 676 62 q 616 182 635 130 q 574 272 598 233 l 570 269 q 597 205 586 239 q 622 126 608 172 q 647 56 636 80 l 627 43 q 585 166 606 100 q 552 265 563 233 q 524 345 542 298 q 484 435 505 393 q 429 427 471 427 q 406 424 412 427 q 452 419 412 419 q 479 404 473 419 q 454 393 469 393 q 444 394 450 393 q 434 396 438 395 q 426 397 429 397 q 416 397 422 397 q 397 392 405 397 l 397 389 q 447 386 412 386 q 484 380 467 386 l 484 374 q 429 371 465 371 q 395 363 406 371 l 484 359 l 484 347 l 473 347 q 446 344 463 347 q 422 340 428 340 q 397 359 401 340 q 370 291 382 347 q 351 177 357 236 q 342 75 344 118 l 311 75 l 311 106 q 314 177 311 132 q 318 261 317 222 l 315 261 q 304 195 307 238 q 298 130 301 151 q 281 86 295 109 l 281 75 l 258 75 l 258 92 q 259 113 258 99 q 261 141 260 127 q 262 163 262 155 l 262 179 q 244 138 260 165 q 229 93 229 111 l 220 93 q 200 111 200 93 q 201 140 200 121 q 203 168 203 159 q 207 187 203 174 q 211 205 211 200 q 203 224 211 218 q 188 180 193 213 q 177 133 182 147 q 153 118 171 118 q 146 119 149 119 q 139 119 144 119 q 127 138 127 126 q 137 170 127 150 q 147 203 147 189 q 153 227 147 212 q 158 252 158 243 q 154 267 158 258 q 141 217 146 243 q 128 171 135 191 q 110 131 121 150 q 90 147 90 134 q 96 170 90 155 q 102 197 102 184 q 158 643 158 388 q 147 897 158 762 q 131 918 135 907 q 122 952 127 928 q 110 987 117 977 l 113 993 q 92 996 107 996 q 75 1007 75 996 l 75 1014 q 94 1018 81 1017 q 115 1019 106 1019 q 132 1025 124 1019 q 115 1031 126 1031 q 98 1028 109 1031 q 81 1025 87 1025 q 69 1038 69 1025 q 72 1051 69 1043 l 278 1075 l 278 1078 q 171 1073 227 1076 q 75 1063 115 1069 q 68 1078 68 1066 q 138 1089 93 1089 l 176 1089 q 248 1098 219 1089 q 293 1135 277 1106 q 370 1090 311 1090 q 415 1093 385 1090 q 460 1096 445 1096 q 652 1060 568 1096 q 775 940 736 1025 q 782 915 776 926 q 795 892 788 904 q 807 868 802 881 q 812 836 812 854 q 825 810 825 827 q 818 773 825 792 q 796 754 811 754 q 791 755 793 755 q 786 755 789 755 l 778 764 l 772 764 q 768 750 768 758 q 783 692 768 724 q 802 729 790 724 l 812 729 l 818 720 q 826 734 823 724 q 836 749 829 745 q 801 591 836 666 q 701 468 765 517 q 711 485 702 473 q 720 504 720 497 l 720 509 l 693 482 l 685 490 q 697 503 692 497 q 707 514 703 508 q 710 526 710 520 q 708 530 710 529 q 703 523 707 527 q 695 514 700 518 q 687 506 691 509 q 679 497 683 503 q 667 511 672 500 q 657 530 662 522 q 644 539 652 538 l 644 533 q 655 506 644 524 q 667 471 667 488 q 761 320 707 400 q 865 164 814 240 q 839 134 854 142 m 564 498 l 554 497 q 522 468 529 486 q 568 407 525 407 q 607 427 591 407 q 612 443 609 433 q 615 458 615 453 q 597 486 615 473 q 564 498 580 498 m 554 607 q 595 677 580 641 q 618 753 611 714 l 627 753 q 637 737 637 747 q 632 720 637 731 q 627 703 627 709 q 631 718 629 711 q 636 729 633 724 q 644 737 639 734 l 667 720 q 663 712 666 717 q 660 704 660 707 l 660 700 q 665 712 663 703 q 673 721 667 721 q 677 721 676 721 q 679 720 678 720 q 686 710 682 715 q 690 700 690 705 q 696 707 692 702 q 704 711 701 711 l 664 737 q 615 789 643 768 q 559 824 588 811 q 506 845 530 838 q 432 868 482 853 q 429 885 431 874 q 426 906 427 895 q 424 922 424 916 l 424 932 l 450 932 q 408 940 424 932 q 389 652 408 767 q 386 631 388 644 q 383 616 383 618 q 394 555 383 597 q 406 479 406 512 q 415 488 408 486 q 447 490 422 490 q 461 493 453 490 q 408 501 416 493 q 417 514 408 511 q 453 517 426 517 l 444 517 q 412 528 426 517 q 450 534 427 534 q 448 543 449 539 q 447 551 448 547 q 446 559 446 555 q 458 581 446 570 l 463 581 q 484 572 473 581 q 501 561 496 563 q 507 575 507 564 q 554 607 522 607 m 419 543 l 419 557 l 427 543 l 419 543 m 427 599 l 432 599 l 432 595 l 427 595 l 427 599 l 427 713 l 427 717 q 432 815 429 783 q 511 800 479 811 q 562 760 543 789 q 566 732 566 736 q 548 661 566 686 q 504 624 530 635 q 427 599 477 612 m 222 1011 l 179 1007 q 168 1017 177 1017 q 147 1007 160 1017 l 165 1007 q 179 988 174 1000 q 189 963 185 976 q 197 935 193 949 q 205 914 202 920 q 214 937 208 922 q 224 965 220 952 q 228 991 228 977 q 225 1014 228 1007 l 222 1011 m 203 977 q 200 976 201 977 q 196 975 198 976 q 190 985 191 975 q 184 999 189 996 q 214 1004 205 1004 q 209 991 212 1001 q 203 977 206 982 m 212 1038 q 132 1031 155 1038 q 175 1035 157 1034 q 212 1038 192 1036 m 168 340 l 174 340 l 174 354 l 168 354 l 168 340 m 205 250 l 208 300 q 205 250 205 283 m 249 1044 q 212 1038 221 1038 q 250 1042 231 1038 l 249 1044 m 208 300 q 211 354 211 318 l 208 300 m 278 909 q 261 901 273 907 q 243 888 250 895 q 236 871 236 881 q 239 857 236 868 q 243 839 243 846 q 289 815 263 815 q 314 831 304 815 q 323 865 323 848 q 313 893 323 886 q 278 909 303 901 m 278 429 q 252 386 252 408 q 264 357 252 370 q 294 345 277 345 q 325 359 313 345 q 338 392 338 374 q 325 421 338 409 q 294 433 312 433 q 278 429 290 433 m 278 296 l 277 265 q 278 296 278 277 m 285 1004 q 289 1050 289 1027 q 285 1095 289 1071 q 250 1042 285 1053 q 267 1030 260 1035 q 280 1019 275 1025 q 285 1004 285 1013 m 275 228 l 277 265 q 275 228 275 252 m 326 1071 q 335 1050 332 1065 q 345 1031 338 1035 q 358 1051 358 1036 q 357 1057 358 1055 l 349 1057 q 346 1065 349 1057 q 343 1074 343 1072 l 326 1071 z "},"S":{"ha":863,"x_min":21,"x_max":842,"o":"m 783 1084 q 765 994 781 1059 q 750 893 750 929 q 733 858 739 878 q 722 810 728 838 q 710 762 717 781 q 627 804 671 783 q 542 839 583 826 q 460 851 500 851 q 374 831 414 851 l 361 810 q 413 734 382 765 q 484 687 445 703 q 572 671 524 671 q 595 664 580 671 q 630 646 611 656 q 660 631 650 636 q 758 556 716 602 q 820 452 799 510 q 842 329 842 393 q 820 203 842 273 q 760 106 798 133 q 628 29 730 58 q 447 0 526 0 q 300 16 372 0 q 156 60 228 31 q 21 127 84 90 q 61 297 24 195 l 79 294 q 88 333 85 304 q 98 377 92 361 q 121 393 104 393 q 167 366 128 390 q 214 342 206 342 q 224 347 219 342 q 235 353 229 353 l 235 349 q 341 297 295 315 q 436 279 388 279 q 504 291 463 279 q 545 322 545 303 q 533 359 545 327 q 501 407 523 391 q 458 427 479 422 q 394 439 437 432 q 338 450 351 446 q 193 550 252 479 q 99 711 133 620 q 54 896 65 802 q 64 914 57 906 q 86 934 71 922 q 103 947 102 946 q 104 982 104 958 q 129 1026 104 1025 q 143 1023 138 1023 q 183 1050 149 1023 q 250 1099 216 1078 q 339 1139 283 1120 q 469 1157 395 1157 q 629 1138 548 1157 q 783 1084 710 1120 m 472 1118 q 332 1096 393 1118 q 279 1068 317 1083 q 224 1036 242 1053 q 205 983 205 1019 l 199 1019 q 160 977 160 1019 q 161 962 160 970 q 163 946 162 953 q 164 935 163 939 q 164 922 164 930 q 160 896 164 908 q 155 983 155 925 l 154 1002 l 142 1002 q 129 939 129 979 q 136 875 129 913 q 129 861 129 867 q 133 848 129 857 q 138 832 138 839 l 134 821 q 118 865 126 839 q 103 903 110 890 q 136 727 109 808 q 220 581 164 645 q 358 484 277 516 q 416 529 395 496 q 409 548 416 540 q 387 568 401 555 q 368 589 373 580 l 374 591 q 390 577 380 583 q 414 568 401 572 q 440 562 428 565 l 392 595 q 377 616 391 603 q 358 635 363 629 l 361 639 q 464 581 411 593 q 469 609 464 589 q 473 643 473 630 q 385 712 419 667 q 335 814 351 757 q 318 932 318 871 q 329 954 318 947 l 332 936 l 336 937 q 347 932 345 937 q 336 916 336 928 q 340 903 336 915 q 349 908 345 905 q 357 911 353 911 q 361 908 361 911 l 343 893 q 347 871 343 876 q 441 890 392 890 q 529 876 481 890 q 625 842 578 861 q 675 822 673 822 q 685 828 682 822 q 688 845 688 835 q 692 860 689 854 q 635 892 666 884 q 536 914 604 900 q 557 918 541 918 q 604 912 583 918 q 653 893 625 906 q 699 875 682 880 q 701 885 699 876 q 703 900 703 894 q 674 918 692 909 q 645 933 657 927 q 624 950 632 940 l 633 951 q 676 937 650 951 q 717 921 703 923 l 721 957 q 696 968 713 960 q 670 979 680 975 q 644 983 660 982 q 664 987 652 987 q 696 980 675 987 q 724 972 718 973 l 724 978 q 732 1014 724 991 q 741 1053 741 1038 q 737 1065 741 1063 q 724 1067 734 1067 q 714 1074 716 1067 q 639 1092 687 1080 q 551 1111 591 1104 q 472 1118 511 1118 m 395 1089 l 422 1089 l 395 1089 m 392 1084 q 373 1081 387 1082 q 353 1077 360 1080 q 340 1067 345 1074 q 353 1077 345 1074 q 373 1081 360 1080 q 392 1084 387 1082 m 332 1063 l 319 1053 l 332 1063 m 570 1048 l 554 1048 q 605 1044 579 1048 q 659 1031 630 1039 q 714 1019 688 1024 q 644 1041 673 1034 q 570 1048 615 1048 m 257 1042 l 260 1008 l 257 1042 m 376 1042 l 376 1040 q 367 1038 376 1038 l 361 1038 q 375 1042 368 1042 l 376 1042 m 401 1006 q 372 997 389 1002 q 345 988 356 993 q 325 977 334 983 q 401 1006 368 1006 m 260 977 l 262 977 l 262 1002 l 260 1002 l 260 977 m 201 965 q 176 922 176 953 q 188 892 176 903 q 218 880 199 880 q 249 893 237 880 q 261 925 261 905 q 248 955 261 944 q 212 965 234 965 l 201 965 m 399 957 q 383 954 399 954 q 391 956 387 954 q 399 957 396 957 m 446 929 q 419 926 437 929 l 446 929 m 163 893 l 160 893 l 170 812 l 172 812 q 168 850 170 826 q 163 893 165 874 m 216 852 l 214 857 l 216 842 l 216 852 m 239 794 q 227 813 232 799 q 221 835 221 827 q 239 794 223 813 m 170 715 q 136 817 157 730 q 170 715 144 768 m 224 725 q 236 696 231 709 q 249 674 241 684 q 268 657 256 665 l 268 664 q 244 694 256 671 q 224 725 232 717 m 239 661 l 244 650 l 239 661 m 278 650 q 264 639 270 645 q 253 628 259 633 q 249 607 249 617 q 289 562 249 562 q 314 571 303 562 q 334 607 334 576 q 329 631 334 618 q 288 652 308 652 l 278 650 m 515 635 l 551 625 q 541 621 544 621 q 530 623 539 621 q 515 625 520 625 l 510 625 l 507 607 q 518 606 511 606 q 528 603 526 605 q 503 599 522 599 q 501 589 503 594 q 500 581 500 583 q 507 574 500 576 q 496 566 500 570 q 489 558 492 563 q 485 547 486 553 l 496 541 q 486 539 493 539 q 459 547 476 539 q 432 555 442 555 l 428 555 l 437 545 q 446 525 437 530 q 475 515 454 521 q 503 501 496 509 q 494 500 500 500 q 473 508 489 500 q 447 515 456 515 q 432 510 439 515 q 425 497 425 504 q 428 493 425 496 q 445 490 434 492 q 463 487 456 489 q 476 479 470 486 l 468 478 q 444 482 460 478 q 416 486 427 486 q 432 474 420 478 q 457 466 445 470 q 476 453 470 463 q 519 433 501 450 q 560 382 537 416 q 587 342 583 347 l 595 345 l 596 349 q 591 361 596 353 q 586 371 586 368 q 590 378 586 374 q 601 367 596 377 q 606 355 605 357 q 622 370 614 362 q 631 389 631 378 l 648 380 q 446 243 547 243 q 293 279 384 243 l 286 272 q 126 353 236 290 q 119 332 124 345 q 114 309 114 319 q 134 288 114 290 q 129 283 132 283 q 126 285 127 284 q 123 286 125 286 q 121 287 122 287 q 119 288 121 288 l 115 288 l 115 282 q 128 268 115 274 q 142 254 140 262 q 132 253 139 253 q 112 259 126 253 q 89 265 98 265 l 85 265 l 85 260 q 97 248 85 248 q 82 243 94 243 q 79 233 81 237 q 78 225 78 229 l 85 218 l 79 215 q 77 201 78 207 q 75 192 75 196 q 90 178 75 178 l 83 178 q 61 149 64 178 q 454 45 283 45 q 537 52 486 45 q 632 72 589 59 q 696 102 675 85 l 700 103 q 721 94 706 103 q 730 136 730 100 l 732 142 q 768 164 758 146 q 790 225 778 183 l 779 225 l 772 229 q 793 282 774 248 q 811 336 811 317 q 802 367 811 351 q 803 376 802 372 q 803 386 803 380 q 757 504 803 448 q 643 594 711 559 q 515 635 575 629 m 551 621 q 630 579 589 606 q 677 526 671 553 q 551 621 646 593 m 615 547 q 528 599 562 590 q 615 547 580 589 m 507 571 l 528 562 l 507 571 m 618 490 q 600 517 612 507 q 564 542 587 528 q 536 558 541 555 q 618 490 599 529 m 590 465 q 557 495 572 481 q 528 519 542 509 q 496 538 515 529 q 590 465 551 509 m 551 465 q 526 482 546 471 q 503 497 507 493 q 528 481 510 494 q 551 465 547 469 m 476 475 q 524 451 505 470 q 572 399 544 433 q 476 475 530 465 m 729 429 q 692 475 712 458 q 709 458 703 467 q 729 429 715 449 m 775 378 q 734 465 769 412 q 766 414 757 430 q 775 378 774 398 m 772 461 l 793 416 l 772 461 m 685 432 l 669 453 l 681 435 l 685 432 m 669 407 q 661 415 665 408 q 654 430 657 422 q 648 443 651 438 l 669 407 m 627 396 l 618 407 l 627 389 l 627 396 m 714 345 q 738 369 724 350 q 760 393 752 388 q 747 399 754 399 q 726 373 736 399 q 714 345 715 347 m 750 355 q 721 315 726 321 q 750 355 726 335 m 710 313 q 644 283 683 286 q 631 271 637 276 q 622 260 625 266 q 618 248 618 255 q 635 216 618 229 q 669 203 652 203 q 703 233 685 203 l 701 253 q 710 313 701 276 m 721 257 l 747 294 l 747 293 q 735 275 747 289 q 721 257 722 261 m 216 261 q 197 264 209 262 q 173 268 184 266 q 152 273 161 270 q 136 283 144 277 q 178 268 149 271 q 216 261 208 264 m 386 175 q 331 202 362 180 q 275 239 300 223 q 224 257 250 254 q 274 238 250 254 q 330 202 299 223 q 386 175 361 182 m 338 243 q 437 211 372 211 q 492 215 466 211 q 450 211 471 211 q 338 243 390 211 m 214 218 l 224 215 l 214 218 m 103 207 l 144 197 l 103 207 m 383 123 q 323 159 363 132 q 271 193 284 186 q 323 159 284 186 q 383 123 363 132 m 551 153 q 624 193 591 160 q 605 175 618 183 q 578 162 592 168 q 551 153 564 157 m 221 178 q 214 176 218 176 q 205 179 210 176 q 196 182 199 182 q 193 180 194 182 q 190 178 191 179 q 187 175 189 176 q 207 155 199 163 q 224 141 216 146 q 244 135 233 136 q 204 154 218 144 q 187 182 190 163 l 221 178 m 90 175 l 109 171 l 90 175 m 227 175 l 268 160 l 227 175 m 332 79 q 265 92 298 79 q 183 130 232 104 q 118 164 135 156 q 192 129 147 155 q 267 92 237 104 q 332 79 296 79 m 329 123 q 281 153 297 140 q 329 123 297 140 m 608 102 q 640 118 614 107 q 673 135 665 130 l 669 139 l 688 153 l 692 149 q 667 131 682 139 q 640 117 652 122 q 608 102 627 111 m 262 127 l 278 123 l 262 127 m 392 119 l 435 113 l 392 119 m 595 98 l 582 98 l 575 94 l 595 98 m 379 87 l 401 83 l 379 87 m 416 79 l 431 79 l 416 79 z "},"T":{"ha":950,"x_min":22,"x_max":926,"o":"m 865 1149 q 876 1157 867 1157 l 896 1157 q 903 1053 901 1120 q 908 942 905 987 q 924 856 911 897 q 926 843 926 846 q 919 832 926 836 q 896 824 912 828 q 879 819 880 819 q 814 813 844 815 q 759 809 785 811 q 706 802 734 807 q 654 789 677 796 q 646 562 646 679 q 651 381 646 468 q 667 205 656 294 q 696 32 678 115 q 587 21 600 21 l 582 29 q 514 9 570 19 q 432 0 459 0 q 233 65 344 0 q 277 224 275 159 q 268 248 268 233 q 279 287 268 261 q 293 318 291 313 q 316 451 310 379 q 322 614 322 522 q 313 804 322 692 q 22 843 165 821 q 32 884 30 861 q 38 939 35 907 q 48 992 41 970 q 74 1028 56 1013 q 80 1067 76 1048 q 93 1114 85 1086 q 104 1157 101 1143 q 479 1114 271 1114 q 669 1123 572 1114 q 865 1149 766 1132 m 865 1109 q 730 1092 792 1099 q 596 1081 667 1085 q 457 1076 525 1076 q 290 1083 371 1076 q 127 1105 209 1090 l 123 1059 q 165 1055 122 1059 q 242 1044 208 1050 q 281 1031 275 1038 q 202 1039 255 1031 q 122 1047 149 1047 l 117 1047 l 117 1036 q 111 1022 111 1028 q 122 1011 111 1017 q 134 997 134 1005 q 132 991 134 993 q 77 964 77 991 q 78 959 77 961 q 78 953 78 956 q 193 938 117 941 q 281 933 269 935 l 281 929 q 220 926 261 926 q 74 942 146 926 l 74 909 q 148 902 102 909 q 214 895 195 895 l 214 890 l 192 890 q 133 893 165 890 q 69 899 100 897 l 65 871 q 141 860 98 864 q 226 852 184 856 q 304 839 267 848 l 304 836 q 351 832 319 832 q 387 823 374 832 l 379 815 q 358 819 372 819 l 335 819 q 358 816 342 816 q 382 812 374 816 l 387 562 l 382 562 l 383 603 q 379 709 383 648 q 375 804 376 771 l 351 804 q 361 555 361 613 q 351 377 361 485 q 321 252 341 269 q 332 211 332 233 q 321 139 332 188 q 300 87 311 90 q 296 115 296 94 q 291 100 295 110 q 286 86 286 91 q 307 75 286 78 q 332 65 327 71 l 347 118 q 354 103 354 111 q 347 79 354 93 q 339 61 339 66 q 375 45 339 45 q 401 72 401 45 q 407 46 407 65 l 429 46 l 441 132 q 446 89 446 111 q 441 46 446 66 q 456 41 447 41 q 469 66 467 41 q 476 96 470 90 l 476 277 q 485 432 476 365 l 496 424 q 496 310 496 382 q 497 165 496 237 q 500 52 498 92 l 521 52 l 526 184 q 532 102 532 157 q 534 52 532 68 l 567 52 l 571 212 l 579 212 l 593 68 l 607 68 q 612 79 607 77 l 621 68 l 625 68 q 637 77 629 68 q 608 558 608 267 q 609 662 609 614 q 610 785 610 709 l 551 785 l 551 749 q 547 722 551 734 q 545 741 546 729 q 544 765 545 753 q 543 783 544 777 l 543 796 q 576 804 555 804 q 592 804 586 804 q 606 803 598 804 q 648 823 638 803 l 646 828 l 654 836 q 719 841 690 838 q 781 848 748 844 q 842 851 813 851 q 878 897 878 851 q 877 911 878 907 q 876 923 877 916 q 874 940 876 930 q 873 957 873 949 q 876 981 873 964 q 811 974 852 979 q 735 965 770 968 q 665 961 701 962 l 665 970 q 767 987 703 980 q 871 1004 831 995 l 868 1039 q 813 1034 844 1038 q 755 1026 781 1029 q 704 1023 728 1023 q 657 1028 678 1023 q 728 1035 665 1029 q 830 1047 791 1040 q 871 1067 870 1055 q 846 1074 863 1074 q 836 1073 840 1074 q 828 1072 833 1073 q 817 1070 823 1072 q 806 1069 810 1069 q 782 1075 791 1069 l 865 1086 l 865 1109 m 419 987 q 427 967 419 974 q 453 949 434 960 q 481 928 471 938 q 493 903 491 918 q 490 916 490 907 q 504 951 490 929 q 518 987 518 973 q 504 1020 518 1007 q 472 1034 490 1034 q 434 1021 450 1034 q 419 987 419 1009 m 332 985 q 252 991 284 989 q 183 996 220 993 q 269 991 233 993 q 332 985 304 990 m 571 953 l 590 949 l 571 953 m 500 890 q 532 902 516 899 q 572 906 547 905 q 610 909 597 907 q 551 907 597 907 q 500 890 507 907 m 840 909 q 746 899 810 904 q 810 905 764 905 q 840 909 826 905 m 429 815 l 429 804 l 433 804 q 443 688 443 713 l 441 675 l 437 796 q 444 806 437 803 q 457 808 450 808 q 468 811 463 811 q 481 777 481 811 q 478 794 478 787 q 512 813 478 808 q 575 819 547 819 q 587 836 583 819 q 429 815 515 815 m 579 703 l 582 703 l 582 733 l 579 733 l 579 703 m 543 694 l 541 640 l 543 694 m 579 682 l 574 526 l 579 682 m 427 265 l 429 265 l 429 288 l 427 288 l 427 265 m 421 257 l 414 146 l 421 257 m 371 221 l 351 118 l 371 221 m 309 182 l 304 154 l 309 182 m 607 154 l 610 87 l 607 154 m 300 123 l 304 123 l 304 138 l 300 138 l 300 123 m 410 138 l 407 77 l 410 138 z "},"U":{"ha":918,"x_min":22,"x_max":896,"o":"m 892 1157 q 884 1012 890 1105 q 873 827 878 920 q 866 655 869 734 q 864 522 864 576 q 867 372 864 444 q 878 232 871 299 q 896 100 884 164 q 813 72 869 94 q 729 41 758 50 q 663 32 700 32 q 611 37 645 32 q 604 85 604 63 q 565 67 590 83 q 530 46 540 50 q 465 22 498 32 q 400 6 432 12 q 336 0 368 0 q 275 9 298 0 q 214 43 252 18 q 118 126 154 82 q 64 220 82 170 q 38 327 45 271 q 25 461 30 384 l 41 469 l 41 481 q 22 509 22 485 q 24 545 22 520 q 25 583 25 570 q 34 717 25 650 q 61 871 43 783 q 91 1019 79 959 q 110 1146 103 1079 q 166 1124 136 1138 q 218 1101 195 1111 q 265 1089 241 1092 q 273 1108 273 1095 q 392 1092 341 1093 q 443 1095 410 1092 q 429 1031 439 1067 q 406 954 419 995 q 383 879 393 913 q 370 822 374 844 q 349 632 349 720 q 427 379 349 472 q 533 404 482 383 q 518 653 518 517 q 525 900 518 771 q 550 1100 532 1028 q 558 1107 550 1107 q 593 1101 566 1107 q 633 1096 621 1096 q 750 1111 694 1096 q 892 1157 806 1126 m 796 961 q 791 1076 791 999 q 719 1058 743 1062 q 668 1052 694 1053 q 607 1046 642 1050 q 590 1057 605 1057 l 585 1057 q 579 974 583 1024 q 571 874 575 924 q 564 758 568 825 q 561 659 561 692 q 585 411 561 530 l 590 411 q 571 373 587 388 q 534 350 555 358 q 488 338 513 342 q 437 330 463 334 q 446 318 441 326 q 457 305 451 310 q 472 300 463 300 q 464 295 468 298 q 454 292 459 292 q 424 326 434 292 q 416 329 418 329 q 408 318 410 329 q 403 302 406 307 q 310 628 310 428 q 319 765 310 693 q 346 906 329 836 q 387 1057 362 975 l 342 1057 q 338 1037 340 1053 q 330 1015 337 1021 q 326 1028 326 1021 q 330 1043 326 1031 q 334 1061 334 1055 q 310 1065 326 1065 l 288 1065 q 265 911 286 990 q 260 976 264 919 q 245 1057 256 1032 q 235 1063 240 1063 q 220 1035 225 1063 l 214 1038 q 216 1048 216 1046 q 210 1065 216 1060 q 189 1076 203 1070 l 175 1023 q 171 1040 171 1030 q 172 1055 171 1045 q 174 1068 174 1064 q 155 1090 174 1090 l 146 1089 q 122 950 140 1055 q 95 780 104 845 q 79 640 85 715 q 72 498 72 565 q 78 382 72 441 q 98 270 83 323 q 142 169 113 216 q 214 87 170 121 q 175 170 176 140 q 198 135 185 163 q 221 94 212 107 q 249 81 231 81 l 254 81 q 258 94 258 87 q 247 123 258 104 q 235 153 235 142 l 235 157 l 241 150 q 250 151 244 151 q 263 145 258 151 q 274 128 268 138 q 287 113 281 118 q 301 109 292 109 q 311 111 306 109 q 302 123 309 116 q 296 138 296 131 l 298 146 l 307 139 q 316 122 310 126 q 331 115 321 119 q 345 103 340 111 l 364 104 q 380 100 373 104 q 358 96 369 100 q 333 87 347 93 q 304 74 319 81 q 277 65 288 66 q 301 53 285 53 q 328 57 311 53 q 353 61 345 61 l 315 43 q 351 37 330 37 q 419 48 387 37 q 496 81 451 59 q 572 117 541 104 q 635 134 604 130 l 635 131 q 667 146 644 134 q 705 158 690 158 l 711 157 l 711 111 l 703 142 q 688 132 688 142 q 690 121 688 132 q 693 107 692 111 l 689 96 q 685 117 685 98 q 672 127 685 127 q 663 113 667 127 q 657 96 659 99 l 650 111 l 642 103 q 646 87 646 100 q 648 76 646 85 q 653 66 651 66 q 657 68 656 66 l 661 100 q 666 85 662 96 q 669 68 669 73 l 689 68 l 688 81 q 692 92 688 87 q 696 81 694 87 q 701 72 699 75 q 707 68 703 68 q 714 77 714 71 q 710 94 714 78 l 715 103 q 723 88 720 99 q 726 77 726 77 q 737 80 734 77 q 742 89 740 83 q 746 100 743 94 l 749 87 l 757 87 q 747 139 750 107 q 742 187 744 171 q 771 211 751 195 q 803 242 791 227 q 814 277 814 257 q 821 247 814 271 q 827 211 827 222 q 822 187 827 199 q 819 198 821 191 q 815 212 817 205 q 814 224 814 219 q 799 210 810 217 q 785 196 789 203 l 779 184 q 774 186 778 186 q 768 183 770 186 q 765 176 765 180 l 760 180 l 760 161 q 768 136 766 155 q 774 110 771 117 q 786 103 777 103 l 791 103 l 791 115 q 796 127 791 121 l 803 111 q 827 131 827 111 q 824 153 827 140 q 821 174 821 165 q 827 192 821 184 q 832 158 829 180 q 842 122 835 135 l 844 127 q 818 461 818 281 q 824 663 818 546 q 837 898 830 781 q 844 1100 844 1015 q 798 1047 798 1100 q 799 1019 798 1038 q 800 991 800 1000 q 796 961 800 971 m 214 1018 l 207 958 l 214 1018 m 172 1015 l 164 907 l 172 1015 m 322 991 l 318 972 l 322 991 m 746 939 l 749 939 l 749 958 l 746 958 l 746 939 m 703 950 l 700 950 l 700 838 l 703 838 q 677 799 696 823 q 649 760 659 775 q 640 722 640 745 q 669 591 640 654 l 664 685 l 665 660 q 661 639 665 647 l 657 639 l 657 647 q 651 692 657 662 q 644 733 644 722 q 653 770 644 753 q 707 893 707 803 q 703 950 707 920 m 203 920 l 207 920 l 207 945 l 203 945 l 203 920 m 311 945 l 307 926 l 311 945 m 302 920 l 298 896 l 302 920 m 661 880 l 664 880 l 664 916 l 661 916 l 661 880 m 142 772 l 161 896 q 152 837 157 876 q 142 772 148 798 m 231 873 l 235 873 l 235 892 l 231 892 l 231 873 m 296 868 l 298 868 l 298 885 l 296 885 l 296 868 m 292 860 l 288 831 l 292 860 m 227 857 l 222 842 l 227 857 m 285 807 l 288 807 l 288 822 l 285 822 l 285 807 m 785 778 q 754 815 761 808 l 785 778 m 631 803 l 627 783 l 631 803 m 265 676 q 272 747 272 699 q 279 791 272 775 q 272 721 272 770 q 265 676 272 690 m 214 764 l 220 764 l 220 783 l 214 783 l 214 764 m 623 676 l 627 676 l 627 772 l 623 772 l 623 676 m 793 739 l 791 737 q 788 745 789 737 q 786 757 786 753 l 787 761 q 790 752 787 760 q 793 739 793 745 m 749 707 l 749 710 q 718 753 749 736 q 697 746 706 752 q 675 726 688 739 l 669 693 q 682 734 671 715 q 711 753 692 753 q 739 742 732 753 q 749 707 746 730 m 796 646 l 800 646 l 800 718 l 796 718 l 796 646 m 730 661 q 726 678 728 668 q 721 695 724 688 q 707 704 717 701 l 700 696 q 697 700 697 699 q 703 703 697 703 q 721 694 712 703 q 730 676 730 686 l 730 661 m 754 699 l 757 679 q 754 699 757 688 m 700 639 l 703 639 l 703 679 l 700 679 l 700 639 m 650 534 q 627 668 629 595 l 627 660 q 637 595 627 634 q 650 534 648 555 m 737 566 l 749 583 l 742 566 q 716 584 730 568 q 703 611 703 600 l 703 631 q 737 566 703 585 m 757 619 l 754 596 l 757 619 m 791 619 l 787 576 l 791 619 m 785 568 l 777 538 l 785 568 m 599 546 l 604 546 l 604 561 l 599 561 l 599 546 m 689 549 l 694 529 l 689 549 m 604 534 l 607 504 q 604 534 607 515 m 774 511 l 777 511 l 777 529 l 774 529 l 774 511 m 700 524 l 703 507 l 700 524 m 107 500 l 115 404 l 107 500 m 707 500 l 715 484 l 707 500 m 627 431 l 627 433 q 619 463 627 443 q 611 492 611 483 l 611 496 l 627 431 m 254 489 q 267 403 255 445 q 295 325 278 361 q 340 236 311 289 q 383 157 370 183 q 437 180 420 163 q 357 225 389 190 q 310 302 326 260 q 277 407 294 344 q 269 435 270 417 q 266 468 267 454 q 254 489 264 483 m 650 484 l 661 441 l 650 484 m 692 472 l 694 453 q 692 472 694 467 m 765 415 q 770 412 768 414 q 776 409 773 410 q 781 407 779 407 q 802 420 793 407 q 811 446 811 434 q 807 464 811 458 l 804 464 q 788 456 794 464 q 776 434 782 448 q 765 415 770 420 m 650 407 q 623 354 623 388 l 623 338 q 668 314 637 314 q 699 329 686 314 q 711 363 711 345 q 696 395 711 382 q 663 408 682 408 l 650 407 m 118 354 l 123 354 l 123 376 l 118 376 l 118 354 m 164 368 l 170 330 l 164 368 m 791 335 q 736 292 772 325 q 675 245 699 258 l 681 241 q 731 266 709 256 q 774 292 753 277 l 779 277 l 779 297 q 789 305 783 302 q 803 311 795 307 q 807 293 807 306 q 811 281 807 283 q 811 294 811 289 q 810 304 810 298 q 812 325 810 312 q 815 345 815 338 l 814 357 q 801 348 808 355 q 791 335 793 341 m 172 172 q 150 232 161 201 q 131 291 138 262 q 123 346 123 319 q 130 302 125 323 q 143 255 134 280 q 159 208 151 229 q 172 172 168 186 m 183 292 q 172 318 172 300 l 172 322 q 214 196 195 233 q 205 218 212 203 q 199 241 199 232 q 200 250 199 248 l 211 241 l 222 243 q 255 229 246 243 q 274 186 264 216 q 296 146 285 156 l 296 153 q 276 190 296 160 q 257 235 257 219 q 258 243 257 237 q 260 250 260 248 q 275 282 275 262 q 262 314 275 300 q 229 328 250 328 q 208 323 214 328 q 194 307 201 319 q 183 292 187 296 m 557 289 q 532 278 547 281 q 499 274 517 276 q 472 265 481 271 q 515 275 486 272 q 557 283 544 277 l 557 289 m 526 237 l 519 237 l 514 235 l 526 237 m 542 199 l 530 192 l 542 199 m 220 187 l 231 157 l 220 187 m 785 170 l 787 170 l 787 184 l 785 184 l 785 170 m 737 127 q 729 167 729 151 l 730 172 l 737 127 m 446 161 q 406 147 431 159 q 370 134 380 135 q 406 147 380 135 q 446 161 431 159 m 787 153 q 789 147 787 154 q 791 136 791 140 l 793 138 q 787 153 793 142 m 488 139 q 468 131 481 131 q 488 139 481 131 m 403 109 l 392 109 l 383 103 l 403 109 m 372 65 q 404 74 377 71 q 443 87 431 77 q 408 74 433 77 q 372 65 382 71 z "},"V":{"ha":1051,"x_min":25,"x_max":1026,"o":"m 1026 1046 q 1001 973 1015 1006 q 952 863 987 941 q 901 742 917 785 q 881 665 891 696 q 848 567 871 634 q 817 469 825 500 q 779 337 802 414 q 740 205 755 260 q 717 90 725 151 q 695 75 713 84 q 668 57 676 66 q 603 41 644 57 q 549 22 562 25 q 533 33 549 33 q 519 31 525 33 q 477 6 490 12 q 446 0 465 0 q 424 24 446 24 q 402 23 412 24 q 378 22 391 23 q 358 90 370 57 q 328 174 347 123 q 297 267 310 224 q 304 279 298 269 q 310 293 310 288 q 301 304 310 300 q 282 354 297 319 q 268 410 268 389 q 271 432 268 418 q 240 478 252 452 q 221 535 228 505 q 206 599 214 566 q 187 657 198 632 q 25 1023 106 874 q 244 1120 157 1064 q 264 1100 256 1118 q 282 1082 273 1082 q 297 1089 286 1082 q 323 1019 322 1046 q 315 1025 318 1021 q 308 1039 313 1029 q 301 1051 304 1048 q 282 1035 286 1051 l 285 1006 q 279 1030 285 1020 q 260 1055 273 1040 q 244 1080 248 1069 q 241 1074 242 1078 q 240 1062 240 1069 q 239 1051 239 1055 q 231 1069 239 1069 q 225 1065 229 1069 l 199 1051 q 201 1035 201 1047 q 193 1051 201 1043 l 151 1028 l 160 989 q 156 1005 159 994 q 151 1019 153 1016 q 140 1022 143 1022 q 114 1012 130 1022 q 90 1000 98 1002 q 94 980 90 989 q 103 963 97 971 q 114 947 109 955 q 162 838 138 897 q 208 715 186 779 q 243 603 229 650 q 278 478 258 555 q 307 446 283 467 q 330 411 330 425 q 321 386 330 400 l 304 386 q 323 322 309 365 q 343 252 338 279 q 356 221 345 245 q 371 184 367 197 q 375 155 375 171 l 367 164 q 408 71 377 90 l 412 103 q 428 77 420 98 q 443 49 437 56 q 477 60 452 56 q 514 67 503 63 q 525 86 525 71 q 519 107 525 96 l 530 114 q 543 91 532 111 q 566 64 554 71 q 588 68 582 64 q 595 85 595 73 q 593 109 595 94 q 591 136 591 124 q 581 252 581 179 q 603 85 583 151 q 637 90 635 85 q 631 179 631 153 q 644 87 631 110 l 657 87 q 664 146 664 112 q 664 169 664 161 q 663 189 663 176 q 661 219 662 201 q 660 256 661 237 q 667 241 667 250 q 669 222 668 231 q 676 207 669 212 q 683 223 682 214 q 686 245 684 232 q 690 267 687 258 q 683 217 690 248 q 676 171 676 186 q 688 129 676 147 q 707 185 701 155 q 725 258 714 215 q 782 454 745 328 q 845 661 819 581 q 903 832 870 742 q 975 1017 935 923 q 964 1025 971 1023 q 947 1028 956 1026 q 932 1001 943 1019 q 915 971 922 983 q 904 943 909 960 q 922 984 909 957 q 939 1028 935 1010 q 916 1038 930 1035 q 886 1046 903 1041 q 867 1017 871 1036 l 878 1046 q 825 1065 852 1063 l 812 1043 q 817 1053 812 1044 q 821 1069 821 1061 q 779 1084 789 1084 q 725 962 747 1028 q 749 1023 732 983 q 771 1084 765 1064 q 755 1093 765 1086 q 741 1100 746 1100 q 728 1089 731 1100 q 660 918 688 990 q 609 774 631 845 q 576 631 587 704 q 581 620 578 629 q 591 611 584 611 q 610 646 600 628 q 623 679 619 664 q 613 648 623 666 q 594 612 604 631 q 585 581 585 594 q 595 550 585 563 q 603 528 595 530 q 615 548 610 536 q 623 566 619 559 q 613 536 621 560 q 604 498 604 513 q 614 465 604 480 q 598 483 602 471 q 589 516 593 494 q 576 550 585 538 q 566 554 575 554 q 537 653 557 604 q 485 771 518 702 q 435 880 451 841 q 408 966 420 918 q 392 1006 399 989 q 379 1037 385 1023 q 367 1068 373 1051 q 354 1103 360 1086 q 336 1108 349 1108 q 308 1105 326 1108 q 288 1101 289 1101 q 267 1135 267 1101 q 288 1141 273 1141 q 304 1140 292 1141 q 322 1139 315 1139 q 343 1143 336 1139 q 361 1149 351 1143 q 374 1154 372 1154 q 380 1143 378 1154 q 416 1049 391 1118 q 465 918 441 981 q 505 813 488 855 q 549 714 522 770 q 583 799 564 751 q 631 928 602 847 q 675 1049 661 1009 q 714 1157 690 1090 q 1026 1046 891 1081 m 205 1028 l 210 1013 l 205 1028 m 250 981 l 248 1019 l 250 994 l 250 981 m 799 1006 q 806 1017 799 1010 l 799 1006 m 856 986 l 864 1008 l 859 989 l 856 986 m 793 989 l 782 958 l 793 989 m 852 978 l 836 940 l 852 978 m 216 970 l 221 936 l 216 970 m 256 970 l 258 970 l 258 943 l 256 943 l 256 970 m 679 852 l 722 956 q 702 903 717 936 q 679 852 686 869 m 775 940 l 768 913 l 775 940 m 901 936 l 886 897 l 901 936 m 258 929 l 262 864 l 258 929 m 367 901 l 370 890 l 367 901 m 258 852 l 262 852 l 262 799 l 258 799 l 258 852 m 393 672 q 371 713 384 694 q 338 761 358 733 q 297 821 319 789 l 290 733 l 290 840 q 318 787 299 813 q 361 730 338 760 q 393 672 384 699 m 256 768 l 258 768 l 258 750 l 256 750 l 256 768 m 793 742 l 782 714 l 793 742 m 285 722 l 282 690 l 285 722 m 370 642 q 353 676 361 664 q 332 696 346 689 q 315 691 321 696 q 302 677 309 686 q 293 665 296 667 l 293 614 q 297 671 293 652 q 321 699 302 690 q 349 687 342 698 q 370 642 355 676 m 775 696 l 760 650 l 775 696 m 278 679 l 282 679 l 282 644 l 278 644 l 278 679 m 354 623 l 354 603 q 335 642 354 632 q 321 632 326 642 q 315 623 316 623 q 343 562 323 576 l 354 574 q 339 562 349 562 q 317 619 317 593 q 323 644 317 634 q 332 647 329 647 q 341 644 338 647 q 348 633 345 640 q 354 623 351 625 m 755 642 l 742 596 l 755 642 m 386 585 l 375 633 l 386 596 l 386 585 m 644 623 l 633 587 l 644 623 m 278 614 l 282 614 l 282 596 l 278 596 l 278 614 m 412 614 l 415 596 l 412 614 m 297 607 l 301 607 l 301 587 l 297 587 l 297 607 m 282 587 l 285 562 l 282 587 m 301 581 l 315 542 l 301 581 m 389 574 l 393 574 l 393 557 l 389 557 l 389 574 m 665 574 l 660 557 l 665 574 m 642 503 q 639 513 639 508 q 648 529 639 518 q 657 550 657 541 l 642 503 m 489 539 l 492 452 l 489 539 m 343 503 q 352 504 349 504 q 358 509 356 505 q 354 500 354 505 q 333 512 343 502 q 321 534 323 522 q 343 503 338 507 m 419 528 l 424 528 l 424 473 l 419 473 l 419 528 m 688 509 l 679 481 l 688 509 m 310 503 l 332 473 l 310 503 m 623 427 q 628 460 625 436 q 637 497 631 484 q 630 460 637 482 q 623 427 623 437 m 375 427 q 362 445 373 427 q 343 469 351 463 l 375 427 m 660 419 l 668 446 l 665 424 l 660 419 m 705 437 l 694 404 l 705 437 m 642 358 q 643 371 642 365 q 648 381 645 376 q 653 393 650 387 l 642 358 m 688 380 l 679 358 l 688 380 m 427 375 l 432 375 l 432 358 l 427 358 l 427 375 m 489 367 l 492 323 l 489 367 m 378 351 l 386 340 l 378 351 m 714 351 l 705 323 l 714 351 m 671 332 l 676 347 l 676 335 l 671 332 m 432 340 l 435 313 l 432 340 m 389 329 l 393 313 l 389 329 m 668 323 l 657 278 l 668 323 m 699 297 l 694 278 l 699 297 m 400 282 l 404 271 l 400 282 m 576 264 l 572 278 l 576 275 l 576 264 m 561 232 q 557 188 561 201 q 538 171 553 175 q 522 168 533 168 q 497 175 503 172 q 478 216 478 194 q 481 236 478 225 q 503 256 488 252 q 542 251 527 256 q 561 232 556 247 m 625 201 l 631 201 l 631 187 l 625 187 l 625 201 z "},"W":{"ha":1497,"x_min":36,"x_max":1461,"o":"m 823 1137 q 843 1148 830 1144 q 867 1154 855 1152 q 893 1111 881 1141 q 910 1070 905 1080 q 936 1053 916 1059 q 952 980 944 1025 q 966 908 960 935 q 987 854 972 882 q 1017 932 1003 889 q 1053 1047 1031 975 q 1088 1157 1075 1120 q 1127 1138 1105 1150 q 1163 1119 1149 1125 q 1196 1112 1177 1112 q 1225 1118 1203 1112 q 1226 1114 1226 1117 q 1223 1103 1226 1110 q 1221 1090 1221 1095 q 1232 1079 1221 1079 l 1225 1055 l 1229 1046 q 1239 1068 1236 1055 q 1244 1093 1242 1081 l 1303 1104 q 1329 1096 1307 1096 q 1340 1096 1337 1096 q 1350 1095 1344 1095 q 1363 1093 1356 1094 q 1377 1092 1371 1092 q 1400 1096 1388 1092 q 1404 1079 1404 1086 q 1401 1057 1404 1073 q 1397 1038 1397 1041 l 1461 1029 q 1393 836 1447 987 q 1298 568 1338 684 q 1227 344 1258 451 q 1197 199 1197 237 q 1203 158 1197 189 q 1210 111 1210 127 q 1195 74 1210 84 q 1144 60 1179 64 q 1094 54 1109 57 q 1068 36 1079 51 q 1051 40 1062 40 q 1022 33 1042 40 q 991 26 1002 26 q 977 43 977 26 q 978 56 977 47 q 979 66 979 65 q 965 91 979 79 q 945 108 950 103 q 940 132 940 113 q 929 179 940 161 l 936 187 q 982 102 968 151 q 976 166 982 134 q 960 244 970 199 q 945 313 949 290 q 962 238 955 277 q 979 151 970 199 q 999 66 989 102 q 1017 62 1007 62 q 1057 75 1035 62 q 1053 102 1053 85 q 1048 129 1052 118 q 1065 78 1050 100 q 1116 90 1078 90 l 1116 106 l 1132 86 q 1160 94 1156 86 q 1150 134 1150 124 l 1152 140 q 1154 123 1153 136 q 1159 103 1156 111 q 1171 94 1162 95 q 1174 111 1174 100 q 1165 168 1174 132 q 1153 286 1156 210 q 1146 400 1150 362 q 1126 479 1143 439 l 1135 484 q 1139 472 1138 480 q 1146 460 1141 463 q 1165 534 1151 490 q 1186 600 1180 578 q 1193 647 1192 622 q 1186 601 1192 627 q 1171 545 1179 574 q 1157 492 1162 517 q 1152 447 1152 467 q 1160 399 1152 421 q 1249 711 1173 409 q 1216 587 1235 655 q 1182 461 1196 519 q 1162 359 1168 404 q 1168 334 1165 347 q 1179 313 1171 321 q 1227 483 1202 395 q 1280 652 1253 570 q 1338 822 1306 733 q 1404 990 1371 911 q 1395 994 1399 991 q 1386 998 1390 996 q 1377 1000 1381 1000 l 1369 999 q 1355 961 1365 991 q 1335 913 1344 930 q 1314 886 1326 897 q 1325 938 1322 903 q 1331 998 1329 973 q 1346 1038 1334 1023 q 1352 1036 1348 1038 q 1358 1035 1356 1035 q 1369 1040 1367 1035 l 1369 1057 q 1311 1064 1322 1064 q 1283 1060 1293 1064 q 1260 997 1272 1037 q 1240 936 1249 956 l 1229 943 l 1264 1046 q 1260 1050 1264 1047 q 1254 1053 1255 1053 l 1249 1053 q 1229 993 1239 1023 q 1206 936 1218 962 l 1202 962 q 1191 934 1196 954 q 1186 913 1187 914 q 1195 959 1188 933 q 1208 1006 1202 984 q 1217 1047 1214 1028 q 1221 1084 1221 1066 q 1188 986 1211 1062 q 1165 897 1166 911 l 1162 897 q 1179 987 1163 928 q 1197 1076 1194 1046 q 1157 1086 1187 1083 q 1116 1104 1127 1088 q 1064 962 1099 1075 q 1021 803 1030 849 l 1035 791 l 1057 854 q 1047 823 1057 845 q 1038 790 1038 802 q 1060 755 1038 766 l 1076 789 q 1064 754 1064 774 q 1079 686 1064 734 q 1087 697 1080 690 q 1095 707 1095 705 q 1094 711 1095 709 q 1093 714 1094 713 q 1086 687 1091 705 q 1079 659 1080 669 q 1068 670 1071 661 q 1056 709 1065 680 q 1036 753 1046 738 q 1010 772 1026 769 l 1010 761 q 990 782 999 766 q 975 803 981 799 q 986 763 975 789 q 999 730 997 736 q 966 807 985 755 q 929 886 948 860 q 914 867 920 882 q 905 847 907 851 l 921 819 q 908 834 921 825 q 895 857 895 844 q 910 908 895 864 q 925 981 925 953 q 905 1048 925 1022 q 893 1044 899 1048 q 882 1038 887 1041 q 869 1034 877 1035 l 863 1040 q 831 1004 855 1026 q 800 971 808 983 l 783 975 q 802 1034 792 990 q 828 1096 811 1078 l 828 1107 l 817 1108 q 759 1074 777 1108 q 741 994 741 1039 q 742 966 741 975 q 705 901 723 949 l 705 905 q 712 920 705 906 q 720 940 719 933 q 666 955 678 947 q 653 975 653 963 l 653 982 q 647 999 653 993 l 636 986 q 652 1022 637 991 q 673 1073 666 1053 q 684 1112 680 1093 q 675 1116 681 1116 l 664 1116 q 618 1032 635 1076 q 578 918 600 987 q 539 808 557 848 q 534 789 534 797 q 554 742 534 770 q 593 847 587 795 q 575 778 591 826 q 558 703 558 730 q 523 761 547 718 q 481 822 499 804 q 471 818 473 818 q 462 828 466 818 q 453 842 458 838 l 453 859 q 399 940 427 899 q 341 1022 372 981 q 285 1093 311 1063 q 261 1065 261 1082 q 304 987 261 1061 q 351 905 347 912 q 347 908 347 905 q 333 933 340 918 q 321 956 326 948 q 294 1002 313 966 q 254 1053 274 1038 l 252 1007 l 235 1018 q 231 1014 231 1018 q 234 1008 231 1013 q 237 999 237 1004 q 262 990 243 990 q 267 960 267 976 l 265 928 q 253 940 258 931 q 243 960 248 948 q 232 979 237 972 l 172 1053 q 142 1014 142 1035 q 177 954 142 997 q 218 893 213 911 q 252 828 227 873 q 195 925 225 875 q 138 1010 165 976 q 106 971 106 989 q 227 803 179 883 q 293 636 274 724 q 220 804 269 724 q 102 971 172 884 l 82 956 q 113 897 102 916 q 142 847 124 878 q 179 780 160 817 q 207 722 199 743 q 387 94 340 409 q 410 86 394 89 q 429 82 425 84 l 429 98 q 422 175 429 136 q 400 267 414 213 q 379 359 386 321 q 396 293 385 336 q 415 219 408 250 q 431 150 423 189 q 441 82 439 112 q 450 79 444 82 q 456 75 457 75 l 465 75 q 478 109 478 88 q 475 131 478 117 q 472 153 473 145 q 440 210 440 183 q 446 231 440 222 q 453 249 453 235 q 468 256 460 256 q 489 251 475 256 q 509 245 504 245 q 519 257 515 245 l 554 66 q 606 86 586 77 l 597 164 q 608 82 606 106 q 632 129 623 108 q 640 170 640 149 q 633 203 640 184 q 628 227 628 208 q 632 209 631 216 q 634 194 633 202 q 637 178 635 186 q 644 160 640 169 q 652 191 651 170 q 656 218 654 212 l 694 351 q 676 286 692 330 q 660 216 660 243 q 672 172 660 193 q 695 264 678 191 q 727 398 712 338 q 759 501 743 457 q 791 558 776 545 q 807 598 794 564 q 835 644 819 633 q 854 595 844 626 q 873 541 865 564 q 893 496 881 519 q 863 567 878 519 q 835 636 848 614 q 824 609 833 632 q 815 572 815 585 q 828 542 815 557 q 829 541 829 541 q 829 539 829 540 q 822 549 827 539 q 815 566 817 559 q 802 541 802 559 q 804 519 802 530 l 800 522 q 789 485 789 505 q 797 447 789 468 q 812 410 805 426 q 825 377 820 393 q 831 343 831 361 q 854 270 846 307 q 873 164 862 232 q 893 66 885 96 q 918 89 918 73 q 913 102 918 95 q 908 109 908 104 l 909 118 q 914 101 912 109 q 918 87 916 93 q 925 75 920 81 q 928 76 927 76 q 932 77 930 77 q 945 71 939 77 q 959 51 951 64 q 968 36 966 37 l 968 28 q 949 29 961 29 q 918 25 935 29 q 888 15 901 20 q 854 0 875 9 q 838 101 848 34 q 820 215 828 168 q 799 310 812 262 q 764 401 785 358 q 733 281 752 365 q 704 156 714 198 q 677 66 694 113 q 673 64 675 64 q 661 67 671 64 q 643 71 650 71 q 633 56 633 71 q 604 41 624 50 q 570 23 584 32 q 547 4 556 15 q 533 20 541 9 q 518 38 525 32 q 503 45 511 45 q 493 42 498 45 q 486 38 489 39 q 476 33 482 36 q 463 31 471 31 q 421 38 448 31 q 376 45 395 45 q 356 57 361 45 q 349 95 351 70 q 340 129 346 120 q 297 349 323 243 q 232 557 270 455 q 145 759 195 659 q 36 951 96 859 l 36 962 q 97 1027 55 986 q 157 1096 139 1069 q 184 1076 174 1090 q 207 1042 194 1062 q 232 1014 219 1022 q 233 1018 233 1016 q 233 1022 233 1019 q 227 1047 233 1032 q 221 1069 221 1063 q 224 1079 221 1074 l 293 1152 q 500 847 421 988 l 503 847 q 534 941 516 897 q 582 1054 551 985 q 625 1157 612 1123 q 751 1128 687 1128 q 823 1137 791 1128 m 659 1021 q 676 1034 663 1029 q 699 1043 688 1039 q 711 1057 709 1046 q 716 1039 711 1046 q 737 1021 722 1033 q 745 1038 743 1029 q 750 1057 747 1046 q 757 1072 752 1067 q 749 1105 757 1105 q 729 1093 734 1105 q 720 1068 724 1080 q 707 1107 720 1107 q 677 1072 694 1107 q 659 1021 660 1037 m 859 1040 l 839 1096 q 849 1073 840 1090 q 859 1040 859 1055 m 843 1053 l 839 1038 l 847 1038 l 847 1044 l 843 1053 m 1221 1026 l 1213 994 l 1221 1026 m 310 791 q 281 841 305 797 q 233 931 258 885 q 199 990 208 977 q 310 791 255 923 m 1210 986 l 1206 971 l 1210 986 m 1065 880 l 1060 869 l 1065 880 m 321 873 q 336 843 325 863 q 355 806 347 822 q 363 781 362 791 q 351 813 358 791 q 338 849 345 835 q 321 873 332 863 m 1088 835 l 1084 822 l 1088 835 m 925 808 l 932 789 l 925 808 m 882 803 l 901 761 l 882 803 m 614 764 l 606 730 l 614 764 m 878 722 l 867 745 l 878 714 l 878 722 m 1101 736 l 1096 722 l 1101 736 m 600 722 l 581 664 l 600 722 m 854 677 l 843 694 l 859 656 l 854 677 m 600 585 q 615 629 605 600 q 628 675 625 659 l 628 669 q 615 621 628 653 q 600 585 602 589 m 714 659 l 700 619 l 714 659 m 1112 639 l 1104 606 l 1112 639 m 873 616 l 878 606 l 873 616 m 694 612 l 672 554 l 694 612 m 1116 550 q 1119 575 1118 553 q 1126 606 1120 597 l 1116 550 m 694 519 q 705 550 700 528 q 714 585 709 573 q 705 549 714 572 q 694 519 696 526 m 616 539 l 608 530 q 616 506 614 517 q 620 477 618 495 q 625 446 622 460 q 620 433 623 444 q 608 421 616 422 l 608 393 q 624 367 619 380 q 634 335 629 354 q 644 299 639 315 q 656 268 648 282 q 660 281 660 274 q 657 294 660 285 q 654 307 654 302 q 664 346 654 315 q 685 418 673 377 q 705 484 698 458 q 686 420 695 464 q 672 360 676 376 q 653 323 667 344 q 643 354 643 337 q 657 404 643 372 q 672 449 671 435 l 659 427 q 643 458 643 437 q 650 493 643 471 q 659 522 657 515 q 639 479 656 499 q 624 510 631 494 q 616 539 616 526 m 692 507 l 675 460 l 692 507 m 375 379 q 372 395 375 382 q 368 407 368 408 l 375 368 l 375 379 m 1104 374 l 1096 382 l 1104 363 l 1104 374 m 1112 343 l 1107 354 l 1112 335 l 1112 343 m 453 273 l 437 340 l 453 257 l 453 273 m 1116 313 l 1121 313 l 1121 329 l 1116 329 l 1116 313 m 1007 321 l 1010 301 q 1007 321 1010 310 m 509 313 l 511 293 q 509 313 511 307 m 1121 304 l 1124 282 q 1121 304 1124 297 m 625 245 l 608 282 l 625 235 l 625 245 m 1018 273 l 1021 254 l 1018 273 m 593 172 q 589 216 593 191 q 581 262 585 240 l 593 172 m 1132 249 l 1135 231 l 1132 249 m 987 201 q 998 166 987 175 q 1026 152 1008 157 q 1046 138 1044 147 l 1048 138 l 1048 149 l 1046 149 q 1060 157 1054 157 q 1080 195 1080 170 q 1065 228 1080 213 q 1029 243 1049 243 q 1000 231 1013 243 q 987 201 987 219 m 1140 207 l 1143 187 l 1140 207 m 893 199 l 901 153 l 893 199 m 528 179 q 476 157 507 157 l 475 147 q 481 119 475 136 q 488 97 487 102 q 497 98 490 98 q 547 75 517 98 q 539 110 541 92 q 536 145 538 127 q 528 179 534 163 m 1146 149 l 1152 149 l 1152 164 l 1146 164 l 1146 149 m 1112 118 l 1104 153 q 1103 144 1103 150 q 1108 135 1103 142 q 1114 123 1114 128 l 1112 118 z "},"X":{"ha":1074,"x_min":25,"x_max":1048,"o":"m 538 878 l 546 878 q 812 1137 702 1043 q 854 1109 829 1133 q 895 1080 879 1085 q 904 1088 898 1088 q 938 1059 913 1088 q 962 1018 962 1031 q 1048 957 1019 987 l 1048 937 q 734 589 875 779 q 799 475 751 561 q 887 319 848 389 q 962 191 926 250 q 947 153 962 167 q 906 130 932 140 q 867 115 879 121 q 856 139 856 124 q 857 146 856 141 q 859 151 859 151 l 875 160 l 832 239 l 875 163 q 884 160 880 160 q 917 174 891 160 q 867 280 895 228 q 791 423 840 333 q 721 551 741 513 q 676 646 701 589 l 676 663 l 685 663 l 685 657 q 728 692 700 659 q 779 764 755 726 q 812 825 803 803 q 823 840 817 827 q 832 856 829 852 l 869 899 q 823 834 850 877 q 781 765 796 791 q 739 703 765 738 q 689 646 713 668 l 700 631 q 739 663 723 644 q 769 708 754 682 q 798 754 785 734 q 776 717 795 743 q 754 673 756 691 q 822 750 783 703 q 887 826 861 796 q 945 888 913 857 q 1013 943 977 920 q 985 980 1004 964 q 945 999 966 996 q 897 957 927 984 q 921 985 900 968 q 945 1014 943 1001 q 920 1037 936 1018 q 886 1055 904 1055 l 812 994 q 830 1014 819 1001 q 850 1037 841 1027 q 867 1053 860 1046 q 856 1067 863 1056 q 841 1084 848 1078 q 827 1090 833 1090 q 763 1039 818 1090 q 642 921 708 988 q 564 839 576 854 l 572 833 q 754 937 649 910 l 785 962 q 731 928 764 941 q 664 902 697 915 q 611 867 631 888 q 593 846 610 857 q 576 828 577 835 l 589 814 q 778 901 665 890 q 674 873 724 897 q 591 808 624 849 l 599 808 q 645 828 612 808 q 710 847 678 847 l 720 847 q 712 820 718 842 q 700 789 707 798 q 699 788 700 789 q 699 786 699 787 q 700 790 700 786 q 713 814 705 807 l 711 821 q 714 828 711 828 q 717 835 717 828 l 715 844 l 703 844 q 668 837 686 844 q 629 817 651 830 q 595 798 606 804 q 608 789 599 789 l 623 794 q 631 799 624 799 q 665 772 665 799 q 658 738 665 757 q 639 715 651 719 q 533 847 598 771 l 515 844 l 334 1089 q 297 1075 313 1089 q 314 1031 301 1055 q 340 984 327 1008 q 358 940 354 961 l 353 940 q 309 1004 337 971 q 254 1068 281 1038 q 215 1038 223 1057 q 309 909 242 1004 q 276 951 294 922 q 244 1003 258 980 q 210 1042 230 1026 l 193 1034 q 208 1004 203 1014 q 219 983 213 994 q 232 962 224 972 q 174 1048 197 994 q 252 1107 184 1058 l 260 1100 q 334 1157 304 1109 q 538 878 472 956 m 154 1022 q 64 957 87 972 l 61 937 q 142 831 107 875 q 243 706 178 787 q 314 619 309 626 l 314 615 q 309 604 314 607 q 225 499 262 549 q 156 400 189 450 q 69 267 123 351 q 49 234 63 258 q 33 208 35 210 q 29 194 33 203 q 25 182 25 184 l 26 174 q 99 129 56 156 q 193 73 143 102 q 282 23 242 43 q 335 3 321 3 q 353 12 345 3 q 372 37 361 20 q 386 58 382 54 q 447 175 413 118 q 522 283 481 233 q 598 150 557 229 q 676 0 639 71 q 773 42 714 9 q 864 85 833 75 q 853 114 863 96 q 839 143 843 132 q 803 195 822 159 q 778 239 784 230 q 823 109 796 163 q 791 89 808 89 q 773 100 781 89 q 756 131 764 111 q 741 164 748 151 q 724 182 734 178 q 778 85 769 108 q 734 65 759 69 q 707 113 720 89 q 678 165 694 137 q 650 215 663 194 q 623 256 637 235 q 675 162 640 230 q 732 61 710 95 q 723 56 727 58 q 712 50 718 53 q 700 47 707 47 q 651 130 677 81 q 605 217 625 179 q 561 289 584 255 l 546 289 q 507 352 523 327 q 471 399 491 378 q 485 359 471 383 q 498 322 498 336 l 498 314 q 449 243 470 277 q 389 146 428 210 q 325 47 350 83 q 317 60 317 53 q 328 82 317 68 q 339 104 338 96 l 309 58 q 295 66 304 63 q 280 71 286 68 q 271 81 275 73 l 353 201 q 313 141 338 185 q 267 78 288 98 q 252 81 257 78 q 239 90 246 84 q 224 100 231 96 q 248 156 224 122 q 273 193 272 190 q 256 172 264 184 q 233 142 247 161 q 210 109 220 123 q 170 135 178 120 q 202 198 186 164 q 232 271 218 233 q 254 336 246 310 q 220 244 246 319 q 165 135 193 169 q 150 144 163 138 q 136 157 136 150 q 139 165 136 160 q 171 219 159 191 q 201 301 182 248 q 235 382 220 355 q 205 307 226 361 q 170 221 185 253 q 131 160 155 189 l 109 174 q 170 314 136 219 q 146 257 158 293 q 129 207 135 222 q 109 178 122 193 q 83 193 98 178 q 192 390 127 292 q 334 581 256 488 q 364 545 348 572 q 383 514 380 518 q 309 317 309 437 q 332 323 315 317 q 355 329 349 329 l 364 329 q 338 301 354 315 q 301 277 321 288 q 262 256 281 266 q 274 320 268 279 q 289 387 281 362 q 275 339 279 367 q 266 284 271 311 q 252 239 262 257 q 414 368 342 303 q 384 349 402 361 q 351 330 366 337 q 322 323 336 323 l 314 325 q 386 507 314 448 l 395 498 q 381 480 393 496 q 362 453 368 464 q 355 428 355 442 q 360 406 355 410 q 383 395 364 401 q 411 412 393 399 q 429 435 429 426 q 402 407 411 414 q 382 399 394 399 q 372 404 382 399 q 358 410 361 409 l 357 422 q 361 441 357 431 q 373 463 366 452 q 383 479 380 473 q 399 488 395 488 q 406 484 404 488 q 390 440 390 469 l 390 427 q 404 434 391 427 q 422 446 417 441 q 428 460 428 450 q 405 502 428 471 q 371 553 382 532 q 358 600 359 573 q 305 682 338 637 q 225 782 272 726 q 157 870 179 839 q 115 943 135 901 q 135 960 130 958 q 240 823 186 900 q 355 643 294 745 q 314 721 324 685 q 237 828 302 738 q 135 960 172 918 l 150 979 q 181 961 167 975 q 210 932 196 946 l 218 932 q 235 922 223 932 q 254 909 248 911 q 230 942 253 926 q 204 962 208 959 l 154 1022 m 765 982 l 754 977 l 765 982 m 737 962 l 726 951 l 737 962 m 673 937 l 679 937 q 707 943 692 937 l 700 945 q 693 944 696 945 q 687 941 690 943 q 682 939 684 940 q 673 937 679 939 m 414 899 l 488 782 l 414 899 m 278 878 q 305 847 295 865 q 326 804 315 829 q 347 764 336 779 q 372 743 357 749 q 339 782 352 755 q 312 836 326 808 q 278 878 298 864 m 425 701 q 406 742 414 720 q 391 782 398 763 q 374 818 385 800 q 347 847 363 836 q 378 815 370 833 q 398 757 386 796 q 425 701 411 718 m 743 789 l 754 819 l 737 786 l 743 789 m 353 794 l 367 774 l 367 782 q 363 789 367 782 q 355 796 359 796 l 353 794 m 611 778 l 646 724 q 655 749 650 729 q 661 777 661 768 q 655 788 661 785 q 642 791 650 791 q 611 778 617 791 m 707 739 q 661 682 688 702 q 684 708 666 690 q 707 739 702 727 m 447 636 q 471 591 447 612 l 475 591 q 502 585 492 591 q 523 561 511 578 q 542 539 535 545 l 543 547 q 536 573 543 557 q 529 597 529 589 l 529 600 q 542 650 542 609 q 500 679 530 679 q 463 667 479 679 q 447 636 447 655 m 746 673 q 727 647 743 662 q 707 624 711 632 q 729 645 718 631 q 751 673 740 659 l 746 673 m 515 542 l 529 511 l 515 542 m 676 539 l 707 488 l 676 539 m 611 401 q 579 464 595 424 q 549 522 562 504 q 581 468 566 500 q 611 401 597 435 m 294 399 q 306 429 297 413 q 326 463 314 445 q 345 492 338 481 l 294 399 m 406 472 q 395 439 395 457 l 395 435 l 399 433 q 405 437 400 433 q 415 447 410 441 q 421 454 421 454 q 414 465 421 458 q 406 472 406 471 m 271 446 l 240 390 l 243 390 q 248 410 243 400 q 259 428 252 419 q 271 446 266 437 m 778 359 l 771 368 l 778 351 l 778 359 m 676 340 l 715 258 q 676 340 715 277 m 828 252 l 812 275 l 828 248 l 828 252 m 765 264 l 771 252 l 765 264 m 353 123 l 355 132 l 355 123 l 353 123 z "}}}
